<svg width="26" height="27" viewBox="0 0 26 27" fill="none" xmlns="http://www.w3.org/2000/svg">
<path fill-rule="evenodd" clip-rule="evenodd" d="M12.6827 4.77921C13.1057 5.20229 13.1057 5.88821 12.6827 6.31128L6.94873 12.0452H21.6667C22.265 12.0452 22.75 12.5303 22.75 13.1286C22.75 13.7269 22.265 14.2119 21.6667 14.2119H6.94873L12.6827 19.9459C13.1057 20.3689 13.1057 21.0549 12.6827 21.4779C12.2597 21.901 11.5737 21.901 11.1506 21.4779L3.5673 13.8946C3.36414 13.6915 3.25 13.4159 3.25 13.1286C3.25 12.8413 3.36414 12.5657 3.5673 12.3626L11.1506 4.77921C11.5737 4.35615 12.2597 4.35615 12.6827 4.77921Z" fill="black" fill-opacity="0.45"/>
</svg>
