<svg width="26" height="26" viewBox="0 0 26 26" fill="none" xmlns="http://www.w3.org/2000/svg">
<path d="M18.3622 3.71278C18.3622 3.71278 17.3449 10.8532 15.1671 14.6254C12.9892 18.3976 7.6377 22.2881 7.6377 22.2881" stroke="#1C274C" stroke-width="1.59302" stroke-linecap="round"/>
<path d="M23.6859 12.371C17.8241 13.6569 9.81409 8.28934 8.20898 3.44716" stroke="#1C274C" stroke-width="1.59302" stroke-linecap="round"/>
<path d="M17.7819 22.5234C16.17 17.734 8.31396 12.4448 2.47949 13.5939" stroke="#1C274C" stroke-width="1.59302" stroke-linecap="round"/>
<path d="M7.58366 22.3837C9.1771 23.3055 11.0271 23.833 13.0003 23.833C18.9834 23.833 23.8337 18.9828 23.8337 12.9997C23.8337 7.01664 18.9834 2.16634 13.0003 2.16634C7.01724 2.16634 2.16699 7.01664 2.16699 12.9997C2.16699 14.9729 2.69454 16.8229 3.6163 18.4163" stroke="#1C274C" stroke-width="1.59302" stroke-linecap="round"/>
</svg>
