<svg width="32" height="28" viewBox="0 0 32 28" fill="none" xmlns="http://www.w3.org/2000/svg">
<path d="M16.948 15.4001L13.2671 18.606C13.1171 18.7362 12.9981 18.891 12.9168 19.0616C12.8356 19.2322 12.7937 19.4152 12.7937 19.6C12.7937 19.7849 12.8356 19.9678 12.9168 20.1384C12.9981 20.309 13.1171 20.4639 13.2671 20.594C13.4159 20.7253 13.5929 20.8294 13.7879 20.9005C13.9829 20.9716 14.1921 21.0082 14.4034 21.0082C14.6146 21.0082 14.8238 20.9716 15.0188 20.9005C15.2139 20.8294 15.3909 20.7253 15.5396 20.594L21.9412 14.9941C22.0868 14.8609 22.2011 14.7039 22.2772 14.5321C22.4373 14.1912 22.4373 13.8089 22.2772 13.4681C22.2011 13.2962 22.0868 13.1392 21.9412 13.0061L15.5396 7.4061C15.3904 7.27557 15.2133 7.17202 15.0183 7.10138C14.8234 7.03074 14.6144 6.99438 14.4034 6.99438C14.1924 6.99438 13.9834 7.03074 13.7884 7.10138C13.5935 7.17202 13.4163 7.27557 13.2671 7.4061C13.1179 7.53664 12.9995 7.6916 12.9188 7.86215C12.838 8.0327 12.7965 8.2155 12.7965 8.4001C12.7965 8.5847 12.838 8.76749 12.9188 8.93804C12.9995 9.10859 13.1179 9.26356 13.2671 9.39409L16.948 12.6001H1.60038C1.17593 12.6001 0.768868 12.7476 0.468739 13.0101C0.16861 13.2727 0 13.6288 0 14.0001C0 14.3714 0.16861 14.7275 0.468739 14.99C0.768868 15.2526 1.17593 15.4001 1.60038 15.4001H16.948ZM16.0038 0.00013957C13.0128 -0.0115417 10.078 0.710234 7.53212 2.0836C4.98628 3.45696 2.93133 5.42695 1.60038 7.7701C1.40937 8.10427 1.37795 8.49113 1.513 8.84557C1.64806 9.20001 1.93854 9.493 2.32054 9.66009C2.70255 9.82718 3.14478 9.85467 3.54995 9.73652C3.95512 9.61838 4.29005 9.36426 4.48105 9.03009C5.49279 7.24275 7.03178 5.72418 8.93898 4.6313C10.8462 3.53842 13.0524 2.91089 15.3296 2.81355C17.6068 2.71622 19.8725 3.15261 21.8924 4.07763C23.9123 5.00266 25.6132 6.38275 26.8193 8.07529C28.0254 9.76784 28.6929 11.7114 28.753 13.7052C28.813 15.699 28.2634 17.6706 27.1608 19.4164C26.0582 21.1621 24.4428 22.6186 22.4813 23.6354C20.5199 24.6522 18.2837 25.1923 16.0038 25.2C13.6174 25.2091 11.2765 24.6293 9.24968 23.5274C7.22286 22.4254 5.59228 20.8459 4.54507 18.97C4.35407 18.6359 4.01914 18.3818 3.61397 18.2636C3.20879 18.1455 2.76656 18.173 2.38456 18.34C2.00256 18.5071 1.71208 18.8001 1.57702 19.1546C1.44196 19.509 1.47339 19.8959 1.66439 20.23C2.93321 22.4637 4.86118 24.3603 7.24886 25.7237C9.63653 27.087 12.3972 27.8676 15.2454 27.9846C18.0935 28.1016 20.9257 27.5509 23.4489 26.3893C25.9722 25.2278 28.0949 23.4976 29.5975 21.3778C31.1 19.258 31.9279 16.8254 31.9955 14.3319C32.0631 11.8383 31.3679 9.3742 29.9818 7.19447C28.5958 5.01473 26.5692 3.19852 24.1117 1.93368C21.6542 0.668839 18.855 0.0013106 16.0038 0.00013957Z" fill="white"/>
</svg>
