<svg width="16" height="17" viewBox="0 0 16 17" fill="none" xmlns="http://www.w3.org/2000/svg">
<path d="M8 16.5C12.418 16.5 16 12.918 16 8.5C16 4.082 12.418 0.5 8 0.5C3.582 0.5 0 4.082 0 8.5C0 12.918 3.582 16.5 8 16.5ZM9 9.5C9 9.76522 8.89464 10.0196 8.70711 10.2071C8.51957 10.3946 8.26522 10.5 8 10.5C7.73478 10.5 7.48043 10.3946 7.29289 10.2071C7.10536 10.0196 7 9.76522 7 9.5V4.5C7 4.23478 7.10536 3.98043 7.29289 3.79289C7.48043 3.60536 7.73478 3.5 8 3.5C8.26522 3.5 8.51957 3.60536 8.70711 3.79289C8.89464 3.98043 9 4.23478 9 4.5V9.5ZM8 11.484C8.13135 11.484 8.26142 11.5099 8.38276 11.5602C8.5041 11.6105 8.61435 11.6842 8.70721 11.7771C8.80007 11.87 8.87372 11.9803 8.92396 12.1017C8.97419 12.2231 9.00003 12.3531 9 12.4845C8.99997 12.6159 8.97406 12.7459 8.92377 12.8673C8.87347 12.9886 8.79976 13.0989 8.70686 13.1917C8.61395 13.2846 8.50367 13.3582 8.3823 13.4085C8.26093 13.4587 8.13085 13.4845 7.9995 13.4845C7.73422 13.4844 7.47983 13.379 7.29229 13.1914C7.10475 13.0037 6.99943 12.7493 6.9995 12.484C6.99957 12.2187 7.10501 11.9643 7.29264 11.7768C7.48027 11.5893 7.73472 11.4839 8 11.484Z" fill="black" fill-opacity="0.7"/>
</svg>
