<svg width="20" height="21" viewBox="0 0 20 21" fill="none" xmlns="http://www.w3.org/2000/svg">
<g clip-path="url(#clip0_137_27206)">
<path d="M2.91667 20.5003H15.4167C16.1914 20.4981 16.9336 20.1886 17.4805 19.6398C18.0273 19.0909 18.334 18.3476 18.3333 17.5728V11.292C18.3333 11.071 18.2455 10.859 18.0893 10.7027C17.933 10.5465 17.721 10.4587 17.5 10.4587C17.279 10.4587 17.067 10.5465 16.9107 10.7027C16.7545 10.859 16.6667 11.071 16.6667 11.292V17.5728C16.6678 17.9057 16.5368 18.2254 16.3024 18.4618C16.0681 18.6981 15.7495 18.8319 15.4167 18.8337H2.91667C2.58381 18.8319 2.26525 18.6981 2.0309 18.4618C1.79655 18.2254 1.66556 17.9057 1.66667 17.5728V5.09449C1.66556 4.76163 1.79655 4.44193 2.0309 4.20555C2.26525 3.96917 2.58381 3.83542 2.91667 3.83366H9.16667C9.38768 3.83366 9.59964 3.74586 9.75592 3.58958C9.9122 3.4333 10 3.22134 10 3.00033C10 2.77931 9.9122 2.56735 9.75592 2.41107C9.59964 2.25479 9.38768 2.16699 9.16667 2.16699H2.91667C2.14192 2.1692 1.3997 2.47869 0.852882 3.02753C0.306068 3.57638 -0.000664243 4.31974 1.08009e-06 5.09449V17.5728C-0.000664243 18.3476 0.306068 19.0909 0.852882 19.6398C1.3997 20.1886 2.14192 20.4981 2.91667 20.5003Z" fill="black"/>
<path d="M7.87924 9.28666L7.22174 12.2983C7.19198 12.4349 7.19706 12.5768 7.23653 12.711C7.27599 12.8451 7.34857 12.9671 7.44757 13.0658C7.54793 13.1621 7.67002 13.2327 7.80348 13.2717C7.93694 13.3107 8.07784 13.317 8.21424 13.29L11.2192 12.6308C11.3753 12.5966 11.5182 12.5182 11.6309 12.405L19.2259 4.81C19.4581 4.57785 19.6423 4.30223 19.7679 3.99889C19.8936 3.69555 19.9583 3.37042 19.9583 3.04208C19.9583 2.71374 19.8936 2.38862 19.7679 2.08528C19.6423 1.78193 19.4581 1.50632 19.2259 1.27416C18.7499 0.819278 18.1168 0.56543 17.4584 0.56543C16.8 0.56543 16.1669 0.819278 15.6909 1.27416L8.10757 8.87666C7.99375 8.98864 7.9145 9.13095 7.87924 9.28666ZM16.8692 2.45333C17.0278 2.30145 17.2389 2.21666 17.4584 2.21666C17.678 2.21666 17.889 2.30145 18.0476 2.45333C18.2017 2.61052 18.2881 2.82191 18.2881 3.04208C18.2881 3.26225 18.2017 3.47364 18.0476 3.63083L17.4584 4.22L16.2801 3.04166L16.8692 2.45333ZM9.45257 9.88167L15.0976 4.2225L16.2642 5.395L10.6167 11.0558L9.1209 11.3842L9.45257 9.88167Z" fill="black"/>
</g>
<defs>
<clipPath id="clip0_137_27206">
<rect width="20" height="20" fill="white" transform="translate(0 0.5)"/>
</clipPath>
</defs>
</svg>
