<svg width="16" height="17" viewBox="0 0 16 17" fill="none" xmlns="http://www.w3.org/2000/svg">
<path d="M12.8004 6.89016C12.8004 7.14316 12.6204 7.35016 12.4004 7.35016H3.60039C3.38039 7.35016 3.20039 7.14316 3.20039 6.89016C3.20039 6.63716 3.38039 6.43016 3.60039 6.43016H12.4004C12.6204 6.43016 12.8004 6.63716 12.8004 6.89016ZM9.96039 8.73016H3.60039C3.38039 8.73016 3.20039 8.93716 3.20039 9.19016C3.20039 9.44316 3.38039 9.65016 3.60039 9.65016H9.96039C10.1804 9.65016 10.3604 9.44316 10.3604 9.19016C10.3604 8.93716 10.1804 8.73016 9.96039 8.73016ZM12.4004 4.13016H3.60039C3.38039 4.13016 3.20039 4.33716 3.20039 4.59016C3.20039 4.84316 3.38039 5.05016 3.60039 5.05016H12.4004C12.6204 5.05016 12.8004 4.84316 12.8004 4.59016C12.8004 4.33716 12.6204 4.13016 12.4004 4.13016ZM15.6004 1.37016V12.4102C15.6004 12.6632 15.4204 12.8702 15.2004 12.8702H7.40039L4.68039 15.9522C4.58039 16.0902 4.00039 16.2742 4.00039 15.6302V12.8702H0.800391C0.580391 12.8702 0.400391 12.6632 0.400391 12.4102V1.37016C0.400391 1.11716 0.580391 0.910156 0.800391 0.910156H15.2004C15.4204 0.910156 15.6004 1.11716 15.6004 1.37016ZM14.8004 1.83016H1.20039V11.9502H4.40039C4.62039 11.9502 4.80039 12.1572 4.80039 12.4102V14.5262L6.96039 12.0882C7.04039 11.9962 7.14039 11.9502 7.24039 11.9502H14.8004V1.83016Z" fill="black"/>
</svg>
