<svg width="20" height="23" viewBox="0 0 20 23" fill="none" xmlns="http://www.w3.org/2000/svg">
<path fill-rule="evenodd" clip-rule="evenodd" d="M12.4318 12.1815C12.4453 12.2073 12.4956 12.2813 12.4745 12.3141C12.4641 12.3296 12.4259 12.2338 12.4169 12.2236C12.4072 12.213 12.4257 12.1854 12.4318 12.1815ZM12.4162 12.172C12.4162 12.172 12.4169 12.1718 12.417 12.1726C12.4111 12.1487 12.402 12.127 12.3902 12.1087C12.3722 12.0858 12.388 12.1636 12.4162 12.172ZM10.1145 11.123C10.1096 11.1379 10.1133 11.1258 10.1145 11.123V11.123ZM10.1145 11.123C10.1168 11.1139 10.0783 11.1269 10.0732 11.1433C10.0717 11.1485 10.1088 11.141 10.1145 11.123ZM12.9207 12.5068C12.9233 12.497 12.878 12.485 12.874 12.4868C12.8772 12.5 12.9139 12.531 12.9207 12.5068ZM10.4433 19.0521C10.4446 19.0541 10.4451 19.0541 10.4454 19.0529C10.4471 19.0506 10.4481 19.0488 10.4478 19.0488C10.4476 19.0517 10.4461 19.0527 10.4433 19.0521ZM9.87515 14.425C9.87505 14.3692 9.83955 14.4639 9.83975 14.4639C9.86515 14.474 9.87515 14.4635 9.87515 14.425ZM9.87515 14.425C9.87515 14.4251 9.87515 14.4251 9.87515 14.425C9.87515 14.4307 9.87565 14.4588 9.87515 14.425ZM10.0375 12.0426C10.0269 12.0429 9.98455 12.0168 9.98715 12.0321C9.99375 12.0715 10.0329 12.0668 10.0465 12.0477C10.0445 12.0419 10.0416 12.0401 10.0375 12.0426C10.0405 12.0426 10.0222 12.0434 10.0375 12.0426ZM10.134 18.7313C10.1416 18.7337 10.1484 18.7358 10.134 18.7313V18.7313ZM9.83145 14.4698C9.83305 14.4687 9.83535 14.4672 9.83975 14.4639C9.83682 14.4653 9.83402 14.4673 9.83145 14.4698ZM10.0277 11.8671C10.0346 11.8784 10.0859 11.926 10.0932 11.8978C10.0988 11.8778 10.0354 11.8605 10.0277 11.8671ZM9.52575 13.8141C9.52315 13.8046 9.52575 13.8004 9.53335 13.8015C9.52465 13.767 9.37175 13.7338 9.36675 13.7712C9.36755 13.7651 9.40625 13.8382 9.40085 13.8517C9.39005 13.8794 9.34875 13.8565 9.33485 13.8543C9.31795 13.8517 9.30885 13.8779 9.32855 13.8806C9.35205 13.8838 9.41705 13.8588 9.42765 13.9045C9.43425 13.9329 9.44775 13.8934 9.45195 13.8866C9.46755 13.8615 9.48525 13.8899 9.49515 13.8702C9.51155 13.8386 9.54685 13.8857 9.56035 13.8698C9.59055 13.8338 9.53785 13.8222 9.52575 13.8141ZM9.32855 13.8806C9.32405 13.8798 9.34995 13.8836 9.32855 13.8806V13.8806ZM10.3452 18.5825C10.3399 18.574 10.3491 18.5902 10.3452 18.5825V18.5825ZM9.64995 13.8541C9.64815 13.8159 9.59435 13.8937 9.62655 13.8917C9.66425 13.8902 9.71535 13.8565 9.64995 13.8541ZM9.32705 13.7493C9.32929 13.7492 9.33147 13.7482 9.33338 13.7464C9.33529 13.7446 9.33687 13.7421 9.33795 13.7392C9.34015 13.7186 9.19625 13.6082 9.17875 13.5946C9.11205 13.5426 9.01105 13.4889 8.96625 13.625C8.98565 13.6341 9.05765 13.5256 9.07175 13.5758C9.06869 13.5841 9.06396 13.5907 9.05825 13.5946C9.05645 13.6089 9.16575 13.6344 9.17405 13.6464C9.19155 13.6715 9.17255 13.7117 9.21085 13.7066C9.24925 13.7007 9.20015 13.7618 9.20015 13.7624C9.20205 13.7733 9.31465 13.756 9.32685 13.7493C9.32325 13.7512 9.30175 13.7637 9.32705 13.7493ZM9.23585 13.4054C9.23525 13.4021 9.23735 13.4165 9.23585 13.4054V13.4054ZM9.23935 13.4719C9.24175 13.4709 9.23615 13.4105 9.23585 13.4054C9.23215 13.3762 9.19935 13.4793 9.23935 13.4719ZM9.16985 13.8701C9.14755 13.8791 9.19555 13.9179 9.21545 13.9068C9.22315 13.902 9.23125 13.9174 9.23765 13.9044C9.25275 13.8744 9.17645 13.8671 9.16985 13.8701ZM9.16985 13.8701C9.16585 13.8713 9.19375 13.8606 9.16985 13.8701V13.8701ZM13.6558 14.7805C13.6555 14.779 13.6555 14.7778 13.6555 14.7768C13.6553 14.7926 13.655 14.8088 13.655 14.8248C13.6553 14.8296 13.6558 14.8177 13.6558 14.7805ZM3.11728 9.40262L2.90698 9.98128H3.32138L3.11728 9.40262ZM4.86697 9.74377C4.88117 9.72737 4.88817 9.69789 4.88817 9.65577V9.48475C4.88817 9.44353 4.88117 9.4145 4.86697 9.39781C4.85297 9.38141 4.82697 9.37284 4.78877 9.37284H4.29398V9.76859H4.78868C4.82697 9.76874 4.85297 9.76032 4.86697 9.74377ZM6.46847 9.82379C6.46847 9.67864 6.44227 9.56838 6.38987 9.49347C6.33707 9.41856 6.25977 9.38081 6.15697 9.38081H5.76687V10.2817H6.05167C6.20297 10.2817 6.31057 10.2459 6.37377 10.1752C6.43697 10.1045 6.46847 9.98685 6.46847 9.82379ZM3.21688 21.2257H3.66498V20.6126H3.21688V21.2257ZM1.33849 21.2257H1.78629V20.6126H1.33849V21.2257ZM2.27769 21.2257H2.72569V20.6126H2.27769V21.2257ZM13.5237 15.5978V15.5996C13.5245 15.5922 13.5277 15.5542 13.5237 15.5978ZM9.22235 12.0468C9.21995 12.0483 9.23755 12.0348 9.22235 12.0468V12.0468ZM10.3213 18.5507C10.3135 18.5544 10.3054 18.5908 10.3176 18.5834C10.3245 18.5792 10.3397 18.5591 10.3475 18.5613V18.5609C10.3402 18.5478 10.3317 18.5439 10.3213 18.5507ZM13.0823 21.2257H13.5302V20.6126H13.0823V21.2257ZM11.2038 21.2257H11.6515V20.6126H11.2038V21.2257ZM12.143 21.2257H12.5909V20.6126H12.143V21.2257ZM13.6555 14.7768C13.6555 14.7729 13.6558 14.7688 13.6558 14.7651C13.6551 14.7491 13.6538 14.733 13.6531 14.7168C13.654 14.7365 13.6547 14.7566 13.6555 14.7768ZM12.7468 12.3329L12.7446 12.3292C12.7448 12.3316 12.7461 12.3331 12.7476 12.3349C12.7476 12.3338 12.7473 12.3334 12.7468 12.3329ZM5.56617 21.2257H6.01417V20.6126H5.56617V21.2257ZM6.50557 21.2257H6.95356V20.6126H6.50557V21.2257ZM4.62688 21.2257H5.07487V20.6126H4.62688V21.2257ZM8.85455 21.2257H9.30245V20.6126H8.85455V21.2257ZM7.91516 21.2257H8.36306V20.6126H7.91516V21.2257ZM9.79375 21.2257H10.2418V20.6126H9.79375V21.2257ZM8.62125 15.247C8.61176 15.239 8.62815 15.3096 8.62426 15.3139C8.63845 15.3039 8.63116 15.2873 8.64005 15.2726C8.64056 15.2733 8.62706 15.2515 8.62125 15.247ZM10.9719 10.991C10.9859 10.9823 11.0118 11.0268 11.0303 11.0067C11.018 10.9856 10.9949 10.988 10.9913 10.9561C10.9866 10.9139 10.9991 10.9035 10.9627 10.8832C10.9648 10.8808 10.9261 10.8557 10.9158 10.8522C10.8875 10.8438 10.9113 10.8217 10.9004 10.7988C10.894 10.785 10.8631 10.7972 10.8561 10.7981C10.8155 10.8024 10.7739 10.7802 10.7323 10.7835C10.6781 10.7883 10.6255 10.8111 10.5707 10.8048C10.4882 10.7956 10.3228 10.7842 10.2551 10.8697C10.2589 10.8701 10.2708 10.8689 10.2731 10.8769C10.2589 10.8928 10.2481 10.8799 10.2335 10.9011C10.2409 10.8904 10.2428 10.9009 10.2399 10.9041C10.2868 10.934 10.4901 10.8005 10.492 10.8393C10.4927 10.8561 10.3839 10.8606 10.3905 10.9006C10.3941 10.9222 10.466 10.9035 10.4788 10.9076C10.5321 10.9237 10.4848 10.9915 10.4957 11.0127C10.4975 11.0159 10.5511 11.0055 10.552 11.0286C10.5451 11.0094 10.4326 11.0911 10.5172 11.0697C10.5238 11.0684 10.5359 11.0461 10.5413 11.0524C10.5588 11.0742 10.5355 11.093 10.5231 11.0923C10.4304 11.0854 10.5194 11.3757 10.6013 11.3555C10.6442 11.3454 10.6712 11.4352 10.6974 11.34C10.7067 11.3065 10.7099 11.268 10.7348 11.2511C10.753 11.2386 10.733 11.1974 10.7391 11.1944C10.7664 11.1791 10.7901 11.1712 10.8187 11.1628C10.8529 11.1532 10.8589 11.1142 10.8865 11.0935C10.8975 11.0851 11.0328 11.064 11.0209 11.0268C11.0105 10.9947 10.9331 11.0517 10.9339 11.0097C10.9694 11.0362 10.9495 11.005 10.9719 10.991ZM10.0208 10.9924C10.0425 10.9962 10.0624 10.9828 10.0825 10.9733C10.0624 10.9828 10.0846 10.9724 10.0825 10.9733C10.0932 10.9683 10.0383 10.9692 10.0208 10.9924ZM10.1252 10.9088C10.1133 10.9142 10.1228 10.9091 10.1252 10.9088C10.111 10.9091 10.0881 10.9083 10.0793 10.931C10.13 10.9605 10.0943 10.9214 10.1252 10.9088ZM11.0766 11.152C11.0806 11.1612 11.0861 11.1631 11.0925 11.1576C11.0875 11.1561 11.1099 11.1559 11.0925 11.1576C11.0977 11.1577 11.1028 11.1577 11.1076 11.1582C11.1104 11.1669 11.1098 11.1727 11.1061 11.1756C11.1255 11.1664 11.1387 11.2147 11.1612 11.2114C11.1811 11.2085 11.2844 11.237 11.2838 11.1651C11.283 11.0911 11.0763 11.1446 11.0766 11.152ZM10.1772 10.9106C10.1748 10.8919 10.1171 10.9402 10.1361 10.947C10.1651 10.9577 10.2223 10.957 10.247 10.9315C10.2291 10.9166 10.182 10.9528 10.1772 10.9106ZM10.4021 15.1832C10.4063 15.1771 10.409 15.1691 10.4099 15.1605C10.3934 15.1598 10.3787 15.2058 10.3979 15.1983C10.3977 15.1983 10.4443 15.1874 10.4297 15.1801C10.432 15.1811 10.4021 15.1816 10.4021 15.1832ZM14.8694 9.67638V20.4125C14.8694 21.5607 14.2448 22.5001 13.4814 22.5001H1.38779C0.624497 22.5001 0 21.5607 0 20.4125V9.67638C0 8.52793 0.624497 7.58887 1.38779 7.58887H13.4814C14.2448 7.58887 14.8694 8.52793 14.8694 9.67638ZM13.5568 15.1474C13.5812 15.1945 13.5827 15.0603 13.582 15.0776C13.5845 15.0208 13.5907 14.9907 13.58 14.9379C13.5824 14.9495 13.5754 14.9487 13.5759 14.9438C13.5526 14.9768 13.5412 15.117 13.5568 15.1474ZM13.5605 15.6986C13.5484 15.7738 13.5284 16.0141 13.5341 16.0159C13.5381 16.0174 13.5553 15.8127 13.562 15.7202C13.5628 15.7145 13.5641 15.7026 13.5647 15.6787C13.5647 15.684 13.5636 15.6993 13.562 15.7202C13.5602 15.731 13.5588 15.7162 13.5605 15.6986ZM13.2131 12.9558C13.2189 12.9891 13.2422 13.0271 13.2539 13.0558C13.2891 13.1405 13.3249 13.2245 13.3575 13.3113C13.4158 13.4663 13.4707 13.6366 13.5105 13.8043L13.5113 13.8073V13.8067C13.5117 13.8085 13.5117 13.8082 13.5117 13.8093C13.521 13.8457 13.5351 13.8788 13.5466 13.9135C13.4772 13.564 13.3688 13.2567 13.2327 12.9554C13.23 12.9487 13.2074 12.9259 13.2131 12.9558ZM13.5237 15.5978C13.5237 15.5985 13.5237 15.599 13.5235 15.6C13.5232 15.6079 13.5249 15.6134 13.5298 15.6155C13.5384 15.6131 13.5241 15.267 13.5235 15.2295C13.507 15.3541 13.5337 15.4764 13.5237 15.5978ZM13.5131 15.6146C13.4936 15.6252 13.4831 15.642 13.4861 15.6825C13.4914 15.6749 13.5131 15.6324 13.5128 15.6166C13.5128 15.6184 13.5136 15.6209 13.5131 15.6146ZM12.5256 11.6264C12.5542 11.6589 12.5828 11.6915 12.6106 11.726C12.5899 11.7001 12.5688 11.6747 12.5475 11.6499C12.5403 11.6419 12.5328 11.6347 12.5256 11.6264ZM9.49635 11.1988C9.51255 11.1891 9.52895 11.1789 9.54535 11.1706C9.53555 11.1925 9.51545 11.2101 9.50025 11.2209C9.53065 11.2045 9.56575 11.195 9.59055 11.1604C9.57965 11.1548 9.56995 11.1774 9.56115 11.1571C9.57955 11.1396 9.59889 11.1244 9.61895 11.1117C9.57765 11.1397 9.53675 11.1685 9.49635 11.1988ZM9.55855 12.2213C9.60935 12.1742 9.48645 12.1942 9.46395 12.2213C9.46635 12.2183 9.47695 12.2054 9.46385 12.2216C9.44495 12.2454 9.54195 12.2367 9.55855 12.2213ZM9.32355 12.3153C9.30335 12.3469 9.47265 12.3141 9.46745 12.2624C9.46505 12.24 9.33235 12.3012 9.32355 12.3153ZM9.35835 11.3773C9.36755 11.3806 9.43515 11.3463 9.42695 11.3224C9.42365 11.3123 9.36375 11.3674 9.35835 11.3773ZM9.29075 11.4781C9.29525 11.4764 9.29953 11.4736 9.30345 11.4698C9.32525 11.4602 9.36885 11.4464 9.36785 11.437C9.36595 11.4199 9.32495 11.4537 9.30345 11.4698C9.29525 11.4737 9.28995 11.4761 9.29075 11.4781ZM9.22745 11.8492C9.24445 11.8511 9.30215 11.712 9.30605 11.6944C9.30745 11.6848 9.27105 11.7088 9.26205 11.6971C9.23935 11.6672 9.22975 11.7606 9.24075 11.7483C9.28175 11.7019 9.24115 11.8384 9.22745 11.8492ZM9.22235 12.0468C9.24035 12.0328 9.25845 12.0569 9.27855 12.0396C9.29795 12.0228 9.31505 12.0189 9.32415 12.0569C9.33715 12.1097 9.44545 12.0047 9.41045 11.9788C9.40825 11.9772 9.38985 11.9844 9.39475 11.9676C9.40695 11.9236 9.38345 11.9465 9.37015 11.9328C9.31605 11.9549 9.26925 12.0107 9.22235 12.0468ZM9.20755 12.3307C9.20915 12.3325 9.21025 12.334 9.20765 12.3307C9.22725 12.3553 9.26825 12.2595 9.27125 12.2401C9.28055 12.1821 9.31545 12.156 9.34515 12.1266C9.43405 12.0396 9.35035 12.2158 9.34875 12.2123C9.35325 12.2239 9.37095 12.198 9.37575 12.1962C9.39265 12.189 9.37285 12.2407 9.37565 12.2464C9.38705 12.2672 9.44155 12.1469 9.44425 12.1318C9.46335 12.1741 9.49245 12.1643 9.48105 12.1073C9.46915 12.0477 9.38375 12.0807 9.35655 12.0874C9.30705 12.0995 9.28335 12.1213 9.25935 12.186C9.25125 12.2079 9.18705 12.3027 9.20755 12.3307ZM5.54677 10.5494H6.09897C6.19417 10.5494 6.27247 10.5407 6.33367 10.5231C6.39487 10.5056 6.44617 10.4777 6.48737 10.439C6.55318 10.3786 6.60639 10.2916 6.64097 10.188C6.67757 10.0816 6.69577 9.96203 6.69577 9.82936C6.69577 9.60493 6.64917 9.43165 6.55587 9.30996C6.46227 9.18767 6.32887 9.12675 6.15527 9.12675H5.54687V10.5494H5.54677ZM6.69477 16.8091V15.8315H5.73467C5.70842 15.8315 5.68325 15.8472 5.66467 15.8751C5.64609 15.903 5.63562 15.9408 5.63557 15.9803V16.6597C5.63557 16.7419 5.68007 16.8091 5.73467 16.8091H6.69477ZM5.73467 17.1071H1.21759C1.26609 17.6107 1.55539 18.0016 1.90339 18.0016H6.00087C6.34877 18.0016 6.63807 17.6105 6.68676 17.1071H5.73467ZM6.69477 15.5331V14.5558H5.73467C5.70842 14.5558 5.68325 14.5715 5.66467 14.5994C5.64609 14.6273 5.63562 14.6651 5.63557 14.7046V15.3842C5.63557 15.4663 5.68007 15.5331 5.73467 15.5331H6.69477ZM6.69477 14.2574V13.2801H3.39848C3.40958 13.3271 3.41668 13.3765 3.41668 13.429V14.1083C3.41668 14.2234 3.38698 14.3272 3.33958 14.4065C3.38698 14.4859 3.41668 14.5898 3.41668 14.7044V15.384C3.41668 15.4991 3.38698 15.6029 3.33958 15.682C3.38698 15.7613 3.41668 15.8657 3.41668 15.9801V16.6596C3.41668 16.7124 3.40958 16.7619 3.39848 16.8089H5.45567C5.44376 16.7612 5.4375 16.7106 5.43717 16.6596V15.9801C5.43717 15.8655 5.46737 15.7613 5.51477 15.682C5.46521 15.6006 5.43755 15.4944 5.43717 15.384V14.7044C5.4373 14.5858 5.4687 14.4722 5.52447 14.3883C5.58023 14.3045 5.65583 14.2574 5.73467 14.2572L6.69477 14.2574ZM6.68676 12.982C6.63807 12.4779 6.34877 12.087 6.00087 12.087H1.90339C1.55539 12.087 1.26599 12.4781 1.21759 12.982H6.68676ZM4.07718 10.5494H4.29398V10.0124H4.50248L4.88367 10.5493H5.19947L4.76288 10.0124H4.88637C4.96157 10.0124 5.01597 9.99016 5.04937 9.94623C5.08327 9.90231 5.10017 9.83237 5.10017 9.7364V9.40247C5.10017 9.3056 5.08327 9.2352 5.04937 9.19173C5.01597 9.14826 4.96157 9.12645 4.88637 9.12645H4.07718V10.5494ZM2.48379 10.5494H2.70299L2.81309 10.2385H3.41258L3.52608 10.5494H3.77318L3.23088 9.12675H3.01888L2.48379 10.5494ZM1.20939 10.2129C1.20939 10.3429 1.22559 10.4316 1.25769 10.4787C1.28979 10.5258 1.35199 10.5493 1.44389 10.5493H2.00859C2.09969 10.5493 2.16169 10.5258 2.19409 10.4787C2.22669 10.4316 2.24289 10.3429 2.24289 10.2129V10.0448L2.02269 9.97587V10.2817H1.42949V9.38096H2.02269V9.65036L2.24289 9.59771V9.46309C2.24289 9.33418 2.22659 9.24573 2.19409 9.19805C2.16159 9.15052 2.09959 9.12675 2.00859 9.12675H1.44389C1.35199 9.12675 1.28979 9.15052 1.25769 9.19805C1.22559 9.24558 1.20939 9.33403 1.20939 9.46309V10.2129ZM1.20939 14.2574H3.11938C3.14565 14.2573 3.17083 14.2416 3.1894 14.2136C3.20797 14.1857 3.21843 14.1478 3.21848 14.1083V13.429C3.21843 13.3895 3.20797 13.3517 3.18939 13.3238C3.17082 13.2959 3.14564 13.2802 3.11938 13.2801H1.20939V14.2574ZM1.20939 15.5331H3.11938C3.14564 15.5331 3.17082 15.5174 3.18939 15.4894C3.20797 15.4615 3.21843 15.4237 3.21848 15.3842V14.7046C3.21843 14.6651 3.20797 14.6273 3.18939 14.5994C3.17081 14.5715 3.14563 14.5558 3.11938 14.5558H1.20939V15.5331ZM1.20939 16.8091H3.11938C3.14568 16.809 3.17087 16.7932 3.18944 16.7652C3.20801 16.7372 3.21846 16.6993 3.21848 16.6597V15.9803C3.21843 15.9408 3.20797 15.903 3.18939 15.8751C3.17081 15.8472 3.14563 15.8315 3.11938 15.8315H1.20939V16.8091ZM1.91809 20.6749C1.91809 20.5888 1.90829 20.5299 1.88819 20.4987C1.86839 20.4676 1.83039 20.4518 1.77449 20.4518H1.35039C1.29499 20.4518 1.25719 20.4674 1.23729 20.4987C1.21719 20.5299 1.20729 20.5888 1.20729 20.6749V21.1722C1.20729 21.2586 1.21729 21.3172 1.23729 21.3486C1.25719 21.3799 1.29499 21.3952 1.35039 21.3952H1.77449C1.83039 21.3952 1.86839 21.3799 1.88819 21.3486C1.90829 21.3172 1.91809 21.2586 1.91809 21.1722V20.6749ZM2.85739 20.6749C2.85739 20.5888 2.84759 20.5299 2.82749 20.4987C2.80759 20.4676 2.76959 20.4518 2.71379 20.4518H2.28969C2.23429 20.4518 2.19669 20.4674 2.17649 20.4987C2.15659 20.5299 2.14659 20.5888 2.14659 20.6749V21.1722C2.14659 21.2586 2.15659 21.3172 2.17649 21.3486C2.19669 21.3799 2.23429 21.3952 2.28969 21.3952H2.71379C2.76969 21.3952 2.80759 21.3799 2.82749 21.3486C2.84759 21.3172 2.85739 21.2586 2.85739 21.1722V20.6749ZM3.79668 20.6749C3.79668 20.5888 3.78668 20.5299 3.76668 20.4987C3.74698 20.4676 3.70888 20.4518 3.65308 20.4518H3.22908C3.17368 20.4518 3.13558 20.4674 3.11588 20.4987C3.09598 20.5299 3.08598 20.5888 3.08598 20.6749V21.1722C3.08598 21.2586 3.09598 21.3172 3.11588 21.3486C3.13558 21.3799 3.17368 21.3952 3.22908 21.3952H3.65308C3.70888 21.3952 3.74688 21.3799 3.76668 21.3486C3.78678 21.3172 3.79668 21.2586 3.79668 21.1722V20.6749ZM5.20667 20.6749C5.20667 20.5888 5.19637 20.5299 5.17667 20.4987C5.15657 20.4676 5.11877 20.4518 5.06307 20.4518H4.63868C4.58328 20.4518 4.54568 20.4674 4.52578 20.4987C4.50568 20.5299 4.49558 20.5888 4.49558 20.6749V21.1722C4.49558 21.2586 4.50568 21.3172 4.52578 21.3486C4.54568 21.3799 4.58328 21.3952 4.63868 21.3952H5.06307C5.11877 21.3952 5.15657 21.3799 5.17667 21.3486C5.19637 21.3172 5.20667 21.2586 5.20667 21.1722V20.6749ZM6.14587 20.6749C6.14587 20.5888 6.13587 20.5299 6.11597 20.4987C6.09587 20.4676 6.05817 20.4518 6.00247 20.4518H5.57787C5.52267 20.4518 5.48487 20.4674 5.46497 20.4987C5.44507 20.5299 5.43487 20.5888 5.43487 20.6749V21.1722C5.43487 21.2586 5.44507 21.3172 5.46497 21.3486C5.48487 21.3799 5.52267 21.3952 5.57787 21.3952H6.00247C6.05817 21.3952 6.09597 21.3799 6.11597 21.3486C6.13587 21.3172 6.14587 21.2586 6.14587 21.1722V20.6749ZM7.08526 20.6749C7.08526 20.5888 7.07526 20.5299 7.05506 20.4987C7.03526 20.4676 6.99716 20.4518 6.94176 20.4518H6.51727C6.46197 20.4518 6.42427 20.4674 6.40417 20.4987C6.38407 20.53 6.37427 20.5888 6.37427 20.6749V21.1722C6.37427 21.2586 6.38407 21.3172 6.40417 21.3486C6.42427 21.3799 6.46197 21.3952 6.51727 21.3952H6.94176C6.99716 21.3952 7.03526 21.3799 7.05506 21.3486C7.07526 21.3172 7.08526 21.2586 7.08526 21.1722V20.6749ZM8.49486 20.6749C8.49486 20.5888 8.48506 20.5299 8.46496 20.4987C8.44506 20.4676 8.40696 20.4518 8.35126 20.4518H7.92716C7.87176 20.4518 7.83416 20.4674 7.81406 20.4987C7.79416 20.5299 7.78426 20.5888 7.78426 20.6749V21.1722C7.78426 21.2586 7.79426 21.3172 7.81406 21.3486C7.83416 21.3799 7.87176 21.3952 7.92716 21.3952H8.35126C8.40706 21.3952 8.44506 21.3799 8.46496 21.3486C8.48506 21.3172 8.49486 21.2586 8.49486 21.1722V20.6749ZM9.43425 20.6749C9.43425 20.5888 9.42445 20.5299 9.40435 20.4987C9.38445 20.4676 9.34655 20.4518 9.29065 20.4518H8.86655C8.81115 20.4518 8.77325 20.4674 8.75346 20.4987C8.73335 20.5299 8.72345 20.5888 8.72345 20.6749V21.1722C8.72345 21.2586 8.73345 21.3172 8.75346 21.3486C8.77325 21.3799 8.81115 21.3952 8.86655 21.3952H9.29065C9.34655 21.3952 9.38445 21.3799 9.40435 21.3486C9.42445 21.3172 9.43425 21.2586 9.43425 21.1722V20.6749ZM10.3735 20.6749C10.3735 20.5888 10.3635 20.5299 10.3436 20.4987C10.3239 20.4676 10.2856 20.4518 10.2298 20.4518H9.80545C9.75005 20.4518 9.71265 20.4674 9.69275 20.4987C9.67265 20.5299 9.66275 20.5888 9.66275 20.6749V21.1722C9.66275 21.2586 9.67275 21.3172 9.69275 21.3486C9.71265 21.3799 9.75015 21.3952 9.80545 21.3952H10.2298C10.2856 21.3952 10.3238 21.3799 10.3436 21.3486C10.3635 21.3172 10.3735 21.2586 10.3735 21.1722V20.6749ZM11.7833 20.6749C11.7833 20.5888 11.7733 20.5299 11.7534 20.4987C11.7335 20.4676 11.6956 20.4518 11.6395 20.4518H11.2155C11.16 20.4518 11.1225 20.4674 11.1027 20.4987C11.0825 20.5299 11.0723 20.5888 11.0723 20.6749V21.1722C11.0723 21.2586 11.0825 21.3172 11.1027 21.3486C11.1225 21.3799 11.16 21.3952 11.2155 21.3952H11.6395C11.6956 21.3952 11.7334 21.3799 11.7534 21.3486C11.7733 21.3172 11.7833 21.2586 11.7833 21.1722V20.6749ZM12.7228 20.6749C12.7228 20.5888 12.7126 20.5299 12.6927 20.4987C12.6727 20.4676 12.6349 20.4518 12.579 20.4518H12.1548C12.0992 20.4518 12.0618 20.4674 12.0419 20.4987C12.0218 20.5299 12.0116 20.5888 12.0116 20.6749V21.1722C12.0116 21.2586 12.0218 21.3172 12.0419 21.3486C12.0618 21.3799 12.0992 21.3952 12.1548 21.3952H12.579C12.6349 21.3952 12.6727 21.3799 12.6927 21.3486C12.7126 21.3172 12.7228 21.2586 12.7228 21.1722V20.6749ZM13.6619 20.6749C13.6619 20.5888 13.6519 20.5299 13.632 20.4987C13.6121 20.4676 13.574 20.4518 13.5184 20.4518H13.094C13.0386 20.4518 13.0011 20.4674 12.9811 20.4987C12.961 20.5299 12.951 20.5888 12.951 20.6749V21.1722C12.951 21.2586 12.961 21.3172 12.9811 21.3486C13.0011 21.3799 13.0386 21.3952 13.094 21.3952H13.5184C13.574 21.3952 13.6121 21.3799 13.632 21.3486C13.6519 21.3172 13.6619 21.2586 13.6619 21.1722V20.6749ZM13.6633 14.9627C13.6622 14.9013 13.6583 14.8412 13.6558 14.7805V14.7651C13.6542 14.7344 13.6536 14.7201 13.6528 14.7145V14.7118C13.6508 14.7007 13.6533 14.812 13.655 14.8248C13.6528 14.9941 13.6403 15.1626 13.6304 15.3308C13.6189 15.5335 13.6145 15.7381 13.5901 15.9389C13.5673 16.1268 13.5042 16.2689 13.4576 16.4415C13.439 16.5119 13.4302 16.5881 13.4133 16.6591C13.3928 16.7458 13.3483 16.8026 13.3255 16.8846C13.2824 17.0373 13.2143 17.1823 13.1397 17.3032C13.1076 17.3557 13.0703 17.424 13.0179 17.4228C12.9925 17.4216 12.9173 17.5206 12.9312 17.4228C12.9415 17.3511 12.9716 17.2965 12.9813 17.2231C12.9916 17.1414 12.9877 17.0592 12.9983 16.9807C13.0224 16.8083 13.0606 16.6655 13.0528 16.4857C13.0452 16.3084 13.0692 16.1773 13.1114 16.0099C13.1311 15.9319 13.1682 15.8914 13.1555 15.7986C13.144 15.7112 13.1644 15.6435 13.149 15.5584C13.1345 15.48 13.139 15.4018 13.1131 15.3279C13.0901 15.2631 13.0578 15.2008 13.0449 15.1286C13.0349 15.0706 13.0568 14.9967 13.0539 14.9331C13.0501 14.8433 13.0787 14.7903 13.0329 14.71C12.9964 14.6459 12.9682 14.7351 12.9286 14.7059C12.8914 14.6787 12.9081 14.5745 12.8566 14.5569C12.8097 14.5409 12.7566 14.5975 12.7208 14.633C12.6977 14.6559 12.673 14.676 12.6493 14.6971C12.6328 14.7111 12.5749 14.6719 12.5518 14.6748C12.5095 14.6799 12.4437 14.7676 12.4069 14.741C12.3571 14.705 12.3215 14.6485 12.2781 14.5994C12.2408 14.5585 12.2029 14.5468 12.1807 14.4835C12.1695 14.4523 12.1662 14.4122 12.1528 14.3834C12.1366 14.35 12.104 14.3201 12.0836 14.2917C12.0687 14.2703 12.0472 14.2554 12.0529 14.2163C12.0263 14.209 12.0148 14.2278 11.9971 14.1816C11.9828 14.1438 11.9983 14.1023 11.9859 14.0682C11.9714 14.0298 11.9456 14.0157 11.9675 13.9681C11.9859 13.9283 11.9836 13.8355 11.9831 13.7887C11.9828 13.7369 11.9535 13.7073 11.9508 13.6619C11.9473 13.6073 11.9489 13.6034 11.9221 13.5626C11.8879 13.5101 11.9319 13.377 11.9503 13.3224C11.9627 13.2851 11.9584 13.2422 11.9619 13.2021C11.9646 13.17 11.9871 13.1653 11.9914 13.132C12.0041 13.0399 12.0665 13.0437 12.0873 12.9492C12.0982 12.8987 12.0768 12.8911 12.0683 12.8456C12.0611 12.8072 12.0705 12.7379 12.0863 12.7075C12.1025 12.6753 12.1262 12.6738 12.1292 12.6265C12.1334 12.5607 12.1125 12.5259 12.1613 12.5674C12.2086 12.6071 12.2622 12.5715 12.2964 12.5298C12.321 12.4993 12.318 12.4925 12.3488 12.4775C12.3635 12.47 12.4428 12.4618 12.4465 12.4567C12.4695 12.4238 12.4914 12.4534 12.5161 12.4403C12.5502 12.4217 12.5319 12.4224 12.5664 12.4384C12.5985 12.4534 12.5641 12.4306 12.5873 12.4826L12.6191 12.525C12.6341 12.5545 12.6137 12.5871 12.6259 12.6114C12.6614 12.6809 12.7287 12.6601 12.7738 12.69C12.7996 12.7069 12.8068 12.7508 12.8321 12.7664C12.862 12.7848 12.8879 12.8016 12.9173 12.8227C12.9547 12.8495 12.8592 12.6035 12.9279 12.6553C12.9586 12.678 12.9813 12.7051 13.0151 12.7239C13.0331 12.7339 13.0515 12.7448 13.0695 12.7558C13.0953 12.7717 13.0732 12.7302 13.0885 12.7201C13.0901 12.7197 13.1396 12.7639 13.1282 12.7191C13.1127 12.6577 13.0835 12.5954 13.0599 12.5401C13.0394 12.4897 13.0132 12.4447 12.9928 12.3939C12.9781 12.3582 12.9782 12.4284 12.9799 12.4268C12.9699 12.4364 12.9423 12.3796 12.9362 12.3946C12.9332 12.4012 12.9484 12.4181 12.9389 12.4268C12.9188 12.4447 12.8364 12.3156 12.8261 12.2925C12.8139 12.2639 12.7874 12.2479 12.7782 12.2189C12.7649 12.1791 12.8051 12.2069 12.7964 12.1788C12.7842 12.1401 12.7979 12.1527 12.7947 12.1082C12.7917 12.0623 12.8656 12.1569 12.8744 12.1392C12.8906 12.1058 12.7825 11.9951 12.7712 11.9822C12.7546 11.9635 12.7038 11.8791 12.7084 11.9474C12.7082 11.9378 12.6481 11.9066 12.6619 11.8823C12.6681 11.8717 12.6878 11.9241 12.6995 11.9033C12.7052 11.8933 12.6557 11.8134 12.6477 11.8197C12.6405 11.826 12.6534 11.8555 12.654 11.8611C12.658 11.8937 12.6175 11.8481 12.6135 11.8544C12.6055 11.8648 12.6665 11.9763 12.673 11.9897C12.6902 12.0259 12.7079 12.0646 12.7293 12.0965C12.7378 12.1091 12.7738 12.1336 12.7778 12.1478C12.7733 12.133 12.7584 12.1869 12.7633 12.1801C12.7557 12.1905 12.7334 12.1458 12.7272 12.1718C12.7225 12.19 12.7203 12.2197 12.7293 12.232C12.7445 12.2535 12.786 12.2901 12.796 12.3153C12.8087 12.3474 12.812 12.382 12.8268 12.4161C12.7997 12.4096 12.7722 12.3725 12.7465 12.3328C12.746 12.3305 12.745 12.3284 12.7441 12.3265C12.744 12.3273 12.7441 12.3282 12.7443 12.329C12.7239 12.297 12.7047 12.2642 12.6873 12.2452C12.6509 12.2043 12.6297 12.1335 12.5889 12.1041C12.5398 12.0686 12.4917 12.0375 12.447 11.9906C12.4385 11.9811 12.3799 11.9303 12.3742 11.9382C12.3537 11.9703 12.4385 12.0434 12.4514 12.0557C12.4717 12.0745 12.4924 12.0932 12.5106 12.1168C12.5175 12.1258 12.5472 12.1291 12.5488 12.1329C12.5736 12.1894 12.6274 12.1807 12.6524 12.2388C12.6519 12.2382 12.6516 12.2382 12.6514 12.2388C12.6108 12.232 12.6013 12.204 12.6424 12.2701C12.6511 12.2846 12.6705 12.345 12.6536 12.3609C12.6418 12.372 12.6717 12.4175 12.6721 12.43C12.6617 12.4295 12.5666 12.3681 12.5941 12.3541C12.613 12.3445 12.6269 12.3755 12.6424 12.3386C12.6566 12.3041 12.6077 12.2531 12.5943 12.2391C12.544 12.1878 12.4855 12.1563 12.4332 12.1106C12.416 12.0953 12.3468 11.9888 12.3238 12.0134C12.3223 12.0149 12.3039 12.0762 12.3032 12.0802C12.2999 12.1008 12.2511 12.0733 12.2436 12.0705C12.199 12.0538 12.2555 12.1694 12.251 12.1815C12.2348 12.2225 12.1808 12.2854 12.2362 12.3376C12.2626 12.3627 12.2235 12.4181 12.2254 12.44C12.2284 12.4773 12.2106 12.4745 12.1934 12.477C12.1698 12.4803 12.1353 12.5217 12.1163 12.5188C12.1009 12.5158 12.0888 12.4799 12.0766 12.4686C12.0608 12.454 12.0283 12.468 12.0093 12.4698C12.008 12.47 11.9477 12.3617 11.9472 12.3582C11.9373 12.2797 11.9324 12.2135 11.8947 12.1499C11.829 12.0401 12.0857 12.1264 12.0885 12.084C12.0941 12.0043 12.0295 11.9455 11.9956 11.9074C11.984 11.8948 11.8823 11.8457 11.8851 11.8284C11.8903 11.7892 11.9442 11.839 11.9556 11.8135C11.964 11.7944 11.9288 11.783 11.9341 11.7693C11.9405 11.7532 11.9904 11.806 11.9919 11.7322C11.9926 11.6771 11.972 11.7349 11.9981 11.6771C12.0066 11.6577 11.9844 11.607 11.9926 11.6002C11.9876 11.5548 12.0278 11.5766 12.0321 11.5569C12.0383 11.527 11.9045 11.4388 11.9321 11.4038C11.9469 11.3847 12.058 11.5843 12.0741 11.5398C12.093 11.4885 12.1198 11.5661 12.136 11.5315C12.1609 11.4783 12.1568 11.5271 12.1863 11.5095C12.1636 11.4572 12.1357 11.4393 12.1055 11.3934C12.0998 11.3847 12.0514 11.3065 12.053 11.3014C12.0595 11.2786 12.0692 11.3059 12.0749 11.2789C12.0824 11.2442 12.0333 11.2092 12.0139 11.2171C12.0239 11.2328 12.0416 11.2481 12.0553 11.2552C12.047 11.2722 11.9941 11.2833 11.9756 11.2651C11.9559 11.2463 11.7793 11.0697 11.772 11.0899C11.7631 11.1141 11.9233 11.2683 11.9439 11.2755C11.9713 11.2851 12.0849 11.4345 12.0605 11.4715C12.0489 11.4894 11.879 11.3018 11.8757 11.3405C11.869 11.4214 11.8141 11.3445 11.7833 11.319C11.7396 11.2827 11.6945 11.2595 11.7006 11.1749C11.7042 11.1239 11.6258 11.0521 11.6028 11.0255C11.5578 10.9745 11.5825 10.9497 11.6328 10.9685C11.6913 10.9903 11.7525 11.0023 11.8091 11.0347C11.8187 11.0401 11.8131 11.0584 11.8226 11.0637C11.8588 11.0843 11.8939 11.1106 11.9318 11.1246C11.9222 11.1121 11.8787 11.086 11.8775 11.069C11.8928 11.1021 11.9831 11.1356 12.009 11.1536C12.0723 11.198 12.1343 11.2459 12.1948 11.2974C12.1959 11.2983 12.197 11.2993 12.198 11.3002L12.1948 11.2974C11.7425 10.9132 11.2291 10.7214 10.7098 10.7426C10.3341 10.757 9.96392 10.882 9.62015 11.1105C9.63995 11.0977 9.66065 11.0861 9.68055 11.0747C9.71505 11.1106 9.66225 11.1057 9.66685 11.1305C9.66955 11.1464 9.72505 11.1377 9.72695 11.1177C9.72805 11.1024 9.71155 11.1069 9.72145 11.0921C9.73895 11.0643 9.75585 11.0663 9.77755 11.0518C9.82735 11.018 9.86345 10.9583 9.92325 10.9561C9.91985 10.9652 9.89435 10.976 9.89755 10.9876C9.90305 11.0068 9.91975 10.9873 9.92825 10.9885C9.91345 11.0305 9.81465 11.1088 9.78415 11.0977C9.76885 11.0915 9.74095 11.132 9.76565 11.1348C9.77835 11.1363 9.83455 11.1015 9.83845 11.1049C9.84665 11.1121 9.82735 11.1195 9.83535 11.1287C9.86015 11.1567 9.94135 11.0127 9.98215 11.0211C9.97335 11.0491 9.93395 11.0966 9.91615 11.1112C9.92145 11.1097 9.94635 11.087 9.94945 11.0996C9.95525 11.1228 9.90625 11.1219 9.91525 11.147C9.91895 11.1586 9.96845 11.1175 9.97355 11.1144C10.0079 11.0938 10.0193 11.0881 10.0068 11.0508C10.0018 11.0353 10.1093 10.9548 10.1146 10.9778C10.1155 10.9802 10.0793 11.0138 10.0769 11.0243C10.0886 11.0136 10.167 10.9407 10.1753 10.9769C10.1778 10.988 10.1626 10.9981 10.1588 11.0019C10.166 11.0025 10.2201 10.9777 10.2254 10.9916C10.2231 11.0154 10.2301 11.0267 10.2475 11.0258C10.2516 11.0302 10.2817 11.0461 10.2801 11.062C10.2781 11.0799 10.2407 11.0893 10.2561 11.1096C10.2742 11.1332 10.3082 11.1345 10.3283 11.1562C10.319 11.1741 10.2663 11.2248 10.2509 11.2132C10.2377 11.2031 10.2205 11.1383 10.2038 11.1903C10.1918 11.2283 10.2342 11.2298 10.2114 11.2792C10.1876 11.3317 10.1629 11.2556 10.1479 11.2801C10.1415 11.2905 10.1681 11.3104 10.1634 11.3232C10.1552 11.346 10.0758 11.3032 10.073 11.2866C10.0602 11.2113 9.98985 11.2711 9.98425 11.2404C9.97895 11.2126 10.1546 11.1953 10.1529 11.1237C10.1479 10.9819 10.0308 11.1099 10.0005 11.1461C9.98965 11.1591 9.92085 11.1994 9.91785 11.1836C9.91335 11.1598 9.89565 11.1964 9.91075 11.2343C9.91585 11.2478 9.91425 11.3069 9.89545 11.2758C9.87795 11.2463 9.86355 11.272 9.84505 11.2782C9.83385 11.2783 9.82269 11.2765 9.81175 11.2729C9.81415 11.2604 9.85085 11.2541 9.84145 11.2343C9.82975 11.2108 9.63855 11.3516 9.61595 11.3699C9.58704 11.394 9.55924 11.421 9.53275 11.4507C9.54575 11.4363 9.51735 11.5292 9.51395 11.5368C9.53065 11.5467 9.53585 11.5223 9.55655 11.5414C9.58195 11.5653 9.58195 11.618 9.61915 11.6183C9.67025 11.6195 9.63735 11.6553 9.61915 11.6949C9.61305 11.7079 9.59855 11.8295 9.62125 11.8087C9.66185 11.7717 9.69965 11.7282 9.70625 11.6485C9.70775 11.6324 9.80645 11.5847 9.82145 11.5562C9.82625 11.5474 9.84765 11.504 9.83765 11.4907C9.80985 11.4542 9.85495 11.4429 9.86895 11.4259C9.91895 11.3648 9.90785 11.3119 9.97865 11.3223C9.99165 11.3242 10.0138 11.3054 10.0234 11.3287C10.0252 11.3328 10.0625 11.3869 10.0625 11.3739C10.0623 11.4203 10.0187 11.4169 10.0528 11.4617C10.0954 11.5174 10.1317 11.3848 10.1659 11.3892C10.1834 11.3916 10.1951 11.531 10.1988 11.5574C10.2055 11.6115 10.2762 11.6057 10.2787 11.6294C10.2798 11.643 10.2636 11.6348 10.2613 11.644C10.2825 11.6493 10.3505 11.7203 10.3 11.7513C10.2514 11.7812 10.1784 11.8435 10.1269 11.8445C10.0591 11.8459 9.99575 11.8271 9.93595 11.8797C9.88395 11.9262 9.83395 11.9599 9.78735 12.0204C9.81045 12.018 9.83205 11.9805 9.85085 11.9629C9.87945 11.9372 9.91075 11.9214 9.94255 11.9092C9.95465 11.9047 10.0096 11.8779 10.0127 11.9193C10.0161 11.9676 9.95205 11.9462 9.94315 11.9614C9.95405 11.9709 9.97145 11.9671 9.97825 11.973C9.97955 11.9739 9.96715 12.0315 9.97225 12.045C9.98975 12.0915 10.032 12.0769 10.0602 12.0826C10.0677 12.0844 10.0947 12.0252 10.1041 12.0163C10.1185 12.0025 10.1213 12.0565 10.1095 12.0677C10.0504 12.1258 9.97335 12.1302 9.91905 12.1983C9.90015 12.2216 9.88405 12.1812 9.90035 12.1595C9.92835 12.1228 9.95645 12.1216 9.98905 12.1035C9.99505 12.1047 9.94265 12.095 9.96385 12.0837C9.89655 12.1199 9.81265 12.1485 9.75275 12.2088C9.74105 12.2216 9.73075 12.2373 9.72205 12.2547C9.71435 12.2714 9.72205 12.3105 9.71695 12.3176C9.69125 12.3523 9.64065 12.334 9.61075 12.3606C9.61415 12.3669 9.63105 12.3639 9.63505 12.3642C9.63245 12.3808 9.58835 12.388 9.57735 12.4071C9.57465 12.4118 9.51265 12.4996 9.51645 12.4718C9.49765 12.6079 9.45995 12.4993 9.49965 12.4551C9.48215 12.4718 9.47935 12.485 9.47055 12.5119C9.46075 12.5411 9.45445 12.5104 9.44725 12.522C9.45426 12.5302 9.46028 12.5401 9.46505 12.5513C9.46085 12.5635 9.45735 12.5673 9.45465 12.562C9.45475 12.5568 9.45385 12.5553 9.45205 12.5587C9.46905 12.5832 9.44085 12.584 9.44515 12.6037C9.44995 12.624 9.46665 12.6142 9.45575 12.6432C9.45235 12.6523 9.42485 12.6664 9.42815 12.673C9.42495 12.6664 9.46555 12.6851 9.44305 12.6969C9.43585 12.7004 9.40735 12.7315 9.40765 12.7315C9.41035 12.7333 9.41725 12.733 9.41525 12.7409C9.41185 12.7534 9.34815 12.7934 9.33795 12.8031C9.30455 12.8364 9.27015 12.8717 9.23865 12.9084C9.18935 12.9665 9.17975 13.0283 9.17875 13.1178C9.17845 13.1705 9.19765 13.3711 9.14215 13.3899C9.08675 13.4095 9.11505 13.1142 9.10055 13.0743C9.09205 13.0507 9.08335 13.0605 9.07145 13.0697C9.04055 13.0936 9.05115 13.0602 9.02885 13.0408C9.01535 13.0289 8.90955 13.0348 8.90405 13.0467C8.90515 13.0444 8.91015 13.1082 8.91275 13.1139C8.91195 13.1115 8.86745 13.1277 8.85985 13.118C8.85855 13.1163 8.85075 13.0685 8.84095 13.0844C8.82435 13.1095 8.81635 13.0792 8.79945 13.0814C8.76595 13.0859 8.75595 13.1165 8.73205 13.1428C8.69175 13.187 8.65915 13.2051 8.64225 13.2843C8.61945 13.394 8.56775 13.4954 8.55875 13.6153C8.55025 13.73 8.55536 13.9241 8.65325 13.8728C8.68635 13.8558 8.68795 13.8758 8.71155 13.8416C8.74145 13.7988 8.74065 13.713 8.77205 13.6805C8.78715 13.6647 8.86905 13.6283 8.87955 13.6655C8.88865 13.6962 8.83935 13.7703 8.83485 13.8064C8.83252 13.8255 8.82835 13.844 8.82245 13.8613C8.81645 13.8809 8.81035 13.8555 8.80635 13.864C8.78345 13.9099 8.79655 13.9856 8.76905 14.0364C8.74235 14.085 8.80395 14.0671 8.81975 14.0695C8.84575 14.0734 8.86775 14.0537 8.89445 14.0603C8.92885 14.0695 8.90825 14.0819 8.92935 14.1038C8.97515 14.1516 8.90955 14.3207 8.90895 14.4078C8.90865 14.5257 8.98385 14.6184 9.04885 14.5456C9.07315 14.5178 9.11735 14.5325 9.13365 14.5688C9.16615 14.6401 9.17525 14.5742 9.20435 14.5388C9.22495 14.5142 9.22025 14.5435 9.22505 14.5107C9.22955 14.4803 9.22895 14.4478 9.24655 14.426C9.26935 14.3979 9.31645 14.3898 9.34635 14.3705C9.36035 14.3615 9.40265 14.2785 9.41915 14.3173C9.43535 14.3559 9.36775 14.3537 9.39345 14.4173C9.41145 14.4612 9.35635 14.5009 9.38875 14.553C9.42825 14.6161 9.40415 14.4183 9.40225 14.4289C9.41155 14.3846 9.48665 14.364 9.51065 14.3738C9.56445 14.3946 9.52445 14.4522 9.59305 14.4383C9.60365 14.4364 9.63075 14.4236 9.64215 14.4408C9.65645 14.463 9.67655 14.4793 9.69775 14.468C9.74465 14.443 9.76745 14.4189 9.82035 14.4212C9.78425 14.4386 9.80425 14.4896 9.83125 14.4686C9.83015 14.4698 9.83065 14.4693 9.83125 14.4686C9.82595 14.4806 9.88445 14.4999 9.88475 14.5346C9.88535 14.5796 9.94865 14.599 9.97495 14.6327C9.98735 14.6483 9.98875 14.6936 10.0024 14.6998C10.0249 14.7097 10.0405 14.736 10.0564 14.7595C10.0798 14.7926 10.1632 14.7572 10.1953 14.767C10.2461 14.7821 10.2752 14.8182 10.3145 14.8642C10.3551 14.9131 10.3584 14.9686 10.3784 15.0379C10.3913 15.0799 10.4324 15.0606 10.4149 15.1271C10.4096 15.1458 10.3865 15.1643 10.378 15.1805C10.3502 15.2327 10.3876 15.1963 10.3775 15.2365C10.3829 15.2384 10.4929 15.1724 10.4941 15.2324C10.496 15.3391 10.4202 15.2975 10.397 15.3448C10.4213 15.3682 10.4545 15.3046 10.4467 15.38C10.458 15.3348 10.4905 15.3308 10.5013 15.292C10.5136 15.2481 10.5213 15.2312 10.5554 15.2471C10.6234 15.2783 10.7154 15.2906 10.6884 15.424C10.7113 15.3968 10.7313 15.3631 10.7637 15.3694C10.7963 15.3758 10.8473 15.4126 10.8802 15.3955C10.9727 15.3472 11.028 15.5794 11.1256 15.5478C11.2045 15.5224 11.1839 15.8049 11.1574 15.8619C11.1286 15.9234 11.0882 15.9711 11.06 16.0337C11.043 16.0711 11.0331 16.1534 11.0033 16.122C10.9884 16.1066 10.9873 16.3229 10.9897 16.3396C10.9982 16.3992 10.9768 16.4791 10.9574 16.5268C10.9345 16.5824 10.9539 16.6525 10.9128 16.708C10.8922 16.7361 10.9057 16.7917 10.8805 16.8052C10.8658 16.813 10.8535 16.856 10.8464 16.8569C10.7971 16.8658 10.7578 16.8636 10.7153 16.8977C10.6695 16.9352 10.6225 16.9649 10.579 17.034C10.5397 17.097 10.5783 17.1654 10.5608 17.2348C10.5576 17.2473 10.4766 17.3887 10.4905 17.4011C10.4821 17.3927 10.4945 17.3783 10.4908 17.3685C10.4784 17.3341 10.4542 17.4124 10.452 17.4187C10.445 17.4299 10.4377 17.4415 10.4308 17.4529C10.4313 17.4676 10.4312 17.4828 10.4302 17.4979C10.4325 17.4908 10.3513 17.5571 10.3831 17.5705C10.3903 17.5738 10.3911 17.5222 10.407 17.5391C10.4219 17.555 10.3692 17.6411 10.3588 17.649C10.3306 17.6715 10.1929 17.6199 10.1913 17.6232C10.1771 17.6585 10.2379 17.6695 10.2478 17.6903C10.2475 17.7068 10.2481 17.7236 10.2511 17.74C10.2582 17.7506 10.2916 17.7552 10.282 17.7828C10.2362 17.9142 10.1794 17.8932 10.0909 17.9087C10.0959 17.9434 10.1034 17.9765 10.114 18.0082C10.131 18.0601 10.0208 18.017 10.0179 18.0188C10.0094 18.0225 10.0653 18.1387 10.0539 18.1558C10.0316 18.1889 10.0775 18.2163 10.0383 18.2477C9.99645 18.2815 10.0124 18.3229 10.0508 18.3477C10.0721 18.3611 10.1163 18.3712 10.0821 18.4162C10.0592 18.4463 10.0633 18.4816 10.0445 18.5179C10.0376 18.5314 10.0987 18.6171 10.1068 18.6274C10.1245 18.6502 10.1459 18.6681 10.1675 18.6796C10.1778 18.685 10.2139 18.6857 10.2202 18.6967C10.2203 18.6975 10.1463 18.733 10.1334 18.7296C10.1333 18.7293 10.1329 18.7293 10.1325 18.7292C10.1328 18.7295 10.1332 18.7297 10.1334 18.7296L10.1321 18.7292H10.1313C10.0089 18.6895 9.89555 18.604 9.82445 18.4431C9.80465 18.3987 9.82215 18.4163 9.82795 18.3775C9.83585 18.3208 9.78025 18.368 9.78295 18.3286C9.78515 18.2913 9.75945 18.2247 9.77075 18.2C9.78005 18.1808 9.79205 18.2232 9.79695 18.2242C9.81575 18.2294 9.73925 17.9803 9.76275 18.1202C9.76995 18.1633 9.74665 18.1845 9.74595 18.1523C9.74385 18.1074 9.72925 18.0729 9.71835 18.0335C9.70515 17.9864 9.71225 17.9578 9.69495 17.9117C9.66795 17.8401 9.67245 17.8342 9.67345 17.7551C9.67425 17.683 9.67855 17.6108 9.66535 17.5404C9.65835 17.5052 9.64645 17.4767 9.63515 17.4448C9.62725 17.4212 9.64185 17.387 9.63415 17.3718C9.60995 17.3216 9.61895 17.2598 9.61685 17.2021C9.61415 17.1215 9.60125 17.0442 9.59305 16.9645C9.58115 16.8481 9.56965 16.7232 9.54615 16.6C9.54225 16.5793 9.48465 16.5204 9.47035 16.5066C9.42275 16.4604 9.36705 16.4358 9.32165 16.3837C9.30113 16.3595 9.28242 16.3319 9.26585 16.3016C9.25305 16.2778 9.26215 16.2477 9.25075 16.2204C9.22315 16.1527 9.18985 16.0911 9.16395 16.0206C9.12025 15.9022 9.08705 15.7932 9.01715 15.7089C9.02385 15.7166 9.00705 15.6315 9.00745 15.6336C8.99385 15.5463 9.02685 15.5513 9.04875 15.4826C9.05905 15.4492 8.99715 15.4492 9.01275 15.3988C9.01625 15.3867 9.00905 15.3392 9.01065 15.3293C9.01545 15.2974 9.02765 15.2702 9.03525 15.2396C9.04005 15.2177 9.02865 15.1986 9.04385 15.1813C9.05335 15.1707 9.07435 15.1677 9.07925 15.1494C9.09145 15.1036 9.08435 15.0736 9.11535 15.0471C9.19955 14.9749 9.10685 14.5337 9.06395 14.5685C9.01625 14.6074 9.04695 14.7482 8.99985 14.6697C8.97835 14.6337 8.92285 14.6313 8.90285 14.6068C8.90345 14.6071 8.87285 14.4722 8.85645 14.4931C8.85585 14.4939 8.86125 14.5325 8.85015 14.5184C8.82465 14.486 8.83195 14.4435 8.83245 14.395C8.83705 14.398 8.88705 14.4441 8.86805 14.3887C8.83815 14.3022 8.84685 14.3719 8.83285 14.3955C8.83235 14.3947 8.83245 14.3946 8.83245 14.395C8.80905 14.3812 8.77625 14.2515 8.77515 14.2532C8.73885 14.3048 8.63815 14.1632 8.62486 14.1201C8.58055 13.9755 8.54066 14.1196 8.47456 14.0324C8.42906 13.9722 8.33606 13.8654 8.34636 13.7577C8.35276 13.6959 8.37496 13.648 8.37556 13.5823C8.37636 13.517 8.38036 13.4314 8.36466 13.3702C8.35596 13.3368 8.37376 13.2667 8.37396 13.2267C8.37445 13.1463 8.38617 13.0669 8.40836 12.9937C8.41606 12.9682 8.40836 12.9278 8.39316 12.9648C8.36816 13.0271 8.36086 13.1095 8.35096 13.1796C8.34576 13.216 8.31556 13.5423 8.30336 13.5399C8.30366 13.5399 8.29946 13.4233 8.29966 13.4173C8.30276 13.3514 8.31546 13.3153 8.31106 13.2472C8.30786 13.1998 8.34506 13.1732 8.34506 13.1207C8.34456 13.0602 8.36436 13.0059 8.37766 12.9499C8.39326 12.8844 8.41656 12.8218 8.41606 12.7503C8.41576 12.6888 8.45826 12.6214 8.47726 12.5698C8.52586 12.4406 8.58406 12.3251 8.64946 12.2138C8.76015 12.025 8.87675 11.8245 9.00715 11.6657C9.01995 11.6505 9.03205 11.6345 9.04505 11.6195C9.03555 11.6306 9.02595 11.6418 9.01695 11.6529C9.01355 11.6566 9.01035 11.6616 9.00715 11.6657C8.31566 12.4824 7.88006 13.7609 7.90446 15.1834C7.94056 17.2951 8.97535 19.0139 10.3114 19.3455C10.2412 19.3278 10.1715 19.3059 10.1024 19.2799C10.1136 19.2797 10.2126 19.3113 10.2143 19.299C10.2153 19.2918 10.1231 19.2581 10.1086 19.2435C10.1851 19.2376 10.2755 19.2563 10.3511 19.2761C10.3516 19.2764 10.4226 19.2459 10.4397 19.2534C10.4209 19.2366 10.3383 19.2092 10.338 19.1961C10.3375 19.1805 10.4305 19.16 10.4332 19.188C10.4297 19.1543 10.4452 19.1589 10.4126 19.1371C10.4126 19.1371 10.3855 19.1341 10.3858 19.1248C10.3854 19.1362 10.4327 19.069 10.4444 19.0514C10.4449 19.0506 10.4452 19.0487 10.4474 19.0473C10.4835 19.0624 10.5387 18.9866 10.5843 18.9997C10.5798 19.0034 10.5311 19.0312 10.5398 19.0364C10.5246 19.027 10.4987 19.0521 10.4997 19.0767C10.4997 19.0792 10.5461 19.1657 10.5505 19.1734C10.5665 19.2012 10.5889 19.2188 10.6083 19.2399C10.6242 19.2561 10.626 19.2915 10.6464 19.2961C10.6772 19.303 10.7079 19.31 10.7389 19.316C10.8864 19.3432 11.0192 19.3116 11.1609 19.2471C11.2285 19.2172 11.2962 19.1969 11.3652 19.1734C11.4248 19.1528 11.4944 19.1638 11.5475 19.1152C11.5669 19.0973 11.5584 19.1316 11.5772 19.1307C11.6038 19.129 11.63 19.1277 11.6566 19.1236C11.7114 19.1141 11.773 19.1195 11.825 19.0961C11.7972 19.1084 11.8333 19.0928 11.825 19.0961C11.8375 19.0822 11.8462 19.0818 11.8515 19.0943C11.7837 19.1353 11.7148 19.1726 11.6452 19.2059C12.8427 18.6433 13.6969 16.9415 13.6633 14.9627ZM9.59535 16.4352C9.58415 16.4165 9.56655 16.3878 9.55155 16.376C9.53795 16.3655 9.53585 16.406 9.54015 16.412C9.54955 16.4269 9.62035 16.4761 9.59535 16.4352C9.60465 16.451 9.58395 16.4162 9.59535 16.4352ZM10.0561 18.6164C10.0314 18.6036 10.0475 18.6466 10.0484 18.6502C10.0571 18.6883 10.0574 18.6522 10.0717 18.6696C10.0735 18.6719 10.0758 18.6744 10.0778 18.6775C10.0785 18.6705 10.0902 18.6502 10.0854 18.6469C10.0777 18.6487 10.0698 18.6489 10.062 18.6475C10.0481 18.6383 10.0654 18.6212 10.0561 18.6164ZM10.0341 14.9466C10.0354 14.965 10.0537 14.887 10.0601 14.8743C10.0515 14.881 10.0444 14.8915 10.0398 14.9044C10.0351 14.9173 10.0332 14.932 10.0341 14.9466C10.0344 14.9502 10.0317 14.9143 10.0341 14.9466ZM10.4495 15.565C10.457 15.5942 10.4492 15.5168 10.4396 15.4961C10.4294 15.5314 10.4419 15.5352 10.4495 15.565ZM10.7856 16.0221L10.7861 16.0223C10.789 16.0245 10.792 16.0271 10.7863 16.0223C10.8005 16.0329 10.8025 15.9923 10.8059 15.9813C10.8141 15.9559 10.8187 15.9931 10.8251 15.9851C10.829 15.9798 10.8181 15.9425 10.836 15.9492C10.8208 15.944 10.8336 15.9215 10.8437 15.9209C10.8784 15.92 10.8763 15.8929 10.8835 15.8634C10.8745 15.863 10.8716 15.9021 10.8549 15.904C10.8395 15.906 10.8076 15.9398 10.7988 15.9355C10.8194 15.9627 10.7662 16.0059 10.7856 16.0221ZM10.1145 11.6571C10.1144 11.6339 10.0564 11.6566 10.0492 11.6836C10.059 11.6679 10.1149 11.6709 10.1145 11.6571ZM10.2358 11.6582C10.2291 11.6559 10.1895 11.6676 10.1905 11.6857C10.1912 11.6989 10.2326 11.6612 10.2358 11.6582ZM9.87565 11.2085C9.87045 11.2018 9.84285 11.2264 9.84545 11.2325C9.85005 11.2418 9.87065 11.2132 9.87565 11.2085ZM10.1448 11.1776C10.1446 11.1867 10.1719 11.1824 10.1735 11.1697C10.1713 11.1606 10.1668 11.1561 10.1602 11.1561C10.1517 11.1577 10.1467 11.1649 10.1448 11.1776ZM11.9189 11.3278C11.9207 11.3346 11.9364 11.3669 11.9429 11.3502C11.9531 11.3256 11.9157 11.3137 11.9187 11.3272C11.9215 11.3378 11.9198 11.3307 11.9189 11.3278ZM11.9958 11.6017C12.0008 11.609 12.0087 11.6255 12.0087 11.6168C12.009 11.6129 12.0008 11.6052 11.9958 11.6017ZM12.6897 14.5456C12.6921 14.562 12.7003 14.5722 12.7141 14.577C12.7168 14.5615 12.718 14.5463 12.7175 14.5306C12.7238 14.5297 12.7123 14.4368 12.6972 14.475C12.69 14.4935 12.7368 14.5486 12.6897 14.5456ZM10.4495 15.565C10.4445 15.5454 10.4506 15.5692 10.4495 15.565V15.565ZM11.708 11.5491C11.7017 11.5235 11.6796 11.5189 11.6642 11.5193C11.6208 11.5201 11.647 11.5326 11.6443 11.5631C11.6433 11.573 11.6214 11.5626 11.6172 11.5684C11.6194 11.565 11.676 11.6944 11.6909 11.6937C11.7798 11.681 11.7253 11.6139 11.7088 11.5514C11.7107 11.5593 11.7122 11.5665 11.708 11.5491ZM11.708 11.5491C11.7085 11.5495 11.7088 11.5506 11.7088 11.5514C11.7068 11.5431 11.7045 11.5342 11.708 11.5491ZM11.8854 11.7197C11.9028 11.7164 11.9423 11.7189 11.9556 11.7009C11.9715 11.6795 11.9438 11.6807 11.9406 11.6724C11.9316 11.6497 11.9393 11.6227 11.918 11.6106C11.8786 11.5882 11.9042 11.6257 11.8673 11.5819C11.8415 11.5517 11.7712 11.479 11.7384 11.4807C11.7184 11.4814 11.7227 11.4381 11.7139 11.4202C11.7044 11.4014 11.6818 11.4146 11.6689 11.4139C11.6888 11.4148 11.6114 11.3466 11.6233 11.3863C11.6296 11.4067 11.6126 11.4342 11.6367 11.4399C11.6372 11.4399 11.6704 11.49 11.6706 11.4916C11.6736 11.5061 11.8477 11.5921 11.7723 11.6008C11.7785 11.6134 11.7868 11.6233 11.7964 11.6293C11.8095 11.6443 11.7851 11.667 11.792 11.6732C11.8227 11.7019 11.8416 11.6655 11.8256 11.7439C11.8213 11.7642 11.8789 11.7177 11.8854 11.7197C11.9045 11.7159 11.8739 11.7164 11.8854 11.7197ZM10.3642 11.923C10.3626 11.943 10.3786 11.9647 10.371 11.9865C10.3583 12.0228 10.3186 12.0155 10.3277 11.9876C10.3357 11.9634 10.2676 12.0131 10.2662 12.0076C10.2635 11.9978 10.2839 11.9996 10.2826 11.9861C10.2813 11.9686 10.108 11.9825 10.1787 11.943C10.1798 11.942 10.2906 11.727 10.3071 11.7725C10.3125 11.7865 10.2548 11.8426 10.2625 11.8546C10.2655 11.8599 10.2791 11.8388 10.2866 11.8474C10.2903 11.8516 10.2951 11.9024 10.3126 11.8788C10.3202 11.8692 10.365 11.8684 10.3507 11.8969C10.3393 11.919 10.365 11.914 10.3642 11.923ZM10.3542 11.9406C10.3509 11.937 10.3364 11.9561 10.3429 11.9632C10.337 11.9564 10.3487 11.9695 10.3429 11.9632C10.3486 11.9698 10.3583 11.9447 10.3542 11.9406ZM10.3641 11.9563C10.3678 11.9504 10.3683 11.9671 10.3641 11.9563V11.9563ZM10.0298 10.9342C10.0285 10.9343 10.0269 10.9343 10.0229 10.9351C10.043 10.9324 10.0491 10.9267 10.0484 10.8957C10.0256 10.916 9.99885 10.9188 9.97795 10.9459C9.99275 10.9399 10.0073 10.9363 10.0226 10.9352L10.0298 10.9342ZM11.2308 10.8364C11.248 10.8408 11.2238 10.8218 11.2276 10.8181C11.196 10.8396 11.1496 10.7865 11.113 10.8024C11.1516 10.8194 11.1909 10.8262 11.2308 10.8364C11.2329 10.8372 11.1919 10.8262 11.2308 10.8364ZM9.93775 10.9835C9.91245 10.9777 9.94575 10.9858 9.93775 10.9835V10.9835ZM11.1031 10.8041C11.1047 10.8053 11.1065 10.8058 11.1082 10.8055C11.11 10.8052 11.1117 10.8041 11.113 10.8024C11.1063 10.7952 11.1027 10.7958 11.1031 10.8041ZM10.3475 18.5609L10.3479 18.5607C10.3477 18.5607 10.3475 18.5612 10.3475 18.5612C10.3427 18.5679 10.3411 18.5752 10.3452 18.5825C10.3521 18.5953 10.3941 18.5622 10.3884 18.552C10.3798 18.5383 10.3574 18.5472 10.3475 18.5609ZM9.94765 11.0214C9.94915 11.0225 9.97655 11.0205 9.94765 11.0214V11.0214ZM10.4728 17.4353C10.4767 17.4406 10.4934 17.415 10.487 17.4082C10.4826 17.4034 10.4683 17.4281 10.4728 17.4353ZM9.94765 11.0214C9.96885 11.0204 10.0048 10.9995 10.0173 10.9725C10.0023 10.9659 9.93665 11.0151 9.94765 11.0214ZM10.0206 10.9928C10.0163 10.9916 10.0132 10.9933 10.0118 10.9996C10.0155 10.9999 10.0198 11.0014 10.0206 10.9928Z" fill="black"/>
<path d="M19.2432 8.98925L8.46897 0.726736C7.78868 0.204782 6.94858 0.615125 6.60198 1.63812L5.84179 3.88192L4.83789 6.84337H9.70297L6.28318 4.22097L7.04378 1.97687C7.26718 1.31758 7.80558 1.05435 8.24397 1.39069L19.018 9.6535C19.4565 9.98984 19.6314 10.7997 19.4076 11.4588L18.6472 13.7025L15.3649 11.1854V17.5818L16.9265 18.7793L16.1659 21.0231C15.9735 21.5914 15.5471 21.8639 15.1525 21.7139C15.0725 21.9454 14.9714 22.1591 14.8523 22.3489C15.5102 22.7478 16.2794 22.3296 16.6073 21.3617L17.3678 19.1182L19.0885 14.0414L19.8492 11.7974C20.1958 10.7744 19.923 9.5109 19.2432 8.98925Z" fill="black"/>
</svg>
