<svg width="22" height="22" viewBox="0 0 22 22" fill="none" xmlns="http://www.w3.org/2000/svg">
<path d="M18.7 2.2H17.6V1.1C17.6 0.44 17.16 0 16.5 0C15.84 0 15.4 0.44 15.4 1.1V2.2H6.6V1.1C6.6 0.44 6.16 0 5.5 0C4.84 0 4.4 0.44 4.4 1.1V2.2H3.3C1.43 2.2 0 3.63 0 5.5V6.6H22V5.5C22 3.63 20.57 2.2 18.7 2.2ZM0 18.7C0 20.57 1.43 22 3.3 22H18.7C20.57 22 22 20.57 22 18.7V8.8H0V18.7ZM16.5 11C17.16 11 17.6 11.44 17.6 12.1C17.6 12.76 17.16 13.2 16.5 13.2C15.84 13.2 15.4 12.76 15.4 12.1C15.4 11.44 15.84 11 16.5 11ZM16.5 15.4C17.16 15.4 17.6 15.84 17.6 16.5C17.6 17.16 17.16 17.6 16.5 17.6C15.84 17.6 15.4 17.16 15.4 16.5C15.4 15.84 15.84 15.4 16.5 15.4ZM11 11C11.66 11 12.1 11.44 12.1 12.1C12.1 12.76 11.66 13.2 11 13.2C10.34 13.2 9.9 12.76 9.9 12.1C9.9 11.44 10.34 11 11 11ZM11 15.4C11.66 15.4 12.1 15.84 12.1 16.5C12.1 17.16 11.66 17.6 11 17.6C10.34 17.6 9.9 17.16 9.9 16.5C9.9 15.84 10.34 15.4 11 15.4ZM5.5 11C6.16 11 6.6 11.44 6.6 12.1C6.6 12.76 6.16 13.2 5.5 13.2C4.84 13.2 4.4 12.76 4.4 12.1C4.4 11.44 4.84 11 5.5 11ZM5.5 15.4C6.16 15.4 6.6 15.84 6.6 16.5C6.6 17.16 6.16 17.6 5.5 17.6C4.84 17.6 4.4 17.16 4.4 16.5C4.4 15.84 4.84 15.4 5.5 15.4Z" fill="black"/>
</svg>
