<svg width="13" height="8" viewBox="0 0 13 8" fill="none" xmlns="http://www.w3.org/2000/svg">
<path d="M6.5 2.61244L11.4148 7.24372C11.7775 7.58543 12.3654 7.58543 12.728 7.24372C13.0907 6.90201 13.0907 6.34799 12.728 6.00628L7.1566 0.756281C6.79397 0.414573 6.20603 0.414573 5.8434 0.756281L0.271973 6.00628C-0.0906572 6.34799 -0.0906572 6.90201 0.271973 7.24372C0.634603 7.58543 1.22254 7.58543 1.58517 7.24372L6.5 2.61244Z" fill="#646464"/>
<mask id="mask0_43_24606" style="mask-type:luminance" maskUnits="userSpaceOnUse" x="0" y="0" width="13" height="8">
<path d="M6.5 2.61244L11.4148 7.24372C11.7775 7.58543 12.3654 7.58543 12.728 7.24372C13.0907 6.90201 13.0907 6.34799 12.728 6.00628L7.1566 0.756281C6.79397 0.414573 6.20603 0.414573 5.8434 0.756281L0.271973 6.00628C-0.0906572 6.34799 -0.0906572 6.90201 0.271973 7.24372C0.634603 7.58543 1.22254 7.58543 1.58517 7.24372L6.5 2.61244Z" fill="white"/>
</mask>
<g mask="url(#mask0_43_24606)">
</g>
</svg>
