<svg width="25" height="24" viewBox="0 0 25 24" fill="none" xmlns="http://www.w3.org/2000/svg">
<path d="M12.8668 4.01204C12.8394 3.96144 12.8012 3.91704 12.7545 3.88178C12.7079 3.84653 12.6541 3.82123 12.5965 3.80757C12.539 3.7939 12.4791 3.79219 12.4208 3.80254C12.3625 3.81289 12.3072 3.83507 12.2585 3.8676L2.09611 10.6003L2.8961 12.0889L5.82107 17.5216L6.62523 19.0142L18.196 14.8975C18.2517 14.878 18.3024 14.8473 18.3447 14.8074C18.3871 14.7674 18.42 14.7192 18.4413 14.666C18.4626 14.6127 18.4719 14.5557 18.4683 14.4988C18.4648 14.4418 18.4487 14.3862 18.421 14.3358L12.8668 4.01204ZM14.5252 5.34815V5.35216L18.246 12.2614C18.8884 11.6499 19.3109 10.8565 19.4518 9.99729C19.5926 9.13805 19.4443 8.25795 19.0287 7.48563C18.613 6.71332 17.9517 6.08927 17.1414 5.7047C16.3312 5.32013 15.4144 5.19519 14.5252 5.34815ZM0.179459 13.3407C0.0963331 13.3962 0.0369788 13.4789 0.0124498 13.5733C-0.0120791 13.6678 -0.000110584 13.7677 0.0461266 13.8543L2.67944 18.7453C2.71426 18.811 2.76739 18.8661 2.83289 18.9044C2.89839 18.9427 2.97366 18.9626 3.05027 18.962C3.09857 18.9618 3.14648 18.9537 3.19193 18.9379L5.25025 18.2077L1.98778 12.141L0.179459 13.3407ZM12.2335 17.8706L8.41688 19.2308L10.8544 23.2993C10.8913 23.3604 10.9442 23.411 11.0078 23.4462C11.0714 23.4814 11.1435 23.5 11.2169 23.4999C11.2836 23.5011 11.3495 23.4859 11.4085 23.4558L14.2293 22.0475C14.2791 22.0229 14.3232 21.9889 14.359 21.9476C14.3948 21.9062 14.4216 21.8583 14.4377 21.8067C14.4534 21.7541 14.4583 21.699 14.4518 21.6446C14.4454 21.5902 14.4278 21.5376 14.4002 21.4898L12.2335 17.8706ZM24.9534 4.52863C24.9025 4.43419 24.8148 4.36305 24.7095 4.33086C24.6042 4.29868 24.49 4.30807 24.3919 4.35698L20.1601 6.46855C20.1104 6.49216 20.0661 6.52508 20.0298 6.56538C19.9935 6.60567 19.9659 6.65254 19.9486 6.70324C19.9313 6.75393 19.9247 6.80744 19.9292 6.86062C19.9336 6.9138 19.949 6.9656 19.9745 7.01297C20 7.06035 20.0351 7.10235 20.0776 7.13652C20.1202 7.17069 20.1694 7.19635 20.2224 7.21198C20.2753 7.22762 20.331 7.23293 20.3862 7.22759C20.4413 7.22225 20.4948 7.20638 20.5434 7.1809L24.7751 5.06933C24.8731 5.02038 24.947 4.93592 24.9805 4.83453C25.0139 4.73314 25.0041 4.62311 24.9534 4.52863ZM24.1827 11.6603L20.8514 10.6421C20.7993 10.6262 20.7444 10.6203 20.6899 10.6248C20.6353 10.6293 20.5823 10.644 20.5337 10.6683C20.4851 10.6925 20.4419 10.7257 20.4067 10.766C20.3714 10.8063 20.3447 10.8529 20.3282 10.9031C20.3116 10.9533 20.3055 11.0062 20.3102 11.0587C20.3148 11.1112 20.3302 11.1623 20.3553 11.2091C20.3805 11.2559 20.415 11.2974 20.4568 11.3314C20.4987 11.3653 20.547 11.391 20.5992 11.407L23.9304 12.4252C24.0358 12.4574 24.1501 12.448 24.2482 12.3991C24.3463 12.3502 24.4202 12.2657 24.4537 12.1643C24.4871 12.0628 24.4774 11.9528 24.4266 11.8583C24.3757 11.7638 24.288 11.6925 24.1827 11.6603ZM16.8777 4.4918C16.9298 4.50784 16.9847 4.51381 17.0393 4.50937C17.0938 4.50494 17.1469 4.49019 17.1955 4.46596C17.2441 4.44173 17.2873 4.40851 17.3226 4.36819C17.3578 4.32787 17.3845 4.28125 17.401 4.231L18.4585 1.02274C18.475 0.972515 18.4812 0.919643 18.4765 0.867139C18.4718 0.814635 18.4565 0.763528 18.4313 0.716736C18.4062 0.669944 18.3717 0.628382 18.3298 0.594425C18.288 0.560468 18.2396 0.534781 18.1875 0.518828C18.1353 0.502876 18.0804 0.496972 18.0259 0.501454C17.9714 0.505935 17.9183 0.520714 17.8697 0.544947C17.8211 0.569179 17.7779 0.602391 17.7427 0.642685C17.7074 0.68298 17.6807 0.729568 17.6642 0.779791L16.6066 3.98789C16.5901 4.03811 16.5839 4.09099 16.5886 4.1435C16.5932 4.196 16.6086 4.24711 16.6338 4.29391C16.6589 4.3407 16.6934 4.38226 16.7353 4.41622C16.7771 4.45017 16.8255 4.47585 16.8777 4.4918Z" fill="black"/>
</svg>
