<svg width="25" height="18" viewBox="0 0 25 18" fill="none" xmlns="http://www.w3.org/2000/svg">
<path d="M1.56266 0.404303C1.45954 0.40389 1.35737 0.423895 1.26202 0.463165C1.16667 0.502435 1.08005 0.560193 1.00713 0.633108C0.934217 0.706022 0.876459 0.792651 0.837189 0.887997C0.797919 0.983344 0.777913 1.08552 0.778327 1.18864V16.8097C0.777913 16.9128 0.797919 17.015 0.837189 17.1103C0.876459 17.2057 0.934217 17.2923 1.00713 17.3652C1.08005 17.4381 1.16667 17.4959 1.26202 17.5352C1.35737 17.5744 1.45954 17.5944 1.56266 17.594H23.4365C23.5391 17.5936 23.6406 17.573 23.7352 17.5334C23.8299 17.4937 23.9158 17.4358 23.988 17.363C24.0603 17.2902 24.1175 17.2038 24.1563 17.1089C24.1952 17.014 24.215 16.9123 24.2146 16.8097V1.18864C24.215 1.08605 24.1952 0.984381 24.1563 0.889443C24.1175 0.794505 24.0603 0.708154 23.988 0.635322C23.9158 0.562489 23.8299 0.504602 23.7352 0.464963C23.6406 0.425325 23.5391 0.404713 23.4365 0.404303H1.56266ZM2.34075 1.96672H11.7184V5.17124C9.94035 5.53529 8.59198 7.12036 8.59198 9.00229C8.59198 10.8842 9.94035 12.4646 11.7184 12.8271V16.0316H2.34075V12.9068H4.68906C4.79165 12.9064 4.89316 12.8858 4.98778 12.8461C5.0824 12.8065 5.16829 12.7486 5.24055 12.6758C5.3128 12.6029 5.37 12.5166 5.40888 12.4216C5.44776 12.3267 5.46756 12.225 5.46714 12.1224V5.87589C5.46756 5.7733 5.44776 5.67164 5.40888 5.5767C5.37 5.48176 5.3128 5.39541 5.24055 5.32258C5.16829 5.24975 5.0824 5.19186 4.98778 5.15222C4.89316 5.11258 4.79165 5.09197 4.68906 5.09156H2.34075V1.96672ZM13.2808 1.96672H22.6584V5.09156H20.3101C20.2075 5.09197 20.106 5.11258 20.0114 5.15222C19.9168 5.19186 19.8309 5.24975 19.7586 5.32258C19.6864 5.39541 19.6292 5.48176 19.5903 5.5767C19.5514 5.67164 19.5316 5.7733 19.532 5.87589V12.1224C19.5316 12.225 19.5514 12.3267 19.5903 12.4216C19.6292 12.5166 19.6864 12.6029 19.7586 12.6758C19.8309 12.7486 19.9168 12.8065 20.0114 12.8461C20.106 12.8858 20.2075 12.9064 20.3101 12.9068H22.6584V16.0316H13.2808V12.8255C15.0581 12.4607 16.4072 10.8819 16.4072 9.00229C16.4072 7.1227 15.0573 5.53841 13.2808 5.17281V1.96672ZM2.34075 6.65554H3.90473V11.3428H2.34075V6.65554ZM12.4965 6.65554C12.8051 6.6542 13.1109 6.71397 13.3964 6.83141C13.6818 6.94885 13.9411 7.12164 14.1594 7.3398C14.3777 7.55796 14.5507 7.81719 14.6683 8.10252C14.7859 8.38786 14.8459 8.69366 14.8448 9.00229C14.8457 9.31057 14.7856 9.61598 14.6678 9.90088C14.55 10.1858 14.3769 10.4445 14.1586 10.6621C13.9402 10.8798 13.6809 11.052 13.3956 11.1688C13.1103 11.2856 12.8047 11.3448 12.4965 11.3428C12.1886 11.3447 11.8834 11.2854 11.5986 11.1684C11.3138 11.0515 11.055 10.8791 10.8373 10.6614C10.6196 10.4437 10.4473 10.185 10.3303 9.90017C10.2134 9.61536 10.1541 9.31017 10.156 9.00229C10.154 8.69409 10.2132 8.38856 10.33 8.10336C10.4468 7.81816 10.6191 7.55895 10.8367 7.34072C11.0544 7.1225 11.3131 6.94958 11.598 6.83197C11.8829 6.71437 12.1883 6.6544 12.4965 6.65554ZM21.096 6.65554H22.6584V11.3428H21.096V6.65554Z" fill="black"/>
</svg>
