<svg width="23" height="24" viewBox="0 0 23 24" fill="none" xmlns="http://www.w3.org/2000/svg">
<path d="M12.1814 13.1501L9.53574 15.7835C9.42792 15.8904 9.34235 16.0176 9.28395 16.1578C9.22556 16.2979 9.19549 16.4482 9.19549 16.6C9.19549 16.7518 9.22556 16.9022 9.28395 17.0423C9.34235 17.1824 9.42792 17.3096 9.53574 17.4165C9.64267 17.5243 9.76989 17.6099 9.91006 17.6683C10.0502 17.7266 10.2006 17.7567 10.3524 17.7567C10.5043 17.7567 10.6546 17.7266 10.7948 17.6683C10.935 17.6099 11.0622 17.5243 11.1691 17.4165L15.7702 12.8166C15.8749 12.7072 15.957 12.5782 16.0118 12.4371C16.1268 12.1571 16.1268 11.843 16.0118 11.5631C15.957 11.4219 15.8749 11.2929 15.7702 11.1836L11.1691 6.58358C11.0619 6.47636 10.9345 6.39131 10.7944 6.33328C10.6543 6.27525 10.5041 6.24538 10.3524 6.24538C10.2008 6.24538 10.0506 6.27525 9.91044 6.33328C9.77031 6.39131 9.64299 6.47636 9.53574 6.58358C9.42849 6.69081 9.34341 6.8181 9.28537 6.9582C9.22733 7.09829 9.19745 7.24844 9.19745 7.40008C9.19745 7.55172 9.22733 7.70187 9.28537 7.84197C9.34341 7.98206 9.42849 8.10935 9.53574 8.21658L12.1814 10.8501H1.15027C0.845199 10.8501 0.552624 10.9712 0.336906 11.1869C0.121189 11.4026 0 11.6951 0 12.0001C0 12.3051 0.121189 12.5976 0.336906 12.8132C0.552624 13.0289 0.845199 13.1501 1.15027 13.1501H12.1814ZM11.5027 0.500115C9.35295 0.490519 7.24353 1.08341 5.41371 2.21153C3.58389 3.33965 2.1069 4.95785 1.15027 6.88258C1.01299 7.15708 0.990399 7.47486 1.08747 7.76601C1.18454 8.05716 1.39333 8.29783 1.66789 8.43507C1.94245 8.57232 2.26031 8.59491 2.55153 8.49786C2.84274 8.40081 3.08347 8.19208 3.22076 7.91758C3.94795 6.4494 5.05409 5.202 6.42489 4.30428C7.79569 3.40656 9.3814 2.89109 11.0182 2.81113C12.6549 2.73118 14.2833 3.08964 15.7351 3.84948C17.1869 4.60932 18.4095 5.74297 19.2764 7.13328C20.1432 8.52358 20.6231 10.1201 20.6662 11.7579C20.7094 13.3956 20.3143 15.0152 19.5218 16.4492C18.7294 17.8832 17.5682 19.0796 16.1585 19.9148C14.7487 20.75 13.1414 21.1937 11.5027 21.2C9.78751 21.2074 8.10498 20.7312 6.64821 19.8261C5.19143 18.9209 4.01945 17.6234 3.26677 16.0825C3.12949 15.808 2.88876 15.5993 2.59754 15.5023C2.30632 15.4052 1.98847 15.4278 1.7139 15.565C1.43934 15.7023 1.23056 15.943 1.13348 16.2341C1.03641 16.5253 1.059 16.843 1.19628 17.1175C2.10825 18.9524 3.49397 20.5103 5.21011 21.6302C6.92626 22.75 8.91051 23.3912 10.9576 23.4873C13.0047 23.5835 15.0403 23.1311 16.8539 22.1769C18.6675 21.2228 20.1932 19.8016 21.2732 18.0603C22.3531 16.319 22.9482 14.3209 22.9968 12.2726C23.0453 10.2243 22.5457 8.20024 21.5494 6.40974C20.5532 4.61925 19.0966 3.12735 17.3303 2.08838C15.564 1.0494 13.5521 0.501077 11.5027 0.500115Z" fill="black"/>
</svg>
