<svg width="22" height="22" viewBox="0 0 22 22" fill="none" xmlns="http://www.w3.org/2000/svg">
<path d="M10.9736 12.0355C11.5783 12.0355 12.0684 11.5669 12.0684 10.9889C12.0684 10.4109 11.5783 9.94238 10.9736 9.94238C10.369 9.94238 9.87891 10.4109 9.87891 10.9889C9.87891 11.5669 10.369 12.0355 10.9736 12.0355Z" fill="black"/>
<path d="M15.3526 12.0355C15.9572 12.0355 16.4473 11.5669 16.4473 10.9889C16.4473 10.4109 15.9572 9.94238 15.3526 9.94238C14.7479 9.94238 14.2578 10.4109 14.2578 10.9889C14.2578 11.5669 14.7479 12.0355 15.3526 12.0355Z" fill="black"/>
<path d="M6.59474 12.0355C7.19935 12.0355 7.68949 11.5669 7.68949 10.9889C7.68949 10.4109 7.19935 9.94238 6.59474 9.94238C5.99013 9.94238 5.5 10.4109 5.5 10.9889C5.5 11.5669 5.99013 12.0355 6.59474 12.0355Z" fill="black"/>
<path d="M18.7136 3.58939C16.9173 1.86103 14.5466 0.785924 12.0101 0.549435C9.47352 0.312947 6.93015 0.929892 4.81843 2.29391C2.70672 3.65793 1.15898 5.68354 0.442066 8.02152C-0.27485 10.3595 -0.116022 12.8633 0.891169 15.1014C0.996144 15.3094 1.03059 15.5435 0.989696 15.7712L0.0263219 20.1981C-0.010794 20.3678 -0.00321486 20.5437 0.0483784 20.7099C0.0999716 20.8761 0.193962 21.0275 0.321903 21.1504C0.426784 21.2499 0.551661 21.3281 0.689007 21.3803C0.826354 21.4325 0.973326 21.4575 1.12106 21.4539H1.34001L6.02551 20.5539C6.26365 20.5265 6.50514 20.559 6.72615 20.6481C9.06726 21.6109 11.6864 21.7627 14.1321 21.0774C16.5777 20.392 18.6966 18.9125 20.1235 16.8937C21.5503 14.875 22.1957 12.4436 21.9483 10.0187C21.7009 7.59385 20.5763 5.32748 18.7683 3.61032L18.7136 3.58939ZM19.6222 12.3385C19.4082 13.5881 18.9005 14.7749 18.1373 15.8098C17.3741 16.8447 16.3753 17.7006 15.216 18.3131C14.0568 18.9256 12.7674 19.2788 11.4447 19.3461C10.1221 19.4133 8.80072 19.193 7.58005 18.7015C7.14712 18.5255 6.68207 18.433 6.21162 18.4294C6.00611 18.4308 5.80107 18.4483 5.59856 18.4817L2.51139 19.0782L3.13539 16.127C3.25967 15.4878 3.17956 14.8277 2.9055 14.2327C2.3914 13.0658 2.16086 11.8026 2.23124 10.5382C2.30161 9.27381 2.67107 8.04113 3.3118 6.93295C3.95254 5.82476 4.84785 4.86994 5.93038 4.14035C7.0129 3.41075 8.25443 2.92538 9.56153 2.72076C10.9335 2.5055 12.3395 2.60561 13.663 3.01281C14.9865 3.42001 16.1896 4.12259 17.1727 5.06244C18.1558 6.0023 18.8908 7.15241 19.3167 8.41765C19.7427 9.68289 19.8474 11.0269 19.6222 12.3385Z" fill="black"/>
</svg>
