<svg width="22" height="23" viewBox="0 0 22 23" fill="none" xmlns="http://www.w3.org/2000/svg">
<path d="M21.9971 6.35852C22.0058 6.31143 21.9914 6.25962 21.9539 6.21253C21.9511 6.21018 21.9482 6.20547 21.9453 6.20311C21.9424 6.20076 21.9395 6.19605 21.9367 6.19369C21.9338 6.19134 21.9309 6.18663 21.928 6.18427L21.9194 6.17721C21.9194 6.17721 21.9194 6.17486 21.9165 6.17486L21.073 5.48493C20.4223 4.95042 19.7687 4.41826 19.1181 3.8861C18.3839 3.28565 17.6527 2.68756 16.9214 2.08711L15.3494 0.801449C15.2573 0.726099 15.168 0.64604 15.0702 0.573044C14.9579 0.488276 14.8341 0.502404 14.6988 0.502404H2.21814C1.73446 0.502404 1.2479 0.467083 0.80741 0.667232C0.306458 0.897992 0.00703765 1.33832 0.00127957 1.80455V21.0848C0.00127957 21.1248 -0.00159947 21.1625 0.00127957 21.2025C0.00991668 21.85 0.600119 22.401 1.3861 22.4834C1.65097 22.5117 1.92736 22.4952 2.19511 22.4952H19.8753C20.2092 22.4952 20.5778 22.5211 20.8973 22.434C21.5509 22.2574 21.9914 21.7606 22 21.1978V6.35852H21.9971ZM17.6555 18.3745H4.34287C4.02041 18.3745 3.78145 18.1579 3.76706 17.9036C3.75266 17.6493 4.04057 17.4326 4.34287 17.4326H5.24113V13.0341C5.24113 12.9046 5.22097 12.7468 5.29583 12.6267C5.47433 12.3371 5.91482 12.3936 6.24303 12.3936H7.46086C7.58466 12.3936 7.71134 12.396 7.83514 12.3983C7.84953 12.3983 7.86681 12.3983 7.8812 12.4007C7.88984 12.4007 7.89848 12.403 7.90711 12.403C7.91575 12.403 7.92439 12.4054 7.93303 12.4054C7.93878 12.4054 7.94454 12.4077 7.9503 12.4077C7.9647 12.4101 7.97909 12.4124 7.99349 12.4171H7.99637C8.01652 12.4219 8.03667 12.4289 8.05682 12.436C8.20078 12.4878 8.30154 12.589 8.34473 12.7233C8.35336 12.7444 8.36776 12.7703 8.37064 12.7962C8.37064 12.801 8.37352 12.8033 8.37352 12.8057V12.808C8.37352 12.8151 8.37352 12.8221 8.3764 12.8316C8.3764 12.8339 8.37352 12.8363 8.37352 12.8386V17.4303H9.55392V17.4044C9.55392 17.3643 9.55968 17.322 9.55968 17.2819C9.55968 17.2395 9.56256 17.1972 9.56256 17.1548C9.56544 17.0276 9.5712 16.9005 9.57408 16.7757C9.57408 16.7404 9.57696 16.7027 9.57696 16.6674C9.57696 16.6367 9.57696 16.6085 9.57984 16.5779V10.2179C9.57984 10.159 9.57408 10.1025 9.57408 10.0436C9.57408 10.0224 9.57696 9.99887 9.57984 9.97768C9.58272 9.96355 9.58559 9.95178 9.58847 9.94001L9.60575 9.89056C9.60863 9.88585 9.6115 9.87879 9.61438 9.87407L9.62302 9.85995L9.64893 9.81756C9.65181 9.81521 9.65181 9.8105 9.65469 9.80814C9.66045 9.80108 9.66621 9.79166 9.67484 9.7846C9.75258 9.69512 9.8735 9.6339 10.0232 9.61741C10.0376 9.61506 10.0549 9.61506 10.0722 9.6127C10.124 9.61035 10.1787 9.608 10.2305 9.608H10.2679C10.5587 9.60329 10.8495 9.61035 11.1403 9.61506H12.0644C12.1076 9.61506 12.1479 9.61035 12.1911 9.6127C12.2458 9.61506 12.2976 9.62212 12.3437 9.63625C12.3466 9.63625 12.3523 9.63861 12.3552 9.63861C12.3927 9.64802 12.4243 9.66215 12.456 9.67864C12.4675 9.6857 12.479 9.69041 12.4877 9.69747C12.4992 9.70454 12.5078 9.7116 12.5193 9.71867L12.5337 9.73044L12.5481 9.74221C12.5654 9.7587 12.5827 9.77518 12.5971 9.79402C12.5999 9.79873 12.6057 9.80344 12.6086 9.80814C12.6201 9.82227 12.6287 9.8364 12.6374 9.85288C12.6403 9.85759 12.6431 9.8623 12.646 9.86937C12.6575 9.89056 12.6662 9.91175 12.6719 9.9353C12.6748 9.94236 12.6777 9.95178 12.6806 9.95884C12.6834 9.96355 12.6834 9.97062 12.6863 9.97533C12.6892 9.98946 12.6921 10.0036 12.6921 10.0201V17.4326H13.9128C13.9128 17.1312 13.9301 16.8298 13.9301 16.5284V11.2892C13.9301 11.2304 13.9243 11.1739 13.9445 11.115C14.0222 10.8842 14.2727 10.816 14.5318 10.816H16.4694C16.6421 10.816 16.7918 10.8583 16.8955 10.9431C16.9099 10.9549 16.9243 10.969 16.9387 10.9831C16.9588 11.0043 16.9761 11.0279 16.9905 11.0538C17.0049 11.0797 17.0164 11.1079 17.0279 11.1362C17.0365 11.155 17.0394 11.1739 17.0423 11.1951V17.4326H17.6527C17.9751 17.4326 18.2141 17.6493 18.2285 17.9036C18.2429 18.1579 17.955 18.3745 17.6555 18.3745ZM16.2247 6.10657H15.8446C15.8216 6.10657 15.7957 6.10421 15.7726 6.10421C15.7381 6.09715 15.7035 6.09244 15.669 6.08538C15.6402 6.07831 15.5135 6.05712 15.5941 6.06654C15.6028 6.06654 15.6114 6.06889 15.6172 6.06889C15.6057 6.06654 15.5884 6.06183 15.5769 6.05712C15.5481 6.04535 15.5222 6.03357 15.4934 6.01945L15.4502 5.9959C15.4444 5.98883 15.3725 5.94174 15.3581 5.93232C15.3523 5.92761 15.3264 5.90877 15.3034 5.88994C15.3005 5.88523 15.2976 5.88052 15.2918 5.87581L15.2832 5.86168C15.2717 5.84991 15.2631 5.83578 15.2515 5.82401C15.2458 5.81694 15.2227 5.78633 15.2055 5.76043C15.2026 5.75572 15.1997 5.74866 15.1968 5.73924C15.194 5.72746 15.1882 5.71805 15.1824 5.70627C15.1796 5.70156 15.1796 5.69921 15.1767 5.6945C15.1652 5.66624 15.1767 5.63799 15.1479 5.60973V5.57912C15.145 5.56735 15.1421 5.56028 15.1421 5.55557C15.1421 5.55793 15.145 5.56734 15.1479 5.57441C15.1479 5.55793 15.145 5.5438 15.145 5.53438C15.145 5.49435 15.145 5.45667 15.1479 5.41664V3.06902C15.1479 2.75113 15.1537 2.43325 15.1565 2.11537L16.4924 3.20794L20.0365 6.10657H16.2247Z" fill="black"/>
</svg>
