<svg width="22" height="20" viewBox="0 0 22 20" fill="none" xmlns="http://www.w3.org/2000/svg">
<path d="M17.2624 3.22528C17.2678 3.22995 17.2719 3.2358 17.2742 3.24228C17.2765 3.24877 17.277 3.25568 17.2756 3.26238L17.1012 4.16928C17.0756 4.29987 17.0909 4.43438 17.1455 4.55742C17.2 4.68047 17.2915 4.78707 17.4096 4.86505C17.5276 4.94303 17.6674 4.98922 17.813 4.99835C17.9586 5.00748 18.104 4.97918 18.2328 4.91668L19.1279 4.48538C19.1346 4.48238 19.1419 4.48084 19.1493 4.48089C19.1567 4.48094 19.164 4.48258 19.1706 4.48568L20.0652 4.91634C20.194 4.97852 20.3393 5.00658 20.4847 4.99734C20.6302 4.9881 20.7698 4.94192 20.8878 4.86406C21.0057 4.7862 21.0973 4.6798 21.1519 4.55697C21.2066 4.43413 21.2223 4.2998 21.1971 4.16928L21.0224 3.26204C21.0212 3.25545 21.0217 3.24868 21.0241 3.24233C21.0264 3.23599 21.0303 3.23025 21.0356 3.22561L21.7629 2.58531C21.8676 2.49314 21.9418 2.37612 21.9769 2.24755C22.0121 2.11897 22.0069 1.984 21.9619 1.85799C21.9169 1.73197 21.8339 1.61996 21.7223 1.5347C21.6108 1.44944 21.4751 1.39434 21.3309 1.37567L20.3286 1.24644C20.3212 1.24555 20.3141 1.243 20.3081 1.23902C20.302 1.23504 20.2971 1.22975 20.2939 1.22364L19.8484 0.396673C19.7849 0.277376 19.6856 0.176836 19.5619 0.106651C19.4382 0.0364663 19.2952 -0.000503702 19.1494 6.23481e-06C19.0035 -0.000552033 18.8601 0.0363909 18.7363 0.106575C18.6125 0.176758 18.513 0.277324 18.4494 0.396673L18.0043 1.22334C18.0011 1.2294 17.9962 1.23464 17.9902 1.23862C17.9842 1.24259 17.9773 1.24517 17.9699 1.24614L16.9673 1.37537C16.823 1.394 16.6873 1.44907 16.5758 1.53433C16.4642 1.61958 16.3811 1.73158 16.3361 1.85761C16.2911 1.98364 16.2858 2.11862 16.321 2.24721C16.3562 2.3758 16.4304 2.49284 16.5351 2.58501L17.2624 3.22528ZM15.0336 6.23481e-06H0.366674C0.269426 6.23481e-06 0.176161 0.0351252 0.107396 0.0976374C0.0386316 0.16015 0 0.244934 0 0.33334V5.66668C4.19955e-06 5.72506 0.0168764 5.78242 0.048928 5.83301C0.0809796 5.8836 0.127086 5.92566 0.182634 5.95496C0.238181 5.98426 0.301221 5.99979 0.365443 5.99999C0.429666 6.00018 0.492818 5.98504 0.548581 5.95608L3.03082 4.66668H15.0336C15.1309 4.66668 15.2241 4.63156 15.2929 4.56905C15.3617 4.50653 15.4003 4.42175 15.4003 4.33334V0.33334C15.4003 0.244934 15.3617 0.16015 15.2929 0.0976374C15.2241 0.0351252 15.1309 6.23481e-06 15.0336 6.23481e-06ZM11.3669 2.66668H4.03341C3.93617 2.66668 3.8429 2.63156 3.77414 2.56904C3.70537 2.50653 3.66674 2.42175 3.66674 2.33334C3.66674 2.24494 3.70537 2.16015 3.77414 2.09764C3.8429 2.03513 3.93617 2.00001 4.03341 2.00001H11.3669C11.4641 2.00001 11.5574 2.03513 11.6262 2.09764C11.6949 2.16015 11.7336 2.24494 11.7336 2.33334C11.7336 2.42175 11.6949 2.50653 11.6262 2.56904C11.5574 2.63156 11.4641 2.66668 11.3669 2.66668ZM21.3309 8.37568L20.3286 8.24645C20.3212 8.24555 20.3141 8.243 20.3081 8.23902C20.302 8.23504 20.2971 8.22976 20.2939 8.22365L19.8484 7.39668C19.7849 7.27738 19.6856 7.17684 19.5619 7.10666C19.4382 7.03647 19.2952 6.9995 19.1494 7.00001C19.0035 6.99945 18.8601 7.0364 18.7363 7.10658C18.6125 7.17676 18.513 7.27733 18.4494 7.39668L18.0043 8.22335C18.0011 8.22941 17.9962 8.23465 17.9902 8.23862C17.9842 8.2426 17.9773 8.24518 17.9699 8.24615L16.9673 8.37538C16.823 8.39401 16.6873 8.44908 16.5758 8.53433C16.4642 8.61958 16.3811 8.73159 16.3361 8.85762C16.2911 8.98364 16.2858 9.11863 16.321 9.24722C16.3562 9.37581 16.4304 9.49284 16.5351 9.58501L17.2624 10.225C17.2678 10.2297 17.2719 10.2355 17.2742 10.242C17.2765 10.2485 17.277 10.2554 17.2756 10.2621L17.1012 11.169C17.0755 11.2996 17.0908 11.4342 17.1453 11.5573C17.1998 11.6804 17.2913 11.787 17.4094 11.865C17.5275 11.943 17.6673 11.9892 17.8129 11.9984C17.9585 12.0075 18.104 11.9792 18.2328 11.9167L19.1279 11.4854C19.1346 11.4824 19.1419 11.4808 19.1493 11.4809C19.1567 11.4809 19.164 11.4826 19.1706 11.4857L20.0652 11.9163C20.194 11.9785 20.3393 12.0066 20.4847 11.9973C20.6302 11.9881 20.7698 11.9419 20.8878 11.8641C21.0057 11.7862 21.0973 11.6798 21.1519 11.557C21.2066 11.4341 21.2223 11.2998 21.1971 11.1693L21.0224 10.262C21.0212 10.2555 21.0217 10.2487 21.0241 10.2423C21.0264 10.236 21.0303 10.2303 21.0356 10.2256L21.7629 9.58531C21.8676 9.49316 21.9418 9.37615 21.977 9.24759C22.0121 9.11903 22.0069 8.98407 21.962 8.85806C21.917 8.73204 21.834 8.62003 21.7225 8.53476C21.6109 8.44949 21.4751 8.39437 21.3309 8.37568ZM15.0336 7.00001H0.366674C0.269426 7.00001 0.176161 7.03513 0.107396 7.09764C0.0386316 7.16016 0 7.24494 0 7.33335V12.6667C4.19955e-06 12.7251 0.0168764 12.7824 0.048928 12.833C0.0809796 12.8836 0.127086 12.9257 0.182634 12.955C0.238181 12.9843 0.301221 12.9998 0.365443 13C0.429666 13.0002 0.492818 12.985 0.548581 12.9561L3.03082 11.6667H15.0336C15.1309 11.6667 15.2241 11.6316 15.2929 11.5691C15.3617 11.5065 15.4003 11.4218 15.4003 11.3333V7.33335C15.4003 7.24494 15.3617 7.16016 15.2929 7.09764C15.2241 7.03513 15.1309 7.00001 15.0336 7.00001ZM11.3669 9.66668H4.03341C3.93617 9.66668 3.8429 9.63156 3.77414 9.56905C3.70537 9.50654 3.66674 9.42175 3.66674 9.33335C3.66674 9.24494 3.70537 9.16016 3.77414 9.09764C3.8429 9.03513 3.93617 9.00001 4.03341 9.00001H11.3669C11.4641 9.00001 11.5574 9.03513 11.6262 9.09764C11.6949 9.16016 11.7336 9.24494 11.7336 9.33335C11.7336 9.42175 11.6949 9.50654 11.6262 9.56905C11.5574 9.63156 11.4641 9.66668 11.3669 9.66668ZM21.3309 15.3757L20.3286 15.2465C20.3212 15.2456 20.3141 15.243 20.3081 15.239C20.302 15.235 20.2971 15.2298 20.2939 15.2237L19.8484 14.3967C19.7849 14.2774 19.6856 14.1768 19.5619 14.1067C19.4382 14.0365 19.2952 13.9995 19.1494 14C19.0035 13.9995 18.8601 14.0364 18.7363 14.1066C18.6125 14.1768 18.513 14.2773 18.4494 14.3967L18.0043 15.2235C18.0011 15.2296 17.9962 15.2348 17.9902 15.2388C17.9842 15.2428 17.9773 15.2454 17.9699 15.2463L16.9673 15.3756C16.823 15.3942 16.6873 15.4493 16.5758 15.5345C16.4642 15.6198 16.3811 15.7318 16.3361 15.8578C16.2911 15.9838 16.2858 16.1188 16.321 16.2474C16.3562 16.376 16.4304 16.493 16.5351 16.5852L17.2624 17.2252C17.2678 17.2299 17.2719 17.2357 17.2742 17.2422C17.2765 17.2487 17.277 17.2556 17.2756 17.2623L17.1012 18.1692C17.0756 18.2998 17.0909 18.4343 17.1454 18.5574C17.1999 18.6804 17.2915 18.7871 17.4095 18.865C17.5276 18.943 17.6674 18.9892 17.813 18.9984C17.9586 19.0075 18.104 18.9792 18.2328 18.9167L19.1279 18.4854C19.1346 18.4824 19.1419 18.4808 19.1493 18.4809C19.1567 18.481 19.164 18.4826 19.1706 18.4857L20.0652 18.9164C20.194 18.9785 20.3393 19.0066 20.4847 18.9974C20.6302 18.9881 20.7698 18.9419 20.8878 18.8641C21.0057 18.7862 21.0973 18.6798 21.1519 18.557C21.2066 18.4341 21.2223 18.2998 21.1971 18.1693L21.0224 17.2621C21.0212 17.2555 21.0217 17.2487 21.0241 17.2423C21.0264 17.236 21.0303 17.2303 21.0356 17.2256L21.7629 16.5853C21.8676 16.4932 21.9418 16.3762 21.977 16.2476C22.0121 16.119 22.0069 15.9841 21.962 15.8581C21.917 15.732 21.834 15.62 21.7225 15.5348C21.6109 15.4495 21.4751 15.3944 21.3309 15.3757ZM15.0336 14H0.366674C0.269426 14 0.176161 14.0351 0.107396 14.0976C0.0386316 14.1602 0 14.2449 0 14.3334V19.6667C4.19955e-06 19.7251 0.0168764 19.7824 0.048928 19.833C0.0809796 19.8836 0.127086 19.9257 0.182634 19.955C0.238181 19.9843 0.301221 19.9998 0.365443 20C0.429666 20.0002 0.492818 19.9851 0.548581 19.9561L3.03082 18.6667H15.0336C15.1309 18.6667 15.2241 18.6316 15.2929 18.5691C15.3617 18.5065 15.4003 18.4218 15.4003 18.3334V14.3334C15.4003 14.2449 15.3617 14.1602 15.2929 14.0976C15.2241 14.0351 15.1309 14 15.0336 14ZM11.3669 16.6667H4.03341C3.93617 16.6667 3.8429 16.6316 3.77414 16.5691C3.70537 16.5065 3.66674 16.4218 3.66674 16.3334C3.66674 16.2449 3.70537 16.1602 3.77414 16.0977C3.8429 16.0351 3.93617 16 4.03341 16H11.3669C11.4641 16 11.5574 16.0351 11.6262 16.0977C11.6949 16.1602 11.7336 16.2449 11.7336 16.3334C11.7336 16.4218 11.6949 16.5065 11.6262 16.5691C11.5574 16.6316 11.4641 16.6667 11.3669 16.6667Z" fill="black"/>
</svg>
