<svg width="25" height="26" viewBox="0 0 25 26" fill="none" xmlns="http://www.w3.org/2000/svg">
<path d="M17.7373 4.97421C18.0563 5.13203 18.4339 5.17351 18.7879 5.0896C19.1418 5.00569 19.4433 4.8032 19.6266 4.52631C19.7782 4.29312 20.0144 4.11037 20.2981 4.00673C20.5817 3.9031 20.8969 3.88443 21.194 3.95367C21.4912 4.02291 21.7535 4.17612 21.94 4.3893C22.1265 4.60247 22.2265 4.86355 22.2243 5.13158C22.2243 5.45263 22.078 5.76053 21.8174 5.98755C21.5569 6.21457 21.2036 6.3421 20.8351 6.3421C20.4667 6.3421 20.1134 6.46964 19.8528 6.69666C19.5923 6.92368 19.446 7.23158 19.446 7.55263C19.446 7.87368 19.5923 8.18158 19.8528 8.4086C20.1134 8.63562 20.4667 8.76316 20.8351 8.76316C21.5666 8.76275 22.285 8.5946 22.9183 8.2756C23.5515 7.9566 24.0772 7.49799 24.4427 6.94586C24.8081 6.39372 25.0003 5.7675 25 5.13012C24.9997 4.49275 24.8069 3.86666 24.441 3.31478C24.0751 2.7629 23.5489 2.30466 22.9154 1.9861C22.2818 1.66755 21.5632 1.4999 20.8318 1.5C20.1004 1.5001 19.3818 1.66795 18.7484 1.98668C18.115 2.30542 17.589 2.7638 17.2233 3.31579C17.1314 3.45395 17.0719 3.60658 17.048 3.76489C17.0241 3.9232 17.0364 4.08407 17.0842 4.23821C17.132 4.39236 17.2143 4.53675 17.3264 4.66307C17.4384 4.78938 17.5781 4.89513 17.7373 4.97421ZM23.7107 13.6053C23.3461 13.564 22.9775 13.6504 22.6859 13.8456C22.3942 14.0407 22.2033 14.3287 22.1549 14.6463C21.8633 16.6983 20.7208 18.5867 18.9426 19.9557C17.1643 21.3247 14.8729 22.0798 12.5001 22.0789H4.73458L5.63754 21.2921C5.89628 21.0653 6.0415 20.7585 6.0415 20.4387C6.0415 20.1189 5.89628 19.8121 5.63754 19.5853C4.28302 18.4003 3.36121 16.8925 2.98823 15.2519C2.61525 13.6113 2.80777 11.9112 3.54155 10.3657C4.27533 8.82022 5.51754 7.49854 7.11172 6.56713C8.7059 5.63571 10.5807 5.13623 12.5001 5.13158C12.8685 5.13158 13.2219 5.00404 13.4824 4.77702C13.7429 4.55001 13.8893 4.2421 13.8893 3.92105C13.8893 3.6 13.7429 3.2921 13.4824 3.06508C13.2219 2.83806 12.8685 2.71053 12.5001 2.71053C10.1513 2.71906 7.85278 3.30397 5.86786 4.39823C3.88294 5.4925 2.29189 7.05186 1.277 8.89767C0.262113 10.7435 -0.135569 12.8011 0.129516 14.8347C0.394601 16.8684 1.31173 18.7959 2.77584 20.3963L0.400342 22.43C0.207583 22.6002 0.0770056 22.8164 0.0250863 23.0512C-0.026833 23.2861 0.00223226 23.529 0.108615 23.7495C0.212831 23.9705 0.389809 24.1598 0.617246 24.2933C0.844682 24.4269 1.1124 24.4988 1.38666 24.5H12.5001C15.5444 24.5004 18.4843 23.5328 20.7682 21.7788C23.0521 20.0248 24.5232 17.605 24.9054 14.9732C24.9308 14.8149 24.92 14.6538 24.8736 14.4992C24.8272 14.3446 24.7462 14.1995 24.6351 14.0723C24.524 13.9452 24.3852 13.8384 24.2265 13.7583C24.0679 13.6781 23.8926 13.6261 23.7107 13.6053ZM21.363 10.0584C21.1101 9.96092 20.8296 9.93141 20.5573 9.97368L20.3073 10.0463L20.0572 10.1553L19.8488 10.3126C19.7239 10.4242 19.6248 10.5557 19.5571 10.7C19.475 10.851 19.4368 11.0173 19.446 11.1842C19.4419 11.3457 19.475 11.5062 19.5432 11.6563C19.6151 11.8016 19.7189 11.9332 19.8488 12.0437C19.9786 12.1559 20.1326 12.2446 20.3018 12.3049C20.4711 12.3651 20.6523 12.3957 20.8351 12.3947C21.2036 12.3947 21.5569 12.2672 21.8174 12.0402C22.078 11.8132 22.2243 11.5053 22.2243 11.1842C22.229 11.0254 22.191 10.8679 22.1132 10.7242C21.9639 10.4333 21.6968 10.2006 21.363 10.0705V10.0584Z" fill="black"/>
</svg>
