<svg width="22" height="18" viewBox="0 0 22 18" fill="none" xmlns="http://www.w3.org/2000/svg">
<path d="M20.9355 0H1.06452C0.475484 0 0 0.642857 0 1.43923V5.0565C0 5.85288 0.475484 6.49574 1.06452 6.49574C2.08645 6.49574 2.91677 7.61834 2.91677 9C2.91677 10.3817 2.08645 11.5043 1.06452 11.5043C0.475484 11.5043 0 12.1471 0 12.9435V16.5608C0 17.3571 0.475484 18 1.06452 18H20.9355C21.5245 18 22 17.3571 22 16.5608V12.9435C22 12.1471 21.5245 11.5043 20.9355 11.5043C19.9135 11.5043 19.0832 10.3817 19.0832 9C19.0832 7.61834 19.9135 6.49574 20.9355 6.49574C21.5245 6.49574 22 5.85288 22 5.0565V1.43923C22 0.642857 21.5245 0 20.9355 0ZM15.6129 12.3582C15.6129 13.145 15.1374 13.7974 14.5484 13.7974C13.9594 13.7974 13.4839 13.145 13.4839 12.3582V5.64179C13.4839 4.85501 13.9594 4.20256 14.5484 4.20256C15.1374 4.20256 15.6129 4.85501 15.6129 5.64179V12.3582Z" fill="black"/>
</svg>
