<svg width="21" height="25" viewBox="0 0 21 25" fill="none" xmlns="http://www.w3.org/2000/svg">
<path d="M10.4998 24.875C11.0965 24.875 11.6688 24.6379 12.0908 24.216C12.5127 23.794 12.7498 23.2217 12.7498 22.625H8.24976C8.24976 23.2217 8.48681 23.794 8.90877 24.216C9.33073 24.6379 9.90302 24.875 10.4998 24.875ZM1.49976 20.375H19.4998C19.7222 20.375 19.9397 20.3089 20.1246 20.1853C20.3096 20.0617 20.4538 19.886 20.5389 19.6805C20.624 19.4749 20.6463 19.2488 20.6029 19.0306C20.5595 18.8124 20.4524 18.612 20.2951 18.4546L18.3748 16.5343V10.25C18.3711 8.35831 17.6873 6.53102 16.448 5.10177C15.2088 3.67251 13.4968 2.73663 11.6248 2.465V1.25C11.6248 0.951631 11.5062 0.665483 11.2953 0.454505C11.0843 0.243526 10.7981 0.125 10.4998 0.125C10.2014 0.125 9.91524 0.243526 9.70427 0.454505C9.49329 0.665483 9.37476 0.951631 9.37476 1.25V2.465C7.50267 2.73663 5.79072 3.67251 4.55148 5.10177C3.31224 6.53102 2.62838 8.35831 2.62476 10.25V16.5343L0.704385 18.4546C0.5471 18.612 0.439992 18.8124 0.396604 19.0306C0.353215 19.2488 0.375494 19.4749 0.460623 19.6805C0.545751 19.886 0.689908 20.0617 0.874869 20.1853C1.05983 20.3089 1.27729 20.375 1.49976 20.375ZM4.54514 17.7954C4.75613 17.5844 4.8747 17.2983 4.87476 17V10.25C4.87476 8.75816 5.46739 7.32742 6.52228 6.27252C7.57718 5.21763 9.00792 4.625 10.4998 4.625C11.9916 4.625 13.4223 5.21763 14.4772 6.27252C15.5321 7.32742 16.1248 8.75816 16.1248 10.25V17C16.1248 17.2983 16.2434 17.5844 16.4544 17.7954L16.784 18.125H4.21551L4.54514 17.7954Z" fill="black"/>
</svg>
