<svg width="26" height="26" viewBox="0 0 26 26" fill="none" xmlns="http://www.w3.org/2000/svg">
<g clip-path="url(#clip0_278_616)">
<path d="M25.6274 13.1464L20.7232 11.2962L20.1828 6.32759C20.1538 6.05947 19.9401 5.84624 19.6724 5.81724L14.7038 5.27642L12.8536 0.372578C12.7744 0.163105 12.5809 0.0183786 12.3574 0.00162077C12.1338 -0.015137 11.9209 0.0991208 11.8112 0.294882L4.07494 14.1259L3.92036 13.9713L1.26658 16.6251C0.779082 17.113 0.432907 17.6995 0.228715 18.3302C-0.0774956 19.2766 -0.0698785 20.3175 0.213481 21.3214C0.497196 22.3265 1.05823 23.3 1.87895 24.121C2.9739 25.2149 4.3389 25.849 5.69014 25.9766C6.36543 26.0398 7.03909 25.9754 7.66979 25.7713C8.30009 25.5675 8.88702 25.221 9.37452 24.7335L12.0283 22.0797L11.8737 21.9251L25.7047 14.1885C25.9005 14.0791 26.0151 13.8659 25.9984 13.6427C25.9816 13.4191 25.8369 13.2256 25.6274 13.1464ZM19.6008 11.6336L14.03 15.916L12.3531 14.2391L19.1453 7.44691L19.6008 11.6336ZM11.7606 14.8317L13.3598 16.4313L9.87421 19.1106L8.67795 17.9147L11.7606 14.8317ZM8.08529 17.3217L6.88939 16.1258L9.56871 12.6399L11.1679 14.2391L8.08529 17.3217ZM18.5527 6.8547L11.7606 13.6464L10.084 11.9699L14.3664 6.39884L18.5527 6.8547ZM12.2126 1.93862L13.7026 5.88696L9.48609 11.3724L7.85073 9.737L12.2126 1.93862ZM7.42533 10.4964L8.97081 12.0427L6.29154 15.5282L5.21411 14.4505L7.42533 10.4964ZM8.41135 23.7703C8.08117 24.1001 7.68965 24.3328 7.25009 24.4752C6.59237 24.6893 5.82268 24.6946 5.04801 24.4756C4.27451 24.2578 3.5006 23.8172 2.84207 23.1579C1.96269 22.28 1.47326 21.1961 1.37957 20.1827C1.33163 19.6766 1.38186 19.1891 1.5247 18.75C1.66714 18.3104 1.89988 17.9185 2.22965 17.5887L4.47591 15.3424L10.6575 21.5237L8.41135 23.7703ZM11.5492 20.7859L10.4718 19.7085L13.9577 17.0288L15.5032 18.5744L11.5492 20.7859ZM16.263 18.1493L14.6276 16.5139L20.1127 12.2971L24.0614 13.7874L16.263 18.1493Z" fill="black"/>
</g>
<defs>
<clipPath id="clip0_278_616">
<rect width="26" height="26" fill="white"/>
</clipPath>
</defs>
</svg>
