<svg width="26" height="26" viewBox="0 0 26 26" fill="none" xmlns="http://www.w3.org/2000/svg">
<path d="M21.8668 19.2292C22.3155 19.2292 22.6793 18.8654 22.6793 18.4167C22.6793 17.968 22.3155 17.6042 21.8668 17.6042V19.2292ZM14.6034 23.0351C14.4617 23.4608 14.6919 23.9208 15.1176 24.0626C15.5434 24.2043 16.0035 23.9741 16.1452 23.5484L14.6034 23.0351ZM4.33081 17.6042C3.88207 17.6042 3.51831 17.968 3.51831 18.4167C3.51831 18.8654 3.88207 19.2292 4.33081 19.2292V17.6042ZM10.0524 23.5484C10.1942 23.9741 10.6542 24.2043 11.0799 24.0626C11.5057 23.9208 11.736 23.4608 11.5942 23.0351L10.0524 23.5484ZM6.01897 5.91442C5.90295 5.48094 5.45751 5.22359 5.02404 5.33961C4.59056 5.45562 4.3332 5.90107 4.44922 6.33455L6.01897 5.91442ZM1.76299 12.9869C1.38865 13.2344 1.28578 13.7385 1.53322 14.1127C1.78067 14.4871 2.28473 14.5899 2.65907 14.3425L1.76299 12.9869ZM21.5951 6.33465C21.7111 5.90118 21.4538 5.45572 21.0203 5.3397C20.5868 5.22369 20.1414 5.48105 20.0253 5.91452L21.5951 6.33465ZM23.3853 14.3426C23.7596 14.5901 24.2637 14.4873 24.5111 14.1129C24.7585 13.7386 24.6557 13.2345 24.2813 12.9871L23.3853 14.3426ZM17.4311 4.15597C17.7978 3.89734 17.8854 3.39041 17.6267 3.02371C17.3681 2.657 16.8612 2.56939 16.4945 2.82803L17.4311 4.15597ZM9.33331 2.59636C8.97229 2.32986 8.46358 2.40649 8.19709 2.76753C7.93059 3.12855 8.00722 3.63726 8.36825 3.90375L9.33331 2.59636ZM13.1507 10.8978L15.1403 12.4195L16.1275 11.1287L14.138 9.60707L13.1507 10.8978ZM15.2345 12.7151L14.4531 15.2469L16.0057 15.7262L16.7873 13.1944L15.2345 12.7151ZM14.1956 15.4376H11.7793V17.0625H14.1956V15.4376ZM11.5218 15.2469L10.7404 12.7151L9.18771 13.1944L9.96916 15.7262L11.5218 15.2469ZM10.8347 12.4195L12.8242 10.8978L11.837 9.60707L9.84743 11.1287L10.8347 12.4195ZM21.8668 17.6042H20.1171V19.2292H21.8668V17.6042ZM15.2399 21.1231L14.6034 23.0351L16.1452 23.5484L16.7817 21.6364L15.2399 21.1231ZM20.1171 17.6042C19.383 17.6042 18.7641 17.603 18.2602 17.6606C17.7353 17.7206 17.2536 17.8513 16.8164 18.1668L17.7672 19.4846C17.8968 19.3911 18.0749 19.3173 18.4447 19.275C18.8352 19.2304 19.3456 19.2292 20.1171 19.2292V17.6042ZM16.7817 21.6364C17.0257 20.9036 17.1883 20.4191 17.3542 20.0622C17.5112 19.7242 17.6377 19.5781 17.7672 19.4846L16.8164 18.1668C16.3793 18.4823 16.1032 18.8982 15.8805 19.3774C15.6667 19.8377 15.4721 20.4258 15.2399 21.1231L16.7817 21.6364ZM4.33081 19.2292H6.08049V17.6042H4.33081V19.2292ZM9.41582 21.6364L10.0524 23.5484L11.5942 23.0351L10.9576 21.1231L9.41582 21.6364ZM6.08049 19.2292C6.85206 19.2292 7.36242 19.2304 7.75294 19.275C8.12263 19.3173 8.30078 19.3911 8.43031 19.4846L9.38119 18.1668C8.94395 17.8513 8.4623 17.7206 7.93748 17.6606C7.43347 17.603 6.81459 17.6042 6.08049 17.6042V19.2292ZM10.9576 21.1231C10.7254 20.4258 10.531 19.8377 10.3171 19.3774C10.0944 18.8983 9.81835 18.4823 9.38119 18.1668L8.43031 19.4846C8.55992 19.5781 8.68631 19.7242 8.84338 20.0622C9.00924 20.4191 9.17185 20.9036 9.41582 21.6364L10.9576 21.1231ZM4.44922 6.33455L4.90207 8.02657L6.47182 7.60644L6.01897 5.91442L4.44922 6.33455ZM3.44293 11.8764L1.76299 12.9869L2.65907 14.3425L4.33901 13.2321L3.44293 11.8764ZM4.90207 8.02657C5.10175 8.77264 5.23271 9.26668 5.29074 9.65606C5.3457 10.0248 5.32066 10.2166 5.26385 10.3665L6.78334 10.9425C6.97443 10.4384 6.9759 9.93926 6.89799 9.4165C6.82315 8.91439 6.66184 8.3164 6.47182 7.60644L4.90207 8.02657ZM4.33901 13.2321C4.95164 12.8272 5.46872 12.4868 5.85756 12.1607C6.26245 11.8213 6.59223 11.4467 6.78334 10.9425L5.26385 10.3665C5.20706 10.5163 5.09879 10.6763 4.81345 10.9156C4.51207 11.1682 4.08679 11.4509 3.44293 11.8764L4.33901 13.2321ZM20.0253 5.91452L19.5725 7.60654L21.1423 8.02666L21.5951 6.33465L20.0253 5.91452ZM21.7054 13.2322L23.3853 14.3426L24.2813 12.9871L22.6014 11.8765L21.7054 13.2322ZM19.5725 7.60654C19.3825 8.3165 19.2212 8.91449 19.1463 9.4166C19.0684 9.93935 19.0699 10.4385 19.261 10.9426L20.7805 10.3666C20.7237 10.2167 20.6986 10.0249 20.7536 9.65616C20.8116 9.26678 20.9426 8.77274 21.1423 8.02666L19.5725 7.60654ZM22.6014 11.8765C21.9576 11.451 21.5323 11.1684 21.2309 10.9156C20.9455 10.6764 20.8373 10.5164 20.7805 10.3666L19.261 10.9426C19.4521 11.4468 19.7819 11.8214 20.1868 12.1608C20.5756 12.4869 21.0928 12.8273 21.7054 13.2322L22.6014 11.8765ZM16.4945 2.82803L15.0641 3.83685L16.0007 5.1648L17.4311 4.15597L16.4945 2.82803ZM10.9536 3.79238L9.33331 2.59636L8.36825 3.90375L9.98853 5.09978L10.9536 3.79238ZM15.0641 3.83685C14.4334 4.28171 14.0153 4.575 13.6704 4.7637C13.3438 4.94237 13.1557 4.98474 12.9962 4.98301L12.9787 6.60792C13.5178 6.61375 13.9867 6.44286 14.4503 6.18935C14.8953 5.94587 15.4006 5.58807 16.0007 5.1648L15.0641 3.83685ZM9.98853 5.09978C10.5794 5.53593 11.0768 5.90458 11.5165 6.15763C11.9743 6.4211 12.4395 6.60208 12.9787 6.60792L12.9962 4.98301C12.8368 4.98128 12.6497 4.93485 12.327 4.74916C11.9861 4.55304 11.5746 4.25078 10.9536 3.79238L9.98853 5.09978ZM15.1403 12.4195C15.186 12.4544 15.2182 12.5016 15.2345 12.5548L16.7873 12.0754C16.6737 11.7076 16.448 11.3739 16.1275 11.1287L15.1403 12.4195ZM15.2345 12.5548C15.2503 12.6062 15.2511 12.6616 15.2345 12.7151L16.7873 13.1944C16.9024 12.8212 16.8972 12.4317 16.7873 12.0754L15.2345 12.5548ZM19.7099 9.90392L15.7 11.5644L16.3218 13.0658L20.3316 11.4053L19.7099 9.90392ZM14.138 9.60707C13.7986 9.34746 13.3925 9.2175 12.9875 9.2175V10.8425C13.0454 10.8425 13.1024 10.8608 13.1507 10.8978L14.138 9.60707ZM12.9875 9.2175C12.5824 9.2175 12.1764 9.34746 11.837 9.60707L12.8242 10.8978C12.8725 10.8608 12.9295 10.8425 12.9875 10.8425V9.2175ZM13.8 10.03V5.79546H12.175V10.03H13.8ZM14.4531 15.2469C14.4363 15.3012 14.4043 15.3465 14.3619 15.3798L15.3672 16.6565C15.6622 16.4243 15.8894 16.1034 16.0057 15.7262L14.4531 15.2469ZM14.3619 15.3798C14.3151 15.4167 14.2573 15.4376 14.1956 15.4376V17.0625C14.6319 17.0625 15.0417 16.9129 15.3672 16.6565L14.3619 15.3798ZM17.9065 18.2943L15.4792 15.4867L14.25 16.5496L16.6772 19.357L17.9065 18.2943ZM11.7793 15.4376C11.7176 15.4376 11.6598 15.4167 11.613 15.3798L10.6077 16.6565C10.9333 16.9129 11.3431 17.0625 11.7793 17.0625V15.4376ZM11.613 15.3798C11.5707 15.3465 11.5386 15.3012 11.5218 15.2469L9.96916 15.7262C10.0856 16.1034 10.3127 16.4243 10.6077 16.6565L11.613 15.3798ZM9.54477 19.3275L11.7493 16.52L10.4713 15.5164L8.26672 18.3239L9.54477 19.3275ZM10.7404 12.7151C10.7239 12.6616 10.7246 12.6062 10.7404 12.5548L9.18772 12.0754C9.07776 12.4317 9.07252 12.8212 9.18771 13.1944L10.7404 12.7151ZM10.7404 12.5548C10.7568 12.5016 10.7889 12.4544 10.8347 12.4195L9.84743 11.1287C9.52693 11.3739 9.30125 11.7076 9.18772 12.0754L10.7404 12.5548ZM10.2796 11.5664L6.33913 9.90576L5.70806 11.4032L9.64854 13.0639L10.2796 11.5664Z" fill="#1C274C"/>
<path d="M4.3336 6.49975C5.43647 5.02646 6.93006 3.81478 8.74413 3.03973C14.2446 0.68964 20.6089 3.24359 22.959 8.74413C25.309 14.2446 22.7551 20.6089 17.2546 22.959C11.7541 25.309 5.38982 22.7551 3.03973 17.2546C2.26467 15.4404 2.02301 13.5325 2.24454 11.7055" stroke="#1C274C" stroke-width="1.62654" stroke-linecap="round"/>
</svg>
