<svg width="116" height="63" viewBox="0 0 116 63" fill="none" xmlns="http://www.w3.org/2000/svg">
<rect width="115.075" height="62.1284" fill="#EF3826" fill-opacity="0.44"/>
<path d="M14.1149 7.00002C13.7054 6.99886 13.2996 7.05487 12.921 7.16482C12.5423 7.27477 12.1983 7.43648 11.9087 7.64063C11.6191 7.84478 11.3897 8.08733 11.2338 8.35428C11.0778 8.62123 10.9984 8.90731 11 9.19602V52.9324C10.9984 53.2211 11.0778 53.5071 11.2338 53.7741C11.3897 54.041 11.6191 54.2836 11.9087 54.4877C12.1983 54.6919 12.5423 54.8536 12.921 54.9636C13.2996 55.0735 13.7054 55.1295 14.1149 55.1284H100.985C101.392 55.1272 101.795 55.0695 102.171 54.9585C102.547 54.8475 102.888 54.6855 103.175 54.4815C103.462 54.2776 103.689 54.0359 103.843 53.77C103.998 53.5042 104.076 53.2196 104.075 52.9324V9.19602C104.076 8.90879 103.998 8.62414 103.843 8.35833C103.689 8.09252 103.462 7.85075 103.175 7.64683C102.888 7.44291 102.547 7.28084 102.171 7.16986C101.795 7.05888 101.392 7.00116 100.985 7.00002H14.1149ZM17.205 14.5618C17.205 12.8015 18.8456 11.3745 20.8694 11.3745H50.7829C52.8067 11.3745 54.4473 12.8015 54.4473 14.5618V17.6447C54.4473 19.2036 53.1319 20.4988 51.4404 21.0141C45.9203 22.6957 42.0311 26.5825 42.0311 31.0729C42.0311 35.5626 45.919 39.4394 51.4377 41.1159C53.1306 41.6302 54.4473 42.9258 54.4473 44.4856V47.5665C54.4473 49.3268 52.8067 50.7539 50.7829 50.7539H20.8694C18.8456 50.7539 17.205 49.3268 17.205 47.5665V45.1921C17.205 43.4318 18.8456 42.0048 20.8694 42.0048H26.5311C26.9385 42.0037 27.3416 41.946 27.7174 41.835C28.0932 41.724 28.4343 41.5619 28.7212 41.358C29.0082 41.1541 29.2353 40.9123 29.3898 40.6465C29.5442 40.3807 29.6228 40.0961 29.6212 39.8088V22.3195C29.6228 22.0323 29.5442 21.7477 29.3898 21.4819C29.2353 21.216 29.0082 20.9743 28.7212 20.7704C28.4343 20.5664 28.0932 20.4044 27.7174 20.2934C27.3416 20.1824 26.9385 20.1247 26.5311 20.1235H20.8694C18.8456 20.1235 17.205 18.6965 17.205 16.9362V14.5618ZM60.6523 14.5618C60.6523 12.8015 62.2928 11.3745 64.3166 11.3745H94.2302C96.2539 11.3745 97.8945 12.8015 97.8945 14.5618V16.9362C97.8945 18.6965 96.2539 20.1235 94.2302 20.1235H88.5684C88.161 20.1247 87.7579 20.1824 87.3821 20.2934C87.0063 20.4044 86.6652 20.5664 86.3783 20.7704C86.0913 20.9743 85.8642 21.216 85.7098 21.4819C85.5554 21.7477 85.4767 22.0323 85.4784 22.3195V39.8088C85.4767 40.0961 85.5554 40.3807 85.7098 40.6465C85.8642 40.9123 86.0913 41.1541 86.3783 41.358C86.6652 41.5619 87.0063 41.724 87.3821 41.835C87.7579 41.946 88.161 42.0037 88.5684 42.0048H94.2302C96.2539 42.0048 97.8945 43.4318 97.8945 45.1921V47.5665C97.8945 49.3268 96.2539 50.7539 94.2302 50.7539H64.3166C62.2928 50.7539 60.6523 49.3268 60.6523 47.5665V44.4782C60.6523 42.9198 61.9667 41.6247 63.6579 41.1102C69.1769 39.4312 73.0684 35.5579 73.0684 31.0729C73.0684 26.5878 69.1742 22.7032 63.6561 21.0197C61.9659 20.5041 60.6523 19.2093 60.6523 17.6513V14.5618ZM17.205 27.2037C17.205 25.7118 18.5954 24.5024 20.3106 24.5024C22.0258 24.5024 23.4162 25.7118 23.4162 27.2037V34.9247C23.4162 36.4165 22.0258 37.6259 20.3106 37.6259C18.5954 37.6259 17.205 36.4165 17.205 34.9247V27.2037ZM57.5374 24.5024C58.763 24.4987 59.9777 24.666 61.1112 24.9948C62.2447 25.3236 63.2746 25.8074 64.1416 26.4182C65.0086 27.0291 65.6954 27.7548 66.1626 28.5537C66.6298 29.3526 66.868 30.2088 66.8634 31.0729C66.8672 31.9361 66.6282 32.7912 66.1605 33.5888C65.6927 34.3865 65.0054 35.1109 64.1383 35.7202C63.2711 36.3295 62.2413 36.8116 61.1083 37.1387C59.9753 37.4659 58.7616 37.6314 57.5374 37.6259C56.3146 37.6312 55.1026 37.4652 53.9715 37.1378C52.8405 36.8103 51.8128 36.3278 50.9482 35.7183C50.0836 35.1087 49.3992 34.3842 48.9347 33.5868C48.4703 32.7894 48.2349 31.9349 48.2423 31.0729C48.2345 30.21 48.4694 29.3546 48.9335 28.5561C49.3975 27.7576 50.0815 27.0318 50.9459 26.4208C51.8102 25.8098 52.8378 25.3257 53.9692 24.9964C55.1006 24.6671 56.3133 24.4992 57.5374 24.5024ZM91.6896 27.201C91.6896 25.7106 93.0786 24.5024 94.792 24.5024C96.5055 24.5024 97.8945 25.7106 97.8945 27.201V34.9274C97.8945 36.4177 96.5055 37.6259 94.792 37.6259C93.0786 37.6259 91.6896 36.4177 91.6896 34.9274V27.201Z" fill="#ECECEC" fill-opacity="0.8"/>
<path d="M11 23.574H104.075V38.5544H11V23.574Z" fill="#ED9D95"/>
<path d="M25.3692 27.6028H22.6429V27.8578H23.6835V28.049H24.8122V28.2402H24.7829V28.4315H25.2079V28.6865H23.6103V28.7502H23.3025V28.8394C23.3025 28.8989 23.2878 28.9542 23.2585 29.0052H24.2992C24.2308 29.1242 24.1184 29.1837 23.962 29.1837H21.5289V29.1964H21.6755V29.4514H21.7048V29.7064H21.6315V29.9614H21.441V30.1526H22.1738V30.2801H21.5582V30.4713H21.2358V30.7263H21.7927V30.8538H21.6901V31.1088H21.5875V31.3638H21.4116V31.6188H21.2504V31.81H21.7927V32.0013H21.5729V32.2562H21.6608V32.32H21.7634V32.4475H22.4963V32.6387H21.9979V32.8937H22.2178V33.1487H21.6022V33.4037H21.8514V33.5312H21.954V33.7224H22.1885V33.9774H22.1005V34.1686H21.7195V34.3599H21.6755V34.4874H21.6608V34.6786H21.8221V34.8698H21.6901V35.0228C21.6901 35.0653 21.6853 35.0993 21.6755 35.1248H21.5289C21.4996 35.2098 21.4458 35.2736 21.3677 35.3161H21.397C21.3481 35.3501 21.2797 35.3671 21.1918 35.3671H18.2603C18.1821 35.3671 18.1088 35.3501 18.0404 35.3161H18.0111C17.9427 35.2736 17.889 35.2098 17.8499 35.1248H17.9818C17.972 35.0993 17.9671 35.0653 17.9671 35.0228V34.8698H18.0991V34.6786H17.9378V34.4874H17.9525V34.3599H17.9965V34.1686H18.3776V33.9774H18.4655V33.7224H18.231V33.5312H18.1284V33.4037H17.8792V33.1487H18.4948V32.8937H18.275V32.6387H18.7733V32.4475H18.0404V32.32H17.9378V32.2562H17.8499V32.0013H18.0698V31.81H17.5274V31.6188H17.6887V31.3638H17.8645V31.1088H17.9671V30.8538H18.0698V30.7263H17.5128V30.4713H17.8352V30.2801H18.4508V30.1526H17.718V29.9614H17.9085V29.7064H17.9818V29.4514H17.9525V29.1964H17.8059V29.1837H15.3728C15.2262 29.1837 15.1089 29.1242 15.021 29.0052H13.9803C13.9706 28.9797 13.9608 28.9542 13.951 28.9287C13.9315 28.9032 13.9217 28.8734 13.9217 28.8394V28.7502H14.2295V28.6865H15.8272V28.4315H15.4021V28.2402H15.4314V28.049H14.3028V27.8578H13.2621V27.6028H15.9884V27.4115H14.464V27.1565H14.7572V26.9016H15.1383V26.8378H15.3581V26.7868C15.3581 26.7018 15.3874 26.6338 15.4461 26.5828H15.1236C15.2018 26.4893 15.3093 26.4426 15.4461 26.4426H24.0353C24.1721 26.4426 24.2796 26.4893 24.3578 26.5828H24.6656C24.7145 26.6423 24.7389 26.7103 24.7389 26.7868V26.8378H24.519V26.9016H24.1379V27.1565H23.8448V27.4115H25.3692V27.6028Z" fill="white"/>
<path d="M34.9916 34.6786L35.0942 34.9336H34.8451L34.8744 34.9973C34.8744 35.0058 34.8744 35.0186 34.8744 35.0356C34.8842 35.0441 34.889 35.0526 34.889 35.0611H34.8011V35.0866C34.8011 35.1886 34.7571 35.2651 34.6692 35.3161H34.6838C34.635 35.3501 34.5715 35.3671 34.4933 35.3671H31.7817C31.7133 35.3671 31.6546 35.3628 31.6058 35.3543C31.5667 35.3373 31.5227 35.3246 31.4739 35.3161C31.3957 35.2821 31.3371 35.2438 31.298 35.2013C31.2589 35.1503 31.2296 35.1036 31.21 35.0611H31.2833V35.0483L31.254 34.9973L31.2247 34.9336H31.4739L31.3713 34.6786H31.0928L31.0488 34.5511H31.6498L31.5471 34.2961H31.3713L31.3273 34.2069H28.1759L28.1466 34.2961H27.9707L27.8681 34.5511H27.7069L27.6483 34.6786H27.5603L27.4577 34.9336H27.4724L27.4431 34.9973L27.4284 35.0483L27.4138 35.0611H27.3405C27.3209 35.1036 27.2916 35.1503 27.2525 35.2013C27.2134 35.2438 27.1548 35.2821 27.0766 35.3161H27.5164C27.4773 35.3246 27.4333 35.3373 27.3844 35.3543C27.3356 35.3628 27.277 35.3671 27.2085 35.3671H24.4969C24.4187 35.3671 24.3601 35.3501 24.321 35.3161H23.8813C23.7836 35.2566 23.7347 35.1801 23.7347 35.0866V35.0611H23.8227C23.8227 35.0356 23.8276 35.0143 23.8373 34.9973L23.852 34.9336H23.8373L23.9399 34.6786H24.0279L24.0865 34.5511H24.2477L24.3503 34.2961H24.5116L24.6142 34.0411H24.0425L24.1012 33.9136H24.0572L24.1305 33.7224H24.2771L24.3064 33.6587H23.9839L24.0865 33.4037H24.5849L24.6288 33.2762H24.1745L24.2038 33.2124H24.2771L24.3797 32.9574H24.3357L24.409 32.7662H24.4676L24.5702 32.5112H24.7608L24.834 32.32L24.8634 32.2562H25.5962L25.6255 32.1925H25.5816L25.6549 32.0013H24.834L24.9366 31.7463H25.2005L25.2298 31.6825H25.0686L25.0979 31.6188H25.5669L25.6695 31.3638H25.0979L25.1565 31.2363H25.3764L25.479 30.9813H25.3471L25.4203 30.7901H25.5816L25.6842 30.5351H25.6402L25.6695 30.4713H25.3324L25.391 30.3439H25.7135L25.7868 30.1526H25.6402L25.6549 30.0889H25.9187L26.0213 29.8339H25.6988L25.7721 29.6426H25.6109L25.6549 29.5152H24.6435L24.6875 29.3877H24.4969L24.5995 29.1327H24.409L24.4969 28.9414H25.0686L25.1712 28.6865H26.6369L26.7102 28.4952H26.0066L26.0653 28.3677H26.6076L26.7102 28.1127H26.2265L26.2998 27.9215H26.6076L26.7102 27.6665H26.6662L26.7688 27.4115H26.3584L26.3731 27.3478H27.7802L27.8828 27.0928H27.8388L27.8681 27.0291H27.3551L27.4138 26.8633L27.4577 26.7741H27.6043L27.6922 26.6466H27.6483C27.6971 26.5871 27.7655 26.5403 27.8535 26.5063C27.9414 26.4638 28.0489 26.4426 28.1759 26.4426H31.3566C31.4836 26.4426 31.5911 26.4638 31.6791 26.5063C31.767 26.5403 31.8354 26.5871 31.8843 26.6466H31.9429L32.0308 26.7741H31.8843C31.9038 26.8081 31.9136 26.8378 31.9136 26.8633L31.9869 27.0291H32.4999L32.5145 27.0928H32.5585L32.6611 27.3478H31.2687L31.298 27.4115H31.7084L31.811 27.6665H31.855L31.9576 27.9215H31.6498L31.723 28.1127H32.2067L32.3093 28.3677H31.767L31.8256 28.4952H32.5292L32.6025 28.6865H31.1367L31.2393 28.9414H30.6677L30.741 29.1327H30.9169L31.0195 29.3877H30.4478L30.5065 29.5152H32.837L32.881 29.6426H32.7637L32.837 29.8339H32.5439L32.6465 30.0889H32.2947L32.3093 30.1526H32.837L32.9103 30.3439H32.9249L32.9836 30.4713H32.4999L32.5292 30.5351H32.9982L33.1008 30.7901H33.2621L33.3354 30.9813H33.2914L33.394 31.2363H33.6285L33.6871 31.3638H33.2621L33.3647 31.6188H33.6578L33.6725 31.6825H33.5992L33.6285 31.7463H33.3647L33.4526 32.0013H34.2881L34.3614 32.1925H34.4053L34.4347 32.2562H33.6871L33.7164 32.32H33.7311L33.8044 32.5112H33.6138L33.7164 32.7662H33.6432L33.7311 32.9574H33.7751L33.8777 33.2124H33.8044L33.8337 33.2762H34.2881L34.3467 33.4037H33.8337L33.9363 33.6587H34.2588L34.2881 33.7224H34.1415L34.2295 33.9136H34.2588L34.3174 34.0411H34.889L34.9916 34.2961H35.1675L35.2701 34.5511H34.6692L34.7132 34.6786H34.9916ZM28.8648 29.6426H29.0407L28.9674 29.8339H29.5684L29.4951 29.6426H29.6124L29.5684 29.5152H28.9088L28.8648 29.6426ZM29.3485 30.0889L29.2752 29.8721L29.202 30.0889H29.3485ZM28.4691 31.6188L28.4398 31.6825H28.601L28.5863 31.7208H30.2426L30.228 31.6825H30.3013L30.2866 31.6188H29.9935L29.9055 31.3638H30.3306L30.2866 31.2363H30.0374L29.9495 30.9813H29.9935L29.9348 30.7901H29.7736L29.6857 30.5351H29.2166L29.1873 30.4713H29.671L29.627 30.3439H29.6124L29.5391 30.1526H29.07L29.0114 30.3439H28.6889L28.645 30.4713H28.9674L28.9528 30.5351H28.9968L28.9088 30.7901H28.7476L28.6743 30.9813H28.8062L28.7183 31.2363H28.4984L28.4544 31.3638H29.0261L28.9381 31.6188H28.4691Z" fill="white"/>
<path d="M46.2322 34.6786H46.3055V34.8061H45.9244V35.0611H44.957C44.957 35.0951 44.9472 35.1291 44.9277 35.1631C44.9081 35.1971 44.8886 35.2268 44.869 35.2523H44.3707C44.3316 35.2863 44.3023 35.3076 44.2827 35.3161H44.869C44.8202 35.3501 44.7518 35.3671 44.6638 35.3671H42.348C42.2893 35.3671 42.2356 35.3628 42.1867 35.3543C42.1379 35.3373 42.0939 35.3246 42.0548 35.3161H41.4539C41.4148 35.2991 41.3757 35.2778 41.3366 35.2523H41.835C41.7861 35.2183 41.747 35.1843 41.7177 35.1503C41.6884 35.1163 41.6639 35.0908 41.6444 35.0738V35.0611H42.5971L42.4066 34.8061H42.7877L42.6851 34.6786H42.6118L42.4652 34.4874H40.7796L40.5744 34.2324H40.7943L40.6037 33.9774H40.0907L40.0321 33.9136H40.7063L40.5598 33.7224H40.8676L40.721 33.5312H40.12L39.9295 33.2762H40.8529L40.8089 33.2124H40.3252L40.2373 33.0849H39.7829L39.5924 32.83H39.3432L39.2992 32.7662H39.9735L39.8269 32.575H39.0647V32.7662H38.3318V32.83H39.3285V33.0849H39.4751V33.2124H39.4898V33.2762H39.0647V33.5312H38.3758V33.7224H39.182V33.9136H39.0354V33.9774H38.8595V34.2324H39.182V34.4874H39.3139V34.6786H38.7129V34.8061H39.2259V35.0611H38.581C38.581 35.0951 38.5712 35.1291 38.5517 35.1631C38.5321 35.1971 38.5126 35.2268 38.4931 35.2523H38.9621C38.923 35.2863 38.8937 35.3076 38.8742 35.3161H38.4198C38.3709 35.3501 38.3025 35.3671 38.2146 35.3671H35.5616C35.4639 35.3671 35.3906 35.3501 35.3417 35.3161H35.8107C35.7912 35.3076 35.7619 35.2863 35.7228 35.2523H35.2391C35.2196 35.2268 35.2 35.1971 35.1805 35.1631C35.1609 35.1291 35.1512 35.0951 35.1512 35.0611H35.7814V34.8061H35.2684V34.6786H35.8694V34.4874H35.7375V34.2324H35.415V33.9774H35.5909V33.9136H35.7375V33.7224H34.9313V33.5312H35.6202V33.2762H36.0453V33.2124H36.0306V33.0849H35.884V32.83H34.8873V32.7662H35.6202V32.575H36.3238V32.5112H35.5469V32.4475H35.8401V32.1925H35.6055V31.9375H35.6202V31.8738H35.5029V31.81H35.5176V31.6188H34.9606V31.555H35.3417V31.4275H34.4769V31.1726H35.928V31.0451H35.0046V30.7901H35.5323V30.7263H35.6202V30.5351H35.884V30.4076H36.0159V30.2164H35.6349V30.1526H35.4883V30.0251H35.3417V29.7701H35.6202V29.5789H36.0159V29.4514H36.9394V29.3877H35.7961V29.3239H35.415V29.1327H35.2538V28.9414H35.5176V28.6865H35.8987V28.4952H36.2651V28.3677H35.5323V28.304H35.6202V28.049H35.9573V27.9852H35.2684V27.8578H35.6935V27.6028H35.1365V27.4115H35.5029V27.284H34.1984V27.0928H33.9199V26.9653H34.902V26.7868C34.902 26.7528 34.9069 26.7273 34.9166 26.7103H35.8987C35.8987 26.6763 35.9182 26.6338 35.9573 26.5828H35.6935C35.7717 26.4893 35.8791 26.4426 36.0159 26.4426H38.3318C38.4393 26.4426 38.5321 26.4553 38.6103 26.4808C38.6885 26.5063 38.752 26.5403 38.8009 26.5828H39.0647C39.1038 26.6168 39.1429 26.6593 39.182 26.7103H38.1999C38.1999 26.7188 38.1999 26.7231 38.1999 26.7231C38.2097 26.7231 38.2146 26.7273 38.2146 26.7358L38.3758 26.9653H37.3937L37.4817 27.0928H37.7602L37.8921 27.284H39.1966L39.2846 27.4115H38.9328L39.0647 27.6028H39.607L39.7976 27.8578H39.3725L39.4604 27.9852H40.1493L40.1933 28.049H39.8562L40.0321 28.304H39.9441L39.9881 28.3677H40.721L40.8089 28.4952H40.4425L40.5891 28.6865H40.208L40.3839 28.9414H40.1054L40.2373 29.1327H40.3985L40.5451 29.3239H40.9262L40.9702 29.3877H41.19V29.3239H41.6297V29.1327H41.2047V28.9414H41.3073V28.6865H41.6004V28.4952H41.9522V28.3677H41.2487V28.049H42.1134V27.9852H42.0988V27.8578H41.1754V27.6028H41.4978V27.4115H41.9229V27.284H41.0288V27.0928H42.1721V26.9653H42.0841V26.7868C42.0841 26.7528 42.089 26.7273 42.0988 26.7103H41.6151C41.6249 26.6763 41.6493 26.6338 41.6884 26.5828H41.19C41.2682 26.4893 41.3757 26.4426 41.5125 26.4426H44.1655C44.3023 26.4426 44.4098 26.4893 44.4879 26.5828H44.9863C45.0058 26.6168 45.0254 26.6593 45.0449 26.7103H45.5286V26.9653H45.6166V27.0928H44.4733V27.284H45.3674V27.4115H44.9423V27.6028H44.6199V27.8578H45.5433V27.9852H45.5579V28.049H44.6932V28.3677H45.3967V28.4952H45.0449V28.6865H44.7518V28.9414H44.6492V29.1327H45.0742V29.3239H44.6345V29.3877H45.6605V29.4514H45.1182V29.5789H44.9716V29.7701H44.4879V30.0251H43.9896V30.1526H44.7518V30.2164H45.2501V30.4076H45.1182V30.5351H44.8544V30.7263H44.7664V30.7901H44.2388V31.0451H45.1622V31.1726H43.7111V31.4275H44.5759V31.555H44.1948V31.6188H44.7518V31.81H44.7371V31.8738H45.2062V31.9375H44.8837V32.1925H44.913V32.4475H45.3234V32.5112H44.6199V32.575H45.0449V32.7662H44.3707V32.83H44.6052V33.0849H45.0596V33.2124H45.5433V33.2762H44.6052V33.5312H45.2062V33.7224H44.8984V33.9136H44.2388V33.9774H44.7518V34.2324H44.5319V34.4874H46.2322V34.6786ZM42.216 29.3877H42.1134L42.1574 29.4514H42.216V29.3877ZM41.234 29.4514L41.3219 29.5789H40.9262L41.0581 29.7701H41.5271V29.5789H41.6737V29.4514H41.234ZM41.0435 29.7701H40.7796L40.9555 30.0251H41.0435V29.7701ZM40.0614 32.5112L40.0174 32.4475H39.607L39.4165 32.1925H39.3725L39.182 31.9375H39.5044L39.4458 31.8738H39.0647V31.9375H39.05V32.1925H39.2846V32.4475H38.9914V32.5112H40.0614Z" fill="white"/>
<path d="M58.2334 34.1049H57.6325L57.5005 34.2324H59.7431C59.7334 34.2409 59.7236 34.2494 59.7138 34.2579C59.704 34.2664 59.6894 34.2791 59.6698 34.2961H56.2107C56.1618 34.3386 56.1081 34.3811 56.0495 34.4236C56.0006 34.4661 55.9469 34.5086 55.8882 34.5511H56.9582L56.7677 34.6786H58.7611L58.6438 34.7423H57.779C57.7693 34.7508 57.7497 34.7593 57.7204 34.7678C57.7009 34.7763 57.6813 34.7891 57.6618 34.8061H56.6797L56.2693 34.9973H56.841C56.7139 35.0483 56.5869 35.0951 56.4599 35.1376C56.3328 35.1716 56.2009 35.2098 56.0641 35.2523H55.5364C55.2042 35.3373 54.8427 35.4011 54.4518 35.4436H54.5251C54.3687 35.4605 54.2075 35.4733 54.0414 35.4818C53.8753 35.4903 53.7092 35.4945 53.543 35.4945C53.3574 35.4945 53.1717 35.4903 52.9861 35.4818C52.8102 35.4733 52.6392 35.4605 52.473 35.4436H52.4144C51.9942 35.4011 51.618 35.3373 51.2858 35.2523H51.8135C51.6669 35.2098 51.5301 35.1716 51.4031 35.1376C51.276 35.0951 51.149 35.0483 51.022 34.9973H50.4503C50.3819 34.9633 50.3135 34.9336 50.2451 34.9081C50.1767 34.8741 50.1083 34.8401 50.0399 34.8061H51.0366L50.9194 34.7423H51.7841C51.7744 34.7253 51.7597 34.7126 51.7402 34.7041C51.7206 34.6956 51.7011 34.6871 51.6815 34.6786H49.6881C49.649 34.6616 49.6148 34.6403 49.5855 34.6148C49.5562 34.5894 49.5269 34.5681 49.4976 34.5511H48.4129C48.3641 34.5086 48.3152 34.4661 48.2664 34.4236C48.2077 34.3811 48.154 34.3386 48.1051 34.2961H51.5643C51.5545 34.2791 51.5447 34.2664 51.535 34.2579C51.5252 34.2494 51.5154 34.2409 51.5057 34.2324H49.2631C49.224 34.1984 49.1849 34.1559 49.1458 34.1049H49.7468C49.737 34.0879 49.7272 34.0751 49.7174 34.0666C49.7077 34.0581 49.6979 34.0496 49.6881 34.0411H51.5203L51.3884 33.8499H50.4796L50.4357 33.7862H48.369C48.3592 33.7522 48.3445 33.7224 48.325 33.6969C48.3054 33.6629 48.2859 33.6289 48.2664 33.5949H49.2484L49.1605 33.4037H48.8087L48.7794 33.3399H48.9406C48.9308 33.3059 48.9211 33.2762 48.9113 33.2507C48.9015 33.2167 48.8917 33.1827 48.882 33.1487H48.7647C48.7647 33.1147 48.7598 33.0849 48.7501 33.0594C48.7501 33.0254 48.7452 32.9914 48.7354 32.9574H48.6181C48.6181 32.9235 48.6133 32.8937 48.6035 32.8682C48.6035 32.8427 48.6035 32.813 48.6035 32.779V32.7662H48.5888C48.5888 32.7492 48.5888 32.7365 48.5888 32.728C48.5986 32.7195 48.6035 32.711 48.6035 32.7025H48.9406C48.9895 32.5665 49.0921 32.4985 49.2484 32.4985H52.0333C52.1897 32.4985 52.3069 32.5155 52.3851 32.5495C52.4633 32.5835 52.5512 32.6345 52.6489 32.7025H52.3118L52.3265 32.7152C52.346 32.7237 52.3607 32.7322 52.3704 32.7407C52.39 32.7492 52.4046 32.7577 52.4144 32.7662H52.4291C52.5561 32.8512 52.7124 32.915 52.8981 32.9574H53.03C53.1571 32.9914 53.3281 33.0084 53.543 33.0084C53.6701 33.0084 53.7873 33.0042 53.8948 32.9957C54.0023 32.9872 54.0951 32.9744 54.1733 32.9574H54.1293C54.3541 32.915 54.4958 32.8512 54.5544 32.7662H54.5251C54.5446 32.7322 54.5544 32.711 54.5544 32.7025H54.701L54.7156 32.6515C54.7156 32.575 54.6814 32.507 54.613 32.4475H54.4958C54.4078 32.371 54.2515 32.3072 54.0267 32.2562H53.9828C53.8948 32.2307 53.7922 32.2095 53.675 32.1925C53.5577 32.167 53.4209 32.1457 53.2645 32.1287H53.1766L52.5756 32.0523C52.5072 32.0438 52.4388 32.0353 52.3704 32.0268C52.3118 32.0183 52.2483 32.0098 52.1799 32.0013C51.7793 31.9418 51.3933 31.8568 51.022 31.7463H50.7581C50.6213 31.7038 50.4943 31.6613 50.377 31.6188H50.1718C50.123 31.6018 50.0741 31.5848 50.0253 31.5678C49.9764 31.5423 49.9275 31.5168 49.8787 31.4913H48.6035C48.5351 31.4573 48.4716 31.4275 48.4129 31.402C48.3543 31.368 48.2957 31.334 48.237 31.3H50.9633C50.9145 31.266 50.8656 31.2363 50.8168 31.2108C50.7777 31.1768 50.7337 31.1428 50.6848 31.1088H47.768C47.7387 31.0918 47.7143 31.0706 47.6947 31.0451C47.6654 31.0196 47.641 30.9983 47.6214 30.9813H48.3836C48.2957 30.8963 48.2126 30.8113 48.1344 30.7263H48.3543L48.2664 30.5988H46.8592C46.8495 30.5818 46.8397 30.5691 46.8299 30.5606C46.8202 30.5521 46.8153 30.5436 46.8153 30.5351H50.1572C50.1376 30.5011 50.1181 30.4713 50.0985 30.4458C50.079 30.4119 50.0595 30.3779 50.0399 30.3439H47.4749L47.3869 30.1526H49.4536L49.4243 30.0889H48.8087L48.7794 30.0251H49.0725C49.0725 30.0081 49.0676 29.9954 49.0579 29.9869C49.0579 29.9784 49.0579 29.9699 49.0579 29.9614H48.9992L48.9553 29.8339H48.8673L48.8527 29.7064H48.8233V29.6426H48.3543C48.3445 29.6256 48.3396 29.6044 48.3396 29.5789C48.3396 29.5534 48.3396 29.5322 48.3396 29.5152H47.9146L47.8999 29.3877H49.5709C49.5611 29.3707 49.5562 29.3494 49.5562 29.3239C49.5562 29.2984 49.5562 29.2772 49.5562 29.2602H49.7907V29.2474C49.7907 29.2049 49.7907 29.1624 49.7907 29.1199C49.7907 29.0774 49.7956 29.0392 49.8054 29.0052H49.1751C49.1849 28.9712 49.1898 28.9414 49.1898 28.9159C49.1898 28.8819 49.1947 28.8479 49.2044 28.8139H50.2305C50.2305 28.7969 50.2305 28.7842 50.2305 28.7757C50.2402 28.7672 50.2451 28.7587 50.2451 28.7502H49.2044C49.224 28.6992 49.2338 28.6567 49.2338 28.6227H49.0725L49.1165 28.4952H48.8673C48.8966 28.4017 48.9308 28.3167 48.9699 28.2402H49.0872L49.1458 28.1127H49.307L49.439 27.9215H49.2924C49.3217 27.8875 49.3461 27.8578 49.3657 27.8323C49.395 27.7983 49.4194 27.7643 49.439 27.7303H49.3217L49.4976 27.539H49.8054C49.8152 27.522 49.8249 27.5093 49.8347 27.5008C49.8445 27.4923 49.8542 27.4838 49.864 27.4753H49.4536C49.4927 27.4413 49.5318 27.4115 49.5709 27.386C49.61 27.352 49.649 27.318 49.6881 27.284H49.9226C49.9813 27.2415 50.0399 27.199 50.0985 27.1565C50.1572 27.1055 50.2207 27.0631 50.2891 27.0291H50.5529C50.6116 26.9951 50.6702 26.9653 50.7288 26.9398C50.7874 26.9058 50.851 26.8718 50.9194 26.8378H50.8754C50.8949 26.8208 50.9194 26.8081 50.9487 26.7996C50.978 26.7911 51.0024 26.7826 51.022 26.7741H50.8168C50.8363 26.7571 50.8607 26.7443 50.89 26.7358C50.9194 26.7273 50.9487 26.7188 50.978 26.7103H50.8314C50.9682 26.6593 51.1099 26.6126 51.2565 26.5701C51.4128 26.5276 51.5692 26.4893 51.7255 26.4553H51.9454C52.1701 26.4128 52.4046 26.3788 52.6489 26.3533C52.903 26.3278 53.1668 26.3151 53.4404 26.3151C53.9583 26.3151 54.4469 26.3618 54.9062 26.4553H54.701C55.0137 26.5148 55.3166 26.5998 55.6097 26.7103H55.7417C55.771 26.7188 55.8003 26.7273 55.8296 26.7358C55.8589 26.7443 55.8882 26.7571 55.9175 26.7741H56.1227C56.1423 26.7826 56.1667 26.7911 56.196 26.7996C56.2253 26.8081 56.2498 26.8208 56.2693 26.8378H56.3133C56.3817 26.8718 56.4452 26.9058 56.5038 26.9398C56.5722 26.9653 56.6358 26.9951 56.6944 27.0291H56.4452C56.5234 27.0631 56.5918 27.1055 56.6504 27.1565C56.7188 27.199 56.7823 27.2415 56.841 27.284H56.6211L56.8556 27.4753H57.266L57.3393 27.539H57.0315C57.0706 27.573 57.1048 27.607 57.1341 27.641C57.1732 27.6665 57.2074 27.6963 57.2367 27.7303H57.354L57.5299 27.9215H57.6618L57.7937 28.1127H57.6325C57.6618 28.1552 57.6862 28.1977 57.7057 28.2402H57.5885C57.6178 28.2827 57.6422 28.3252 57.6618 28.3677C57.6813 28.4102 57.7009 28.4527 57.7204 28.4952H57.9696C57.9891 28.5462 57.9989 28.5887 57.9989 28.6227H58.1748C58.1846 28.6397 58.1894 28.661 58.1894 28.6865C58.1894 28.712 58.1943 28.7332 58.2041 28.7502H59.2448V28.8139H58.3067C58.3165 28.8479 58.3214 28.8947 58.3214 28.9542V29.0052H57.779C57.74 29.1582 57.6422 29.2347 57.4859 29.2347H54.5544C54.4176 29.2347 54.3052 29.2177 54.2173 29.1837C54.1391 29.1497 54.056 29.0987 53.9681 29.0307L53.9241 29.0052H54.4665C54.4176 28.9712 54.3492 28.9372 54.2613 28.9032C54.1733 28.8607 54.0609 28.8309 53.9241 28.8139H53.3965C53.1913 28.8394 53.0496 28.9032 52.9714 29.0052H53.6017C53.5724 29.0562 53.5577 29.1072 53.5577 29.1582C53.5577 29.2007 53.5626 29.2347 53.5724 29.2602H53.3525C53.3623 29.3027 53.4013 29.3452 53.4697 29.3877H51.8135C51.8721 29.4302 51.9747 29.4727 52.1213 29.5152H52.5463C52.6245 29.5407 52.7173 29.5662 52.8248 29.5917C52.9421 29.6086 53.0642 29.6256 53.1913 29.6426H53.6603C53.7385 29.6511 53.8215 29.6596 53.9095 29.6681C53.9974 29.6766 54.0902 29.6894 54.188 29.7064H54.2026C54.3687 29.7234 54.53 29.7446 54.6863 29.7701C54.8427 29.7871 54.9892 29.8084 55.126 29.8339H55.214C55.3312 29.8509 55.4387 29.8721 55.5364 29.8976C55.6439 29.9146 55.7465 29.9359 55.8443 29.9614H55.9029C55.9517 29.9699 55.9957 29.9784 56.0348 29.9869C56.0739 29.9954 56.113 30.0081 56.1521 30.0251H55.8736C55.9127 30.0336 55.9469 30.0421 55.9762 30.0506C56.0153 30.0591 56.0543 30.0719 56.0934 30.0889H56.709C56.7384 30.0974 56.7677 30.1059 56.797 30.1144C56.8361 30.1229 56.8703 30.1356 56.8996 30.1526H54.8329C55.0283 30.2206 55.1847 30.2844 55.3019 30.3439H57.867C57.9256 30.3779 57.9842 30.4119 58.0429 30.4458C58.1015 30.4713 58.1552 30.5011 58.2041 30.5351H54.8622C54.8817 30.5436 54.9013 30.5521 54.9208 30.5606C54.9404 30.5691 54.955 30.5818 54.9648 30.5988H56.3719C56.4012 30.6158 56.4306 30.6371 56.4599 30.6626C56.4892 30.6881 56.5136 30.7093 56.5332 30.7263H56.3133C56.411 30.8028 56.4941 30.8878 56.5625 30.9813H55.8003C55.8198 30.9983 55.8394 31.0196 55.8589 31.0451C55.8785 31.0706 55.8931 31.0918 55.9029 31.1088H58.8051L58.937 31.3H56.2107C56.2302 31.334 56.2498 31.368 56.2693 31.402C56.2889 31.4275 56.3035 31.4573 56.3133 31.4913H57.5738L57.6178 31.6188H57.823L57.867 31.7463H58.1308C58.1504 31.7803 58.1601 31.8228 58.1601 31.8738C58.1699 31.9163 58.1797 31.9588 58.1894 32.0013L58.2041 32.1287H58.292C58.3018 32.1457 58.3067 32.167 58.3067 32.1925C58.3067 32.218 58.3067 32.2392 58.3067 32.2562H58.3507V32.4475H58.4826V32.4857C58.4826 32.5197 58.4777 32.5537 58.4679 32.5877C58.4679 32.6217 58.4679 32.66 58.4679 32.7025H58.3214V32.7662H58.3507C58.3507 32.8002 58.3458 32.8342 58.336 32.8682C58.336 32.8937 58.3311 32.9235 58.3214 32.9574H58.3653L58.3214 33.1487H58.4386C58.4289 33.1827 58.4191 33.2167 58.4093 33.2507C58.3995 33.2762 58.3849 33.3059 58.3653 33.3399H58.2041C58.2041 33.3484 58.1992 33.3569 58.1894 33.3654C58.1894 33.3739 58.1894 33.3867 58.1894 33.4037H58.5412L58.4533 33.5949H57.4712C57.4615 33.6289 57.4419 33.6629 57.4126 33.6969C57.3931 33.7224 57.3735 33.7522 57.354 33.7862H59.4207L59.3767 33.8499H60.2708C60.2513 33.8839 60.2268 33.9179 60.1975 33.9519C60.178 33.9774 60.1535 34.0071 60.1242 34.0411H58.292C58.2823 34.0496 58.2725 34.0581 58.2627 34.0666C58.253 34.0751 58.2432 34.0879 58.2334 34.1049ZM54.4225 28.8139H54.8622C54.8329 28.8054 54.7987 28.8012 54.7596 28.8012C54.7303 28.8012 54.6961 28.8012 54.657 28.8012C54.6179 28.8012 54.5788 28.8012 54.5397 28.8012C54.5007 28.8012 54.4616 28.8054 54.4225 28.8139Z" fill="white"/>
<path d="M68.6587 29.6426H68.4975V29.8339H68.8346V29.8976H68.7027L68.6587 30.1526H68.82C68.8102 30.1696 68.8053 30.1909 68.8053 30.2164H68.6001C68.5903 30.2589 68.5806 30.3014 68.5708 30.3439C68.561 30.3864 68.5464 30.4289 68.5268 30.4713C68.5268 30.5053 68.5171 30.5478 68.4975 30.5988H68.3509L68.263 30.7901H68.2483C68.2386 30.8326 68.219 30.8751 68.1897 30.9176C68.1604 30.9601 68.136 31.0026 68.1164 31.0451H68.1457L68.1018 31.1088H68.2337C68.2044 31.1513 68.1751 31.1938 68.1457 31.2363C68.1164 31.2788 68.0822 31.3213 68.0431 31.3638H68.1457C68.1067 31.4063 68.0627 31.4488 68.0138 31.4913C67.9747 31.5338 67.9308 31.5763 67.8819 31.6188H67.8526C67.794 31.6613 67.7353 31.7038 67.6767 31.7463C67.6278 31.7888 67.5692 31.8313 67.5008 31.8738H67.4129C67.3347 31.9163 67.2516 31.9588 67.1637 32.0013C67.0855 32.0438 67.0025 32.0863 66.9145 32.1287H66.9585C66.9389 32.1372 66.9145 32.1457 66.8852 32.1542C66.8559 32.1627 66.8315 32.1755 66.8119 32.1925H66.7973C66.6116 32.269 66.4064 32.3327 66.1816 32.3837C66.0742 32.4092 65.9618 32.4347 65.8445 32.4602C65.7273 32.4772 65.61 32.4942 65.4927 32.5112H65.4781C65.0872 32.5622 64.6719 32.5877 64.2322 32.5877H63.2062V32.7025H63.3088V32.9574H63.4847V33.0212H63.1329V33.1487H63.2648V33.3399H62.8984V33.4037H63.3528V33.6587H63.2208V33.9774H63.2795V34.1686H63.1036V34.4236H63.0303V34.5511H63.514V34.7423H63.1036V34.9973H63.3821V35.0228C63.3821 35.0653 63.3772 35.0993 63.3674 35.1248H63.2795C63.2795 35.1333 63.2697 35.1546 63.2502 35.1886H63.2941C63.2844 35.2056 63.2648 35.2268 63.2355 35.2523H63.2502C63.2111 35.2863 63.1818 35.3076 63.1622 35.3161H63.1769C63.128 35.3501 63.0596 35.3671 62.9717 35.3671H59.9522C59.8643 35.3671 59.7959 35.3501 59.747 35.3161H59.7177C59.6982 35.3076 59.6689 35.2863 59.6298 35.2523C59.62 35.2353 59.6102 35.2226 59.6005 35.2141C59.5907 35.2056 59.5858 35.1971 59.5858 35.1886H59.5418C59.5223 35.1546 59.5125 35.1333 59.5125 35.1248H59.5858C59.576 35.0993 59.5711 35.0653 59.5711 35.0228V34.9973H59.2926V34.7423H59.7031V34.5511H59.2194V34.4236H59.2926V34.1686H59.4685V33.9774H59.4099V33.6587H59.5418V33.4037H59.0874V33.3399H59.4539V33.1487H59.322V33.0212H59.6737V32.9574H59.4979V32.7025H59.3952V32.5112H59.4099V32.1287H59.3806V31.8738H59.4685V31.6188H59.5125V31.3638H59.4099V31.1088H59.278V31.0451H59.2487V30.7901H59.2633V30.5988H59.4099V30.2164H59.3659V30.1526H59.322V29.8976H59.4832V29.8339H59.4246V29.6426H59.4832V29.5152H59.4685V29.3877H59.0581V29.1327H57.4312V28.9414H58.1787V28.6865H59.5125V28.559H58.9555V28.304H58.6184V28.1127H58.8383V28.049H58.5305V27.794H59.6591V27.7303H59.5125V27.539H59.1754V27.3478H58.7063V27.0928H59.7617V26.9016H59.2487V26.8378H59.1461V26.7741H59.4099C59.4099 26.7401 59.4197 26.6976 59.4392 26.6466H59.278C59.2878 26.6211 59.3024 26.5998 59.322 26.5828C59.3415 26.5573 59.361 26.5361 59.3806 26.5191H60.2747C60.3529 26.4681 60.4359 26.4426 60.5239 26.4426H64.9651C65.395 26.4426 65.7908 26.4681 66.1523 26.5191H65.2729C65.3901 26.5361 65.5025 26.5573 65.61 26.5828C65.7273 26.5998 65.8347 26.6211 65.9325 26.6466H66.1084C66.1865 26.6636 66.2598 26.6848 66.3282 26.7103C66.4064 26.7273 66.4797 26.7486 66.5481 26.7741H66.2842C66.3136 26.7826 66.3429 26.7911 66.3722 26.7996C66.4015 26.8081 66.4308 26.8208 66.4601 26.8378H66.5481L66.7093 26.9016H67.237L67.6181 27.0928H66.5481C66.6263 27.1268 66.6947 27.1693 66.7533 27.2203C66.8119 27.2628 66.8705 27.3053 66.9292 27.3478H67.3982L67.6181 27.539H67.9552C67.9845 27.573 68.0138 27.607 68.0431 27.641C68.0822 27.6665 68.1115 27.6963 68.1311 27.7303H68.2777C68.307 27.7558 68.3265 27.777 68.3363 27.794H67.2077C67.237 27.828 67.2663 27.8705 67.2956 27.9215C67.3249 27.964 67.3542 28.0065 67.3836 28.049H67.6914L67.7207 28.1127H67.5155L67.6034 28.304H67.9552L68.0431 28.559H68.6001L68.6441 28.6865H67.3103C67.3298 28.7205 67.3396 28.763 67.3396 28.8139C67.3493 28.8564 67.3591 28.8989 67.3689 28.9414H69.245C69.2548 28.9754 69.2597 29.0094 69.2597 29.0434C69.2597 29.0689 69.2646 29.0987 69.2744 29.1327H69.2011C69.2108 29.1752 69.2157 29.2177 69.2157 29.2602C69.2255 29.3027 69.2304 29.3452 69.2304 29.3877H68.6587V29.6426ZM64.9797 29.8339H64.6426L64.6866 29.6426H64.8478V29.5152C64.8478 29.4982 64.8478 29.4769 64.8478 29.4514C64.8478 29.4259 64.8429 29.4047 64.8332 29.3877H65.4048C65.395 29.3452 65.3853 29.3027 65.3755 29.2602C65.3657 29.2092 65.3511 29.1667 65.3315 29.1327H65.3901C65.3706 29.0647 65.3217 29.0009 65.2436 28.9414H63.3674C63.2502 28.8564 63.1085 28.8139 62.9423 28.8139H61.9163V28.9414H61.1688V29.1327H62.7958V29.3877H63.2062V29.5152H63.2208V29.6426H63.1622V29.8339H63.2208V29.8976H63.0596V30.1526H63.1036V30.2164H63.1475V30.2291H64.1736C64.2322 30.2291 64.2762 30.2249 64.3055 30.2164H64.5107C64.5498 30.2079 64.584 30.1994 64.6133 30.1909C64.6426 30.1739 64.6719 30.1611 64.7012 30.1526H64.5547C64.6719 30.0931 64.7599 30.0081 64.8185 29.8976H64.9504C64.97 29.8636 64.9797 29.8424 64.9797 29.8339Z" fill="white"/>
<path d="M79.0813 30.4713H79.8142V30.7263H79.6823V30.9813H79.5504V31.1726H79.2426V31.2363H79.3598V31.3H78.9494V31.4275H79.653V31.6188H79.2279V31.6825H79.2426C79.2426 31.725 79.2377 31.7675 79.2279 31.81C79.2279 31.8525 79.2279 31.895 79.2279 31.9375H79.2132C79.2035 31.963 79.1986 32.0013 79.1986 32.0523V32.1925H79.1253C79.1155 32.2095 79.1106 32.2307 79.1106 32.2562C79.1106 32.2817 79.1106 32.303 79.1106 32.32H79.2572L79.2132 32.575H79.0813C79.0716 32.6175 79.0618 32.66 79.052 32.7025C79.052 32.745 79.0422 32.7875 79.0227 32.83H79.1839C79.1839 32.8385 79.179 32.847 79.1693 32.8555C79.1693 32.864 79.1693 32.8767 79.1693 32.8937H79.3891C79.3891 32.9022 79.3843 32.9107 79.3745 32.9192C79.3745 32.9277 79.3745 32.9405 79.3745 32.9574H79.1106C79.1009 32.9914 79.0911 33.0254 79.0813 33.0594C79.0716 33.0849 79.0618 33.1147 79.052 33.1487H79.008L78.9201 33.3399H78.7589C78.7491 33.3739 78.7344 33.4079 78.7149 33.4419C78.6954 33.4674 78.6758 33.4972 78.6563 33.5312H78.7882C78.7686 33.5737 78.7442 33.6162 78.7149 33.6587H78.627C78.6172 33.6927 78.5976 33.7267 78.5683 33.7607C78.5488 33.7861 78.5292 33.8159 78.5097 33.8499H78.9641L78.8615 33.9774H78.3191L78.1579 34.1686H78.3191L78.1139 34.3599H78.2752C78.2654 34.3684 78.2507 34.3769 78.2312 34.3854C78.2214 34.3939 78.2117 34.4066 78.2019 34.4236H78.3778C78.3485 34.4406 78.3191 34.4619 78.2898 34.4874C78.2703 34.5129 78.2459 34.5341 78.2165 34.5511H77.938C77.9087 34.5681 77.8794 34.5894 77.8501 34.6148C77.8208 34.6403 77.7866 34.6616 77.7475 34.6786H77.8501C77.8208 34.6956 77.7866 34.7168 77.7475 34.7423C77.7182 34.7678 77.684 34.7891 77.6449 34.8061H77.6156C77.5276 34.8486 77.4397 34.8911 77.3518 34.9336C77.2638 34.9761 77.171 35.0186 77.0733 35.0611H77.0293C77 35.0696 76.9707 35.0781 76.9413 35.0866C76.912 35.0951 76.8827 35.1078 76.8534 35.1248C76.785 35.1503 76.7166 35.1758 76.6482 35.2013C76.5896 35.2183 76.5212 35.2353 76.443 35.2523H76.4283C76.1059 35.3373 75.7541 35.4011 75.373 35.4436H75.3877C75.2313 35.4605 75.0652 35.4733 74.8893 35.4818C74.7232 35.4903 74.5571 35.4945 74.391 35.4945C74.2151 35.4945 74.0441 35.4903 73.8779 35.4818C73.7118 35.4733 73.5457 35.4605 73.3796 35.4436C73.0083 35.4096 72.6516 35.3458 72.3096 35.2523H72.3243C72.2559 35.2353 72.1875 35.2183 72.1191 35.2013C72.0507 35.1758 71.9822 35.1503 71.9138 35.1248H71.8992C71.8699 35.1078 71.8406 35.0951 71.8112 35.0866C71.7819 35.0781 71.7526 35.0696 71.7233 35.0611H71.7673C71.6696 35.0186 71.5767 34.9761 71.4888 34.9336C71.4008 34.8911 71.3129 34.8486 71.2249 34.8061H71.2543L71.0344 34.6786H70.9465C70.9074 34.6616 70.8732 34.6403 70.8438 34.6148C70.8145 34.5894 70.7852 34.5681 70.7559 34.5511H71.0344L70.8585 34.4236H70.6826C70.6728 34.4066 70.6631 34.3939 70.6533 34.3854C70.6435 34.3769 70.6289 34.3684 70.6093 34.3599H70.4628C70.4237 34.3259 70.3846 34.2961 70.3455 34.2706C70.3162 34.2366 70.2869 34.2026 70.2576 34.1686H70.0963L69.9204 33.9774H70.4628L70.3748 33.8499H69.9058C69.8862 33.8159 69.8667 33.7861 69.8471 33.7607C69.8276 33.7267 69.8081 33.6927 69.7885 33.6587H69.8765C69.8471 33.6162 69.8227 33.5737 69.8032 33.5312H69.6713C69.6517 33.4972 69.6322 33.4674 69.6126 33.4419C69.6029 33.4079 69.5882 33.3739 69.5687 33.3399H69.7445L69.6566 33.1487H69.7006C69.6908 33.1147 69.681 33.0849 69.6713 33.0594C69.6615 33.0254 69.6517 32.9914 69.6419 32.9574H69.8032C69.7934 32.9405 69.7885 32.9192 69.7885 32.8937H69.6419C69.6419 32.8767 69.6371 32.864 69.6273 32.8555C69.6273 32.847 69.6273 32.8385 69.6273 32.83H69.598C69.5882 32.7875 69.5784 32.745 69.5687 32.7025C69.5589 32.66 69.5491 32.6175 69.5393 32.575H69.6126C69.6029 32.5325 69.5931 32.49 69.5833 32.4475C69.5833 32.405 69.5833 32.3625 69.5833 32.32H69.4954L69.4807 32.1925H69.5833V32.0523C69.5833 32.0353 69.5784 32.0183 69.5687 32.0013C69.5687 31.9758 69.5687 31.9545 69.5687 31.9375H69.3781C69.3683 31.895 69.3635 31.8525 69.3635 31.81C69.3635 31.7675 69.3635 31.725 69.3635 31.6825H69.4661V31.6188H69.4221V31.4275H69.7152V31.3H69.2022V31.2363H69.4807V31.1726H69.4661V30.9813H69.3928V30.7263H69.4807V30.4713H69.3781V30.2801H68.8358V30.0251H69.4661C69.4758 30.0081 69.4807 29.9869 69.4807 29.9614H69.7152V29.8976H69.5393V29.7701H69.554L69.5833 29.5152H69.554C69.554 29.4812 69.554 29.4514 69.554 29.4259C69.5638 29.3919 69.5735 29.3579 69.5833 29.3239H69.5393C69.5393 29.2899 69.5393 29.2602 69.5393 29.2347C69.5491 29.2007 69.5589 29.1667 69.5687 29.1327H69.5393C69.5491 29.0987 69.5589 29.0689 69.5687 29.0434C69.5784 29.0094 69.5882 28.9754 69.598 28.9414H69.1876C69.1876 28.9244 69.1876 28.9117 69.1876 28.9032C69.1973 28.8947 69.2022 28.8862 69.2022 28.8777H69.6419L69.6859 28.7502H69.6566L69.6859 28.6865H69.9058C69.9155 28.6695 69.9253 28.6482 69.9351 28.6227C69.9449 28.5972 69.9546 28.576 69.9644 28.559H69.8178C69.8471 28.4825 69.8862 28.3975 69.9351 28.304H69.8911C69.9204 28.2615 69.9449 28.219 69.9644 28.1765C69.9937 28.1255 70.023 28.083 70.0523 28.049H70.0963L70.1403 27.9852H69.9058L69.9497 27.9215H70.1843L70.2282 27.8578H70.1989L70.3748 27.6665H70.2722L70.4628 27.4753C70.5116 27.4328 70.5605 27.3903 70.6093 27.3478C70.668 27.2968 70.7266 27.2543 70.7852 27.2203H70.6386L70.7266 27.1565H70.5654C70.5849 27.1395 70.5996 27.1268 70.6093 27.1183C70.6289 27.1098 70.6484 27.1013 70.668 27.0928H71.0344C71.0735 27.0758 71.1126 27.0546 71.1517 27.0291C71.1907 27.0036 71.2298 26.9823 71.2689 26.9653H71.3129C71.4106 26.9228 71.5083 26.8803 71.606 26.8378C71.7038 26.7868 71.8015 26.7443 71.8992 26.7103H71.9432C72.1386 26.6338 72.3536 26.5701 72.5881 26.5191H72.6614C72.9448 26.4511 73.2428 26.4001 73.5555 26.3661C73.8682 26.3321 74.1906 26.3151 74.5229 26.3151C75.2167 26.3151 75.8323 26.3831 76.3697 26.5191H76.2818C76.3892 26.5446 76.4967 26.5743 76.6042 26.6083C76.7117 26.6338 76.8143 26.6678 76.912 26.7103H76.8534C76.9609 26.7443 77.0586 26.7868 77.1465 26.8378C77.2443 26.8803 77.342 26.9228 77.4397 26.9653H77.3811L77.6009 27.0928H77.2345C77.254 27.1013 77.2687 27.1098 77.2785 27.1183C77.298 27.1268 77.3176 27.1395 77.3371 27.1565H77.4983C77.5179 27.165 77.5374 27.1735 77.557 27.182C77.5765 27.1905 77.5912 27.2033 77.6009 27.2203H77.7475C77.8061 27.2543 77.8599 27.2968 77.9087 27.3478C77.9674 27.3903 78.0211 27.4328 78.07 27.4753H78.0846C78.1237 27.5093 78.1579 27.5433 78.1872 27.5773C78.2165 27.6028 78.2459 27.6325 78.2752 27.6665H78.3778L78.5537 27.8578H78.583C78.6123 27.8833 78.6318 27.9045 78.6416 27.9215H78.4071L78.4511 27.9852H78.7002L78.7442 28.049H78.7002C78.7296 28.083 78.754 28.1255 78.7735 28.1765C78.8028 28.219 78.8322 28.2615 78.8615 28.304H78.9054L79.0374 28.559H79.1839L79.2279 28.6865H79.008L79.0374 28.7502H79.0667L79.1106 28.8777H79.0667C79.0667 28.8862 79.0667 28.8947 79.0667 28.9032C79.0764 28.9117 79.0813 28.9244 79.0813 28.9414H78.4657C78.4853 28.9754 78.495 29.0094 78.495 29.0434C78.5048 29.0689 78.5146 29.0987 78.5244 29.1327H79.2865C79.2963 29.1667 79.3012 29.2007 79.3012 29.2347C79.311 29.2602 79.3158 29.2899 79.3158 29.3239H79.1106C79.1204 29.3579 79.1253 29.3919 79.1253 29.4259C79.1351 29.4514 79.14 29.4812 79.14 29.5152H79.3305L79.3598 29.7701H79.1693V29.8084C79.1693 29.8169 79.1693 29.8296 79.1693 29.8466C79.179 29.8636 79.1839 29.8806 79.1839 29.8976H79.5797V29.9614H79.2279C79.2377 29.9784 79.2426 29.9996 79.2426 30.0251H79.5064C79.5162 30.0676 79.5211 30.1101 79.5211 30.1526C79.5211 30.1951 79.5211 30.2376 79.5211 30.2801H79.0813V30.4713ZM75.8714 30.7263H76.0033V30.4713H75.2704V30.2801H75.7101C75.7101 30.2376 75.7101 30.1951 75.7101 30.1526C75.7101 30.1101 75.7052 30.0676 75.6955 30.0251H75.4316C75.4316 30.0081 75.4267 29.9954 75.417 29.9869C75.417 29.9784 75.417 29.9699 75.417 29.9614H75.7688V29.8976H75.373C75.373 29.8806 75.3681 29.8679 75.3583 29.8594C75.3583 29.8509 75.3583 29.8424 75.3583 29.8339V29.7701H75.5342C75.5342 29.7276 75.5293 29.6851 75.5196 29.6426C75.5196 29.5917 75.5147 29.5492 75.5049 29.5152H75.3144C75.3046 29.4812 75.2948 29.4514 75.2851 29.4259C75.2753 29.3919 75.2606 29.3579 75.2411 29.3239H75.4463C75.417 29.2559 75.3779 29.1922 75.329 29.1327H74.5668C74.518 29.0647 74.4398 29.0009 74.3323 28.9414H74.9479C74.8893 28.9074 74.8453 28.8862 74.816 28.8777H74.86C74.7134 28.8267 74.5522 28.8012 74.3763 28.8012C74.2004 28.8012 74.0392 28.8267 73.8926 28.8777H73.4675C73.4284 28.8862 73.3796 28.9074 73.321 28.9414H73.7314C73.6532 28.9839 73.575 29.0477 73.4968 29.1327H73.5262C73.4773 29.1922 73.4382 29.2559 73.4089 29.3239H73.4529C73.4431 29.3579 73.4333 29.3919 73.4236 29.4259C73.4138 29.4514 73.3991 29.4812 73.3796 29.5152H73.4089C73.3991 29.5492 73.3894 29.5917 73.3796 29.6426C73.3796 29.6851 73.3796 29.7276 73.3796 29.7701H73.3503V29.8976H73.5262V29.9614H73.2916V30.0251H72.6467V30.2801H73.189V30.4713H73.2916V30.7263H73.2037V30.9813H73.277V31.1726H73.2916C73.2916 31.1981 73.2965 31.2193 73.3063 31.2363H73.0131V31.3H73.5262V31.4275H73.233V31.6188H73.277V31.6825H73.1744C73.1744 31.725 73.1744 31.7675 73.1744 31.81C73.1842 31.8525 73.189 31.895 73.189 31.9375H73.3942V31.9758C73.3942 32.0098 73.3942 32.048 73.3942 32.0905C73.3942 32.1245 73.3991 32.1585 73.4089 32.1925H73.3063C73.3161 32.2095 73.321 32.2307 73.321 32.2562C73.321 32.2817 73.3258 32.303 73.3356 32.32H73.4236C73.4333 32.3625 73.448 32.405 73.4675 32.4475C73.4871 32.49 73.5066 32.5325 73.5262 32.575H73.4529C73.5115 32.6685 73.5897 32.7535 73.6874 32.83H73.7167C73.7362 32.8385 73.7558 32.8512 73.7753 32.8682C73.7949 32.8767 73.8144 32.8852 73.834 32.8937H73.9659C73.9952 32.9022 74.0245 32.915 74.0538 32.932C74.0831 32.9405 74.1125 32.9489 74.1418 32.9574H73.9659C74.0831 32.9914 74.2199 33.0084 74.3763 33.0084C74.5326 33.0084 74.6694 32.9914 74.7867 32.9574H75.0359C75.0652 32.9489 75.0945 32.9405 75.1238 32.932C75.1531 32.915 75.1825 32.9022 75.2118 32.8937H74.9772C74.9968 32.8852 75.0163 32.8767 75.0359 32.8682C75.0554 32.8512 75.075 32.8385 75.0945 32.83H74.9333C75.0212 32.7705 75.0994 32.6855 75.1678 32.575H75.2997C75.3486 32.4815 75.3877 32.3965 75.417 32.32H75.2704C75.2802 32.303 75.2851 32.2817 75.2851 32.2562C75.2851 32.2307 75.2899 32.2095 75.2997 32.1925H75.373C75.3828 32.1585 75.3877 32.1245 75.3877 32.0905C75.3877 32.048 75.3877 32.0098 75.3877 31.9758V31.9375H75.417C75.417 31.895 75.417 31.8525 75.417 31.81C75.417 31.7675 75.4219 31.725 75.4316 31.6825H75.417V31.6188H75.842V31.4275H75.1385V31.3H75.5489V31.2363H75.4316V31.1726H75.7394V30.9813H75.8714V30.7263Z" fill="white"/>
<path d="M89.9599 30.2801H89.2417C89.2319 30.3141 89.2221 30.3481 89.2124 30.3821C89.2026 30.4076 89.1879 30.4374 89.1684 30.4713H89.5788L89.5348 30.5988H89.1831C89.1537 30.6753 89.1147 30.7603 89.0658 30.8538H88.8459C88.8068 30.9388 88.7531 31.0238 88.6847 31.1088H88.714C88.6749 31.1513 88.6407 31.1938 88.6114 31.2363C88.5821 31.2788 88.5479 31.3213 88.5088 31.3638H90.0918L89.9013 31.555H88.5968C88.5577 31.5975 88.5088 31.64 88.4502 31.6825C88.3915 31.725 88.3378 31.7675 88.2889 31.81H88.4795C88.4404 31.844 88.3916 31.878 88.3329 31.912C88.2841 31.9375 88.2352 31.9673 88.1863 32.0013H88.67L88.6114 32.0395L88.7433 32.2562H88.3916L88.5528 32.5112H88.5968L88.6407 32.575H88.6261L88.7726 32.83H88.9192L89.0072 32.9574H87.8785L87.9958 33.1487H89.0218L89.1098 33.2762H88.7873L88.9046 33.4674H90.3556L90.5169 33.7224H89.5495L89.6667 33.9136H89.2124L89.4469 34.2961H89.5495L89.6374 34.4236H89.5935L89.6374 34.4874H88.9485L89.1098 34.7423L89.1391 34.8061H88.6847L88.758 34.9463C88.7873 34.9803 88.802 35.0186 88.802 35.0611H89.1098V35.0866C89.1098 35.1801 89.0658 35.2566 88.9779 35.3161H89.3736C89.3247 35.3501 89.2612 35.3671 89.1831 35.3671H86.1783C86.1196 35.3671 86.0659 35.3628 86.017 35.3543C85.978 35.3373 85.934 35.3246 85.8851 35.3161H85.4894C85.4112 35.2821 85.3428 35.2396 85.2842 35.1886C85.2353 35.1376 85.1962 35.0951 85.1669 35.0611H84.8738L84.8445 35.0228L84.7419 34.8061H85.2109L85.1669 34.7423H83.7745V34.8061H83.0269V35.0611H84.2142C84.1946 35.1801 84.1311 35.2651 84.0236 35.3161H83.921C83.8526 35.3501 83.7793 35.3671 83.7012 35.3671H80.8283C80.7404 35.3671 80.672 35.3501 80.6231 35.3161H80.7404C80.6329 35.2651 80.5694 35.1801 80.5498 35.0611H79.3772C79.3772 35.0526 79.3772 35.0483 79.3772 35.0483C79.3675 35.0398 79.3626 35.0313 79.3626 35.0228V34.8061H80.1101V34.7423H81.5758V34.4874H80.0075V34.4236H80.9309V34.2961H80.6231V34.1049H81.1361V33.9136H80.3007V33.7224H81.4293V33.4674H80.7843V33.2762H80.7697V33.2124H80.6817V33.1487H80.286V32.9574H80.7843V32.83H80.6524V32.575H80.6671V32.5112H80.6231V32.2562H80.9749V32.0013H80.4765V31.81H80.286V31.555H81.5758V31.3638H79.9928V31.1088H79.9635V30.8538H80.1834V30.5988H80.5205V30.4713H80.1101V30.2801H80.8283V30.1526H81.8837V30.0251H80.4326V29.9614H80.5059V29.8976H80.6378V29.8339H80.6524V29.7064H80.6231V29.5152H80.6817V29.2602H80.6085V29.1327H80.6817V28.9414H80.6231V28.8777H80.6671V28.7502H80.6524V28.6865H80.5938V28.6227H80.7257V28.4315H80.843V28.2402H80.1541V27.9852H80.3153V27.7303H80.2274V27.539H80.6231V27.3478H80.7697V27.1565H80.5059V27.0291H80.6085V26.9653H80.6378V26.7741H80.6671C80.6671 26.6806 80.7111 26.5956 80.799 26.5191H81.5905C81.6491 26.4681 81.7322 26.4426 81.8397 26.4426H86.1783C86.5985 26.4426 86.9893 26.4681 87.3509 26.5191H86.574C86.9649 26.5701 87.3362 26.6551 87.688 26.7741H87.6587C87.8248 26.8251 87.986 26.8888 88.1424 26.9653H88.1131L88.245 27.0291H88.1277C88.1766 27.0461 88.2157 27.0673 88.245 27.0928C88.2841 27.1183 88.3232 27.1395 88.3622 27.1565H88.6261C88.6749 27.1905 88.7238 27.2245 88.7726 27.2585C88.8215 27.284 88.8655 27.3138 88.9046 27.3478H88.758C88.8068 27.3818 88.8459 27.4158 88.8752 27.4498C88.9143 27.4753 88.9534 27.505 88.9925 27.539H88.5968C88.6358 27.573 88.67 27.607 88.6994 27.641C88.7287 27.6665 88.758 27.6963 88.7873 27.7303H88.8606C88.9388 27.8153 89.0072 27.9003 89.0658 27.9852H88.9192C88.9485 28.0192 88.973 28.0617 88.9925 28.1127C89.0218 28.1552 89.0511 28.1977 89.0805 28.2402H89.7693L89.8573 28.4315H89.74C89.7498 28.4655 89.7596 28.4995 89.7693 28.5335C89.7889 28.559 89.8036 28.5887 89.8133 28.6227H89.6667L89.6961 28.6865H89.7547C89.7645 28.7035 89.7693 28.7247 89.7693 28.7502L89.8133 28.8777H89.8573C89.8573 28.9032 89.8622 28.9244 89.872 28.9414H89.8866C89.8964 28.9754 89.9013 29.0094 89.9013 29.0434C89.911 29.0689 89.9159 29.0987 89.9159 29.1327H89.7254C89.7254 29.1497 89.7254 29.1709 89.7254 29.1964C89.7254 29.2219 89.7303 29.2432 89.74 29.2602H89.828C89.828 29.3027 89.828 29.3452 89.828 29.3877C89.8378 29.4302 89.8426 29.4727 89.8426 29.5152V29.6426H89.9306V29.7064H89.8426V29.8339H89.6961C89.6961 29.8424 89.6912 29.8509 89.6814 29.8594C89.6814 29.8679 89.6814 29.8806 89.6814 29.8976H89.828C89.828 29.9061 89.8231 29.9146 89.8133 29.9231C89.8133 29.9316 89.8133 29.9444 89.8133 29.9614H90.5022C90.4924 29.9784 90.4876 29.9996 90.4876 30.0251H90.6781L90.6635 30.1526H89.9892C89.9697 30.2036 89.9599 30.2461 89.9599 30.2801ZM84.0969 30.0251H85.548V30.1526H84.4927V30.1654H85.5627C85.6311 30.1654 85.6848 30.1611 85.7239 30.1526H86.3981C86.5056 30.1271 86.6033 30.0846 86.6913 30.0251H86.4861L86.5594 29.9614H85.8705C85.8998 29.9359 85.9193 29.9146 85.9291 29.8976H85.7825L85.8265 29.8339H85.9731L86.017 29.7064H86.0903C86.1001 29.6894 86.105 29.6681 86.105 29.6426H86.017L86.0317 29.5152C86.0317 29.4302 86.017 29.3452 85.9877 29.2602H85.8998C85.89 29.2432 85.8802 29.2219 85.8705 29.1964C85.8705 29.1709 85.8607 29.1497 85.8412 29.1327H86.0464C86.0073 29.0647 85.9535 29.0009 85.8851 28.9414H85.8558C85.8265 28.9159 85.7923 28.8947 85.7532 28.8777H85.7092C85.6115 28.8352 85.5089 28.8139 85.4014 28.8139H84.3314V28.8777H84.2875V28.9414H84.3461V29.1327H84.2728V29.2602H84.3461V29.5152H84.2875V29.7064H84.3168V29.8339H84.3021V29.8976H84.1702V29.9614H84.0969V30.0251ZM85.2549 32.9574L85.1962 32.83H85.035L84.9177 32.5877H84.3168V32.83H84.4487V32.9574H85.2549ZM83.9503 32.9574V33.1487H84.2288L84.1409 32.9574H83.9503ZM85.2842 33.2124L85.2549 33.1487H84.3461V33.2124H84.434V33.2762H84.4487V33.4674H85.0936V33.7224H83.965V33.9136H84.8005V34.1049H84.2875V34.2961H84.5953V34.4236H83.6719V34.4874H85.7386L85.6946 34.4236H85.7386L85.6653 34.2961H85.548L85.4601 34.1049L85.3575 33.9136H85.8265L85.7239 33.7224H86.6766L86.5447 33.4674H85.0936L85.0057 33.2762H85.3281L85.2842 33.2124Z" fill="white"/>
<path d="M100.789 27.6028H98.0628V27.8578H99.1035V28.049H100.232V28.2402H100.203V28.4315H100.628V28.6865H99.0302V28.7502H98.7224V28.8394C98.7224 28.8989 98.7078 28.9542 98.6784 29.0052H99.7191C99.6507 29.1242 99.5383 29.1837 99.382 29.1837H96.9489V29.1964H97.0954V29.4514H97.1248V29.7064H97.0515V29.9614H96.8609V30.1526H97.5938V30.2801H96.9782V30.4713H96.6557V30.7263H97.2127V30.8538H97.1101V31.1088H97.0075V31.3638H96.8316V31.6188H96.6704V31.81H97.2127V32.0013H96.9928V32.2562H97.0808V32.32H97.1834V32.4475H97.9163V32.6387H97.4179V32.8937H97.6378V33.1487H97.0221V33.4037H97.2713V33.5312H97.3739V33.7224H97.6084V33.9774H97.5205V34.1686H97.1394V34.3599H97.0954V34.4874H97.0808V34.6786H97.242V34.8698H97.1101V35.0228C97.1101 35.0653 97.1052 35.0993 97.0954 35.1248H96.9489C96.9195 35.2098 96.8658 35.2736 96.7876 35.3161H96.8169C96.7681 35.3501 96.6997 35.3671 96.6117 35.3671H93.6803C93.6021 35.3671 93.5288 35.3501 93.4604 35.3161H93.4311C93.3627 35.2736 93.3089 35.2098 93.2698 35.1248H93.4018C93.392 35.0993 93.3871 35.0653 93.3871 35.0228V34.8698H93.519V34.6786H93.3578V34.4874H93.3724V34.3599H93.4164V34.1686H93.7975V33.9774H93.8855V33.7224H93.6509V33.5312H93.5483V33.4037H93.2992V33.1487H93.9148V32.8937H93.6949V32.6387H94.1933V32.4475H93.4604V32.32H93.3578V32.2562H93.2698V32.0013H93.4897V31.81H92.9474V31.6188H93.1086V31.3638H93.2845V31.1088H93.3871V30.8538H93.4897V30.7263H92.9327V30.4713H93.2552V30.2801H93.8708V30.1526H93.1379V29.9614H93.3285V29.7064H93.4018V29.4514H93.3724V29.1964H93.2259V29.1837H90.7927C90.6462 29.1837 90.5289 29.1242 90.441 29.0052H89.4003C89.3905 28.9797 89.3807 28.9542 89.371 28.9287C89.3514 28.9032 89.3417 28.8734 89.3417 28.8394V28.7502H89.6495V28.6865H91.2471V28.4315H90.8221V28.2402H90.8514V28.049H89.7227V27.8578H88.6821V27.6028H91.4083V27.4115H89.884V27.1565H90.1771V26.9016H90.5582V26.8378H90.7781V26.7868C90.7781 26.7018 90.8074 26.6338 90.866 26.5828H90.5436C90.6217 26.4893 90.7292 26.4426 90.866 26.4426H99.4553C99.5921 26.4426 99.6996 26.4893 99.7777 26.5828H100.086C100.134 26.6423 100.159 26.7103 100.159 26.7868V26.8378H99.939V26.9016H99.5579V27.1565H99.2647V27.4115H100.789V27.6028Z" fill="white"/>
</svg>
