<svg width="34" height="35" viewBox="0 0 34 35" fill="none" xmlns="http://www.w3.org/2000/svg">
<path d="M17.9999 33.5645C26.7372 33.5645 34 26.5438 34 18.0645C34 9.60025 26.7215 2.56445 17.9843 2.56445C9.2313 2.56445 2 9.60025 2 18.0645C2 26.5438 9.24703 33.5645 17.9999 33.5645ZM17.9999 23.2463C13.2784 23.2463 9.63916 24.8723 8.05484 26.6958C5.9529 24.4164 4.68227 21.3924 4.68227 18.0645C4.68227 10.9071 10.5804 5.1478 17.9843 5.1478C25.3724 5.1478 31.3175 10.9071 31.3333 18.0645C31.3333 21.4076 30.0627 24.4316 27.945 26.711C26.3607 24.8875 22.7215 23.2463 17.9999 23.2463ZM17.9999 20.663C21.0117 20.6934 23.3803 18.2012 23.3803 14.9341C23.3803 11.8645 20.996 9.31153 17.9999 9.31153C14.9882 9.31153 12.5882 11.8645 12.6196 14.9341C12.6353 18.2012 14.9725 20.6326 17.9999 20.663Z" fill="black"/>
</svg>
