<svg width="26" height="26" viewBox="0 0 26 26" fill="none" xmlns="http://www.w3.org/2000/svg">
<g clip-path="url(#clip0_278_602)">
<path d="M25.9993 9.51481C25.8445 6.86073 24.7555 4.43567 23.0115 2.86125C23.0045 2.85495 22.9974 2.84886 22.99 2.84317C21.4459 1.3796 19.4468 0.420294 17.3353 0.134091C15.2001 -0.155514 12.9857 0.243119 11.1003 1.256C10.1564 1.763 9.26697 2.45419 8.38139 3.36911C7.42305 4.35884 6.67931 5.28829 6.10751 6.21058C5.28044 7.5447 4.86109 9.1921 4.86109 11.1072C4.86109 11.1616 4.86865 11.2068 4.87444 11.2383V18.5081L0.125328 23.2214C0.0450937 23.301 0 23.4093 0 23.5223C0 23.6353 0.0450937 23.7436 0.125328 23.8232L2.15191 25.8345C2.23453 25.9165 2.34254 25.9576 2.4505 25.9576C2.55846 25.9576 2.66647 25.9165 2.74909 25.8345L7.49953 21.1198H15.831C15.8785 21.1198 15.9242 21.1119 15.9669 21.0975C19.0228 20.982 21.7498 18.6351 23.5088 16.6711C24.2978 15.7902 24.9024 14.8013 25.3573 13.648C25.4432 13.4301 25.3362 13.184 25.1184 13.0981C24.9006 13.0124 24.6544 13.1192 24.5685 13.337C24.1513 14.3952 23.598 15.3007 22.8772 16.1055C21.2063 17.971 18.6264 20.205 15.8248 20.2533C15.7839 20.254 15.7445 20.2604 15.7072 20.2719H13.5165L8.86255 15.6231C8.69695 15.4577 8.42852 15.4577 8.26307 15.6234C8.09763 15.7891 8.09773 16.0575 8.26343 16.223L12.3168 20.2719H7.32494C7.21307 20.2719 7.10577 20.3161 7.02635 20.3949L2.4505 24.9364L1.02568 23.5223L5.59691 18.9855C5.67709 18.9059 5.72223 18.7976 5.72223 18.6846V13.6846L6.58176 14.5431C6.66453 14.6257 6.7729 14.6671 6.88132 14.6671C6.98984 14.6671 7.09846 14.6256 7.18123 14.5428C7.34667 14.3771 7.34657 14.1087 7.18087 13.9432L5.72223 12.4862V11.2028C5.72223 11.1838 5.72096 11.1649 5.71843 11.1462C5.71599 11.128 5.71279 11.1098 5.70954 11.0921L5.70893 11.0885C5.71157 9.3417 6.08806 7.85096 6.8281 6.65735C7.3675 5.78716 8.07488 4.90448 8.99052 3.95878C9.81444 3.10764 10.6357 2.4679 11.5015 2.00289C13.2305 1.0739 15.2619 0.708783 17.2214 0.974267C19.2275 1.24625 21.1227 2.18047 22.5579 3.60509C22.5776 3.62469 22.5989 3.64196 22.6212 3.65689C24.0975 5.08577 25.0164 7.22331 25.1529 9.56427C25.1665 9.79797 25.3674 9.97616 25.6008 9.9628C25.8345 9.94899 26.0129 9.74851 25.9993 9.51481Z" fill="black"/>
</g>
<defs>
<clipPath id="clip0_278_602">
<rect width="26" height="26" fill="white"/>
</clipPath>
</defs>
</svg>
