<svg width="16" height="17" viewBox="0 0 16 17" fill="none" xmlns="http://www.w3.org/2000/svg">
<g clip-path="url(#clip0_259_559)">
<path d="M4.02604 5.43689C2.38625 5.80791 1.56636 5.99341 1.37129 6.62069C1.17622 7.24793 1.73518 7.9016 2.85308 9.2088L3.14229 9.547C3.45996 9.91847 3.6188 10.1042 3.69025 10.334C3.76171 10.5638 3.7377 10.8116 3.68966 11.3073L3.64594 11.7585C3.47693 13.5026 3.39242 14.3747 3.90311 14.7623C4.4138 15.15 5.18146 14.7965 6.71681 14.0897L7.11401 13.9067C7.55028 13.7059 7.76841 13.6054 7.99968 13.6054C8.23094 13.6054 8.44908 13.7059 8.88534 13.9067L9.28254 14.0897C10.8179 14.7965 11.5855 15.15 12.0963 14.7623C12.6069 14.3747 12.5224 13.5026 12.3534 11.7585M13.1463 9.2088C14.2642 7.9016 14.8231 7.24793 14.6281 6.62069C14.433 5.99341 13.6131 5.80791 11.9733 5.43689L11.5491 5.3409C11.0831 5.23547 10.8501 5.18275 10.6631 5.04074C10.4759 4.89873 10.356 4.68349 10.116 4.25302L9.89754 3.86111C9.05314 2.34628 8.63094 1.58887 7.99968 1.58887C7.36841 1.58887 6.94621 2.34629 6.10178 3.86112" stroke="#1C274C" stroke-width="2.17151" stroke-linecap="round"/>
</g>
<defs>
<clipPath id="clip0_259_559">
<rect width="16" height="16" fill="white" transform="translate(0 0.255859)"/>
</clipPath>
</defs>
</svg>
