<svg width="18" height="19" viewBox="0 0 18 19" fill="none" xmlns="http://www.w3.org/2000/svg">
<path d="M13.8626 12.8312C13.3853 12.9452 12.8872 13.0056 12.375 13.0056C8.8542 13.0056 6 10.1514 6 6.63063C6 6.26802 6.03027 5.91249 6.08843 5.56641C6.06129 5.59251 6.03324 5.61656 6.00371 5.63898C5.79325 5.79874 5.53114 5.85805 5.00692 5.97666L4.52966 6.08465C2.6849 6.50204 1.76252 6.71073 1.54307 7.41642C1.32362 8.12214 1.95244 8.85744 3.21008 10.328L3.53544 10.7085C3.89282 11.1264 4.07151 11.3354 4.1519 11.5939C4.23229 11.8524 4.20527 12.1312 4.15124 12.6888L4.10205 13.1964C3.91191 15.1586 3.81684 16.1396 4.39136 16.5758C4.96588 17.0119 5.8295 16.6143 7.55678 15.819L8.00363 15.6132C8.49443 15.3872 8.73983 15.2743 9 15.2743C9.26018 15.2743 9.50558 15.3872 9.99638 15.6132L10.4432 15.819C12.1705 16.6143 13.0341 17.0119 13.6087 16.5758C14.1832 16.1396 14.0881 15.1586 13.898 13.1964L13.8626 12.8312Z" fill="#1C274C"/>
<path opacity="0.5" d="M6.86487 4.31214L6.6191 4.75303C6.34914 5.23731 6.21416 5.47945 6.00371 5.63922C6.03324 5.61679 6.06129 5.59275 6.08843 5.56665C6.03027 5.91273 6 6.26826 6 6.63087C6 10.1517 8.85416 13.0059 12.375 13.0059C12.8872 13.0059 13.3853 12.9455 13.8626 12.8314L13.8488 12.6891C13.7947 12.1314 13.7677 11.8527 13.8481 11.5941C13.9285 11.3356 14.1072 11.1267 14.4645 10.7088L14.79 10.3283C16.0476 8.85768 16.6764 8.12231 16.4569 7.41666C16.2375 6.71097 15.3151 6.50228 13.4703 6.08488L12.9931 5.9769C12.4689 5.85828 12.2067 5.79898 11.9963 5.63922C11.7858 5.47945 11.6508 5.23731 11.3809 4.75304L11.1351 4.31214C10.1851 2.60795 9.71013 1.75586 9.00003 1.75586C8.28985 1.75586 7.81488 2.60796 6.86487 4.31214Z" fill="#1C274C"/>
</svg>
