<svg width="26" height="26" viewBox="0 0 26 26" fill="none" xmlns="http://www.w3.org/2000/svg">
<path d="M25.308 12.4003C24.5938 11.3807 23.4238 10.7715 22.1778 10.7715C21.3913 10.7715 20.6347 11.0107 19.9893 11.4623C19.1541 12.0477 18.5966 12.9233 18.4194 13.9274C18.2421 14.9323 18.467 15.9459 19.0524 16.781C19.7659 17.8007 20.9363 18.4091 22.1823 18.4091C22.9683 18.4091 23.7245 18.1703 24.37 17.7187C25.206 17.1337 25.7634 16.258 25.9406 15.2531C26.1175 14.2487 25.893 13.2355 25.308 12.4003ZM23.6853 16.7399C23.2268 17.0607 22.702 17.2149 22.1823 17.2149C21.3551 17.2149 20.5411 16.8245 20.0309 16.0956C19.1991 14.9085 19.4882 13.2726 20.6748 12.4412C21.1329 12.1203 21.6577 11.9662 22.1778 11.9662C23.005 11.9662 23.819 12.3562 24.3292 13.0855C25.1602 14.2721 24.8723 15.9089 23.6853 16.7399Z" fill="black"/>
<path d="M17.1308 16.2531L16.9502 15.95C16.675 15.489 16.3602 14.1852 16.3841 13.3209C16.4067 12.4997 16.7151 11.237 18.0544 9.88525C18.3311 9.60672 19.4251 8.69707 21.8963 8.69707C22.0301 8.69707 22.1661 8.69971 22.3063 8.70499L22.3626 8.70692L22.4193 8.70428C23.1154 8.66538 23.7114 8.37552 24.143 7.86568C24.677 7.23533 24.8044 6.43791 24.745 5.90166C24.6415 4.9648 23.9124 3.83827 22.199 3.74529C22.1261 3.74113 22.0471 3.73625 21.9624 3.73056C21.6646 3.71167 21.2939 3.6875 20.8578 3.6875C18.0468 3.6875 15.5802 4.73964 13.3169 6.9047C12.4518 7.73197 10.3333 10.7156 10.0079 11.1759C9.85974 11.361 8.64886 12.8508 6.95282 14.2207L6.92372 14.2441L6.89614 14.2698L2.0997 18.6706L0 20.5968L2.84568 20.7435C3.13671 20.759 3.25609 20.847 3.59054 21.1236C4.03843 21.4936 4.71448 22.0522 5.93511 22.0522C7.15767 22.0522 7.83336 21.491 8.28044 21.1195C8.61413 20.8422 8.7392 20.7386 9.09822 20.7386C9.45725 20.7386 9.58197 20.8422 9.91565 21.1191C10.3623 21.491 11.0381 22.0522 12.2606 22.0522C13.4824 22.0522 14.1581 21.491 14.6052 21.1195C14.9393 20.8422 15.0644 20.7386 15.4238 20.7386C15.7847 20.7386 15.9102 20.8422 16.2457 21.1195C16.6305 21.4377 17.1569 21.8734 18.0359 22.008L20.0188 22.3134L19.3416 20.4245C18.918 19.2432 18.0095 17.7228 17.1308 16.2531ZM15.4238 19.5436C13.8419 19.5436 13.8419 20.8576 12.2606 20.8576C10.679 20.8576 10.679 19.5436 9.09827 19.5436C7.51705 19.5436 7.51705 20.8576 5.93511 20.8576C4.40152 20.8576 4.35094 19.6252 2.90687 19.5508L7.70372 15.15C9.6458 13.5809 10.9647 11.8917 10.9647 11.8917C10.9647 11.8917 13.3161 8.55808 14.1426 7.76823C16.7729 5.25212 19.2414 4.88213 20.8578 4.88213C21.3804 4.88213 21.8135 4.92067 22.1344 4.93809C23.126 4.99212 23.5032 5.54046 23.5576 6.03288C23.612 6.52607 23.3384 7.45684 22.3528 7.51128C22.1967 7.50518 22.0448 7.50219 21.8963 7.50219C19.2569 7.50219 17.8186 8.42697 17.206 9.04447C15.5768 10.6884 15.2174 12.2922 15.1898 13.2876C15.1604 14.3439 15.5216 15.8873 15.9241 16.5623C16.8345 18.0875 17.8058 19.6801 18.2173 20.8274C16.997 20.6399 16.8697 19.5436 15.4238 19.5436Z" fill="black"/>
</svg>
