<svg width="20" height="22" viewBox="0 0 20 22" fill="none" xmlns="http://www.w3.org/2000/svg">
<path d="M10 0.166504C4.5 0.166504 0 5.0415 0 10.9998C0 16.9582 4.5 21.8332 10 21.8332C15.5 21.8332 20 16.9582 20 10.9998C20 5.0415 15.5 0.166504 10 0.166504ZM14.2 9.15817L9.4 14.3582C9 14.7915 8.4 14.7915 8 14.3582L5.8 11.9748C5.4 11.5415 5.4 10.8915 5.8 10.4582C6.2 10.0248 6.8 10.0248 7.2 10.4582L8.7 12.0832L12.8 7.6415C13.2 7.20817 13.8 7.20817 14.2 7.6415C14.6 8.07484 14.6 8.72484 14.2 9.15817Z" fill="black"/>
</svg>
