<svg width="24" height="24" viewBox="0 0 24 24" fill="none" xmlns="http://www.w3.org/2000/svg">
<rect x="1" y="1" width="22" height="22" fill="black"/>
<rect x="1" y="1" width="22" height="22" stroke="black" stroke-width="2"/>
<path d="M11.2308 2.76923C11.2308 2.34615 10.8846 2 10.4615 2H2.76923C2.34615 2 2 2.34615 2 2.76923V10.4615C2 10.8846 2.34615 11.2308 2.76923 11.2308H10.4615C10.8846 11.2308 11.2308 10.8846 11.2308 10.4615V2.76923Z" fill="white"/>
<path d="M22.0003 2.76923C22.0003 2.34615 21.6541 2 21.2311 2H13.5388C13.1157 2 12.7695 2.34615 12.7695 2.76923V10.4615C12.7695 10.8846 13.1157 11.2308 13.5388 11.2308H21.2311C21.6541 11.2308 22.0003 10.8846 22.0003 10.4615V2.76923Z" fill="white"/>
<path d="M13.5388 21.9998H21.2311C21.6541 21.9998 22.0003 21.6537 22.0003 21.2306V13.5383C22.0003 13.1152 21.6541 12.769 21.2311 12.769H13.5388C13.1157 12.769 12.7695 13.1152 12.7695 13.5383V21.2306C12.7695 21.6537 13.1157 21.9998 13.5388 21.9998Z" fill="white"/>
<path d="M10.4615 12.769H2.76923C2.34615 12.769 2 13.1152 2 13.5383V21.2306C2 21.6537 2.34615 21.9998 2.76923 21.9998H10.4615C10.8846 21.9998 11.2308 21.6537 11.2308 21.2306V13.5383C11.2308 13.1152 10.8846 12.769 10.4615 12.769Z" fill="white"/>
</svg>
