<svg width="20" height="22" viewBox="0 0 20 22" fill="none" xmlns="http://www.w3.org/2000/svg">
<path d="M14.3333 12.0418H11.0833C10.4875 12.0418 10 12.5106 10 13.0835V16.2085C10 16.7814 10.4875 17.2502 11.0833 17.2502H14.3333C14.9292 17.2502 15.4167 16.7814 15.4167 16.2085V13.0835C15.4167 12.5106 14.9292 12.0418 14.3333 12.0418ZM14.3333 1.62516V2.66683H5.66667V1.62516C5.66667 1.05225 5.17917 0.583496 4.58333 0.583496C3.9875 0.583496 3.5 1.05225 3.5 1.62516V2.66683H2.41667C1.21417 2.66683 0.260833 3.60433 0.260833 4.75016L0.25 19.3335C0.25 20.4793 1.21417 21.4168 2.41667 21.4168H17.5833C18.775 21.4168 19.75 20.4793 19.75 19.3335V4.75016C19.75 3.60433 18.775 2.66683 17.5833 2.66683H16.5V1.62516C16.5 1.05225 16.0125 0.583496 15.4167 0.583496C14.8208 0.583496 14.3333 1.05225 14.3333 1.62516ZM16.5 19.3335H3.5C2.90417 19.3335 2.41667 18.8647 2.41667 18.2918V7.87516H17.5833V18.2918C17.5833 18.8647 17.0958 19.3335 16.5 19.3335Z" fill="black"/>
</svg>
