<svg width="25" height="18" viewBox="0 0 25 18" fill="none" xmlns="http://www.w3.org/2000/svg">
<path d="M1.56168 0.404303C1.45857 0.40389 1.35639 0.423895 1.26104 0.463165C1.1657 0.502435 1.07907 0.560193 1.00615 0.633108C0.93324 0.706022 0.875482 0.792651 0.836212 0.887997C0.796942 0.983344 0.776937 1.08552 0.77735 1.18864V16.8097C0.776937 16.9128 0.796942 17.015 0.836212 17.1103C0.875482 17.2057 0.93324 17.2923 1.00615 17.3652C1.07907 17.4381 1.1657 17.4959 1.26104 17.5352C1.35639 17.5744 1.45857 17.5944 1.56168 17.594H23.4355C23.5381 17.5936 23.6396 17.573 23.7343 17.5334C23.8289 17.4937 23.9148 17.4358 23.987 17.363C24.0593 17.2902 24.1165 17.2038 24.1554 17.1089C24.1942 17.014 24.214 16.9123 24.2136 16.8097V1.18864C24.214 1.08605 24.1942 0.984381 24.1554 0.889443C24.1165 0.794505 24.0593 0.708154 23.987 0.635322C23.9148 0.562489 23.8289 0.504602 23.7343 0.464963C23.6396 0.425325 23.5381 0.404713 23.4355 0.404303H1.56168ZM2.33977 1.96672H11.7174V5.17124C9.93937 5.53529 8.59101 7.12036 8.59101 9.00229C8.59101 10.8842 9.93937 12.4646 11.7174 12.8271V16.0316H2.33977V12.9068H4.68808C4.79067 12.9064 4.89218 12.8858 4.9868 12.8461C5.08143 12.8065 5.16732 12.7486 5.23957 12.6758C5.31182 12.6029 5.36902 12.5166 5.4079 12.4216C5.44678 12.3267 5.46658 12.225 5.46617 12.1224V5.87589C5.46658 5.7733 5.44678 5.67164 5.4079 5.5767C5.36902 5.48176 5.31182 5.39541 5.23957 5.32258C5.16732 5.24975 5.08143 5.19186 4.9868 5.15222C4.89218 5.11258 4.79067 5.09197 4.68808 5.09156H2.33977V1.96672ZM13.2798 1.96672H22.6575V5.09156H20.3091C20.2066 5.09197 20.1051 5.11258 20.0104 5.15222C19.9158 5.19186 19.8299 5.24975 19.7577 5.32258C19.6854 5.39541 19.6282 5.48176 19.5893 5.5767C19.5504 5.67164 19.5307 5.7733 19.5311 5.87589V12.1224C19.5307 12.225 19.5504 12.3267 19.5893 12.4216C19.6282 12.5166 19.6854 12.6029 19.7577 12.6758C19.8299 12.7486 19.9158 12.8065 20.0104 12.8461C20.1051 12.8858 20.2066 12.9064 20.3091 12.9068H22.6575V16.0316H13.2798V12.8255C15.0571 12.4607 16.4062 10.8819 16.4062 9.00229C16.4062 7.1227 15.0563 5.53841 13.2798 5.17281V1.96672ZM2.33977 6.65554H3.90375V11.3428H2.33977V6.65554ZM12.4955 6.65554C12.8041 6.6542 13.11 6.71397 13.3954 6.83141C13.6808 6.94885 13.9401 7.12164 14.1584 7.3398C14.3767 7.55796 14.5497 7.81719 14.6673 8.10252C14.785 8.38786 14.8449 8.69366 14.8438 9.00229C14.8447 9.31057 14.7846 9.61598 14.6668 9.90088C14.549 10.1858 14.376 10.4445 14.1576 10.6621C13.9393 10.8798 13.6799 11.052 13.3947 11.1688C13.1094 11.2856 12.8038 11.3448 12.4955 11.3428C12.1876 11.3447 11.8824 11.2854 11.5976 11.1684C11.3128 11.0515 11.0541 10.8791 10.8363 10.6614C10.6186 10.4437 10.4463 10.185 10.3293 9.90017C10.2124 9.61536 10.1531 9.31017 10.155 9.00229C10.153 8.69409 10.2122 8.38856 10.329 8.10336C10.4459 7.81816 10.6181 7.55895 10.8357 7.34072C11.0534 7.1225 11.3121 6.94958 11.597 6.83197C11.8819 6.71437 12.1873 6.6544 12.4955 6.65554ZM21.095 6.65554H22.6575V11.3428H21.095V6.65554Z" fill="black"/>
</svg>
