<svg width="25" height="26" viewBox="0 0 25 26" fill="none" xmlns="http://www.w3.org/2000/svg">
<path d="M13.2406 14.2501L10.3649 17.1125C10.2477 17.2287 10.1547 17.367 10.0913 17.5193C10.0278 17.6716 9.9951 17.835 9.9951 18C9.9951 18.1651 10.0278 18.3284 10.0913 18.4808C10.1547 18.6331 10.2477 18.7713 10.3649 18.8875C10.4812 19.0047 10.6194 19.0977 10.7718 19.1611C10.9242 19.2246 11.0876 19.2573 11.2526 19.2573C11.4177 19.2573 11.5811 19.2246 11.7335 19.1611C11.8858 19.0977 12.0241 19.0047 12.1404 18.8875L17.1415 13.8876C17.2554 13.7687 17.3446 13.6285 17.4041 13.4751C17.5291 13.1707 17.5291 12.8294 17.4041 12.5251C17.3446 12.3716 17.2554 12.2314 17.1415 12.1126L12.1404 7.11259C12.0238 6.99604 11.8854 6.90359 11.7331 6.84052C11.5808 6.77744 11.4175 6.74498 11.2526 6.74498C11.0878 6.74498 10.9245 6.77744 10.7722 6.84052C10.6199 6.90359 10.4815 6.99604 10.3649 7.11259C10.2484 7.22914 10.1559 7.3675 10.0928 7.51978C10.0297 7.67205 9.99723 7.83526 9.99723 8.00009C9.99723 8.16491 10.0297 8.32812 10.0928 8.4804C10.1559 8.63267 10.2484 8.77103 10.3649 8.88758L13.2406 11.7501H1.25029C0.918695 11.7501 0.600678 11.8818 0.366202 12.1162C0.131727 12.3506 0 12.6685 0 13.0001C0 13.3316 0.131727 13.6495 0.366202 13.8839C0.600678 14.1184 0.918695 14.2501 1.25029 14.2501H13.2406ZM12.5029 0.500125C10.1663 0.489695 7.8734 1.13414 5.88447 2.36035C3.89553 3.58657 2.29011 5.34549 1.25029 7.43759C1.10107 7.73596 1.07652 8.08137 1.18203 8.39783C1.28755 8.7143 1.51449 8.9759 1.81293 9.12508C2.11136 9.27426 2.45686 9.29881 2.7734 9.19332C3.08994 9.08784 3.3516 8.86095 3.50082 8.56258C4.29125 6.96674 5.49358 5.61087 6.98358 4.63509C8.47357 3.6593 10.1972 3.09901 11.9763 3.0121C13.7553 2.9252 15.5254 3.31483 17.1034 4.14074C18.6815 4.96666 20.0103 6.19888 20.9526 7.71008C21.8948 9.22128 22.4164 10.9566 22.4633 12.7368C22.5102 14.517 22.0808 16.2773 21.2194 17.8361C20.358 19.3948 19.0959 20.6952 17.5635 21.603C16.0312 22.5109 14.2841 22.9931 12.5029 23C10.6386 23.0081 8.80976 22.4905 7.22631 21.5066C5.64286 20.5227 4.36897 19.1124 3.55083 17.4375C3.40161 17.1392 3.13995 16.9123 2.82341 16.8068C2.50687 16.7013 2.16138 16.7259 1.86294 16.875C1.5645 17.0242 1.33756 17.2858 1.23205 17.6023C1.12653 17.9188 1.15109 18.2642 1.30031 18.5625C2.29157 20.5569 3.79779 22.2503 5.66317 23.4676C7.52854 24.6848 9.68533 25.3817 11.9104 25.4862C14.1356 25.5907 16.3482 25.099 18.3195 24.0619C20.2908 23.0248 21.9491 21.48 23.123 19.5873C24.2969 17.6946 24.9437 15.5227 24.9965 13.2963C25.0493 11.0699 24.5062 8.86982 23.4233 6.92363C22.3404 4.97744 20.7572 3.35582 18.8373 2.2265C16.9173 1.09718 14.7305 0.50117 12.5029 0.500125Z" fill="black"/>
</svg>
