<svg width="25" height="24" viewBox="0 0 25 24" fill="none" xmlns="http://www.w3.org/2000/svg">
<path d="M24.9967 6.39111C25.0065 6.33974 24.9902 6.28323 24.9477 6.23185C24.9444 6.22928 24.9411 6.22414 24.9378 6.22158C24.9346 6.21901 24.9313 6.21387 24.928 6.2113C24.9248 6.20873 24.9215 6.20359 24.9182 6.20103L24.9084 6.19332C24.9084 6.19332 24.9084 6.19075 24.9051 6.19075L23.9465 5.43811C23.2071 4.855 22.4645 4.27446 21.7251 3.69392C20.8908 3.03889 20.0598 2.38643 19.2288 1.73139L17.4425 0.328854C17.3378 0.246654 17.2364 0.159316 17.1252 0.0796848C16.9976 -0.0127904 16.8569 0.00262217 16.7031 0.00262217H2.52061C1.97098 0.00262217 1.41807 -0.0359091 0.917511 0.182435C0.348247 0.434173 0.00799733 0.91453 0.00145406 1.42314V22.4561C0.00145406 22.4998 -0.00181757 22.5409 0.00145406 22.5845C0.011269 23.2909 0.681954 23.892 1.57511 23.9819C1.8761 24.0128 2.19018 23.9948 2.49444 23.9948H22.5855C22.965 23.9948 23.3838 24.023 23.747 23.928C24.4896 23.7353 24.9902 23.1933 25 22.5794V6.39111H24.9967ZM20.0631 19.4995H4.93508C4.56865 19.4995 4.29711 19.2631 4.28075 18.9857C4.26439 18.7083 4.59156 18.472 4.93508 18.472H5.95583V13.6735C5.95583 13.5323 5.93292 13.3601 6.01799 13.2291C6.22083 12.9132 6.72139 12.9748 7.09435 12.9748H8.47826C8.61894 12.9748 8.76289 12.9774 8.90357 12.98C8.91993 12.98 8.93956 12.98 8.95591 12.9825C8.96573 12.9825 8.97554 12.9851 8.98536 12.9851C8.99517 12.9851 9.00499 12.9877 9.0148 12.9877C9.02135 12.9877 9.02789 12.9902 9.03443 12.9902C9.05079 12.9928 9.06715 12.9954 9.08351 13.0005H9.08678C9.10968 13.0057 9.13258 13.0134 9.15548 13.0211C9.31906 13.0776 9.43357 13.188 9.48265 13.3345C9.49246 13.3576 9.50882 13.3858 9.51209 13.4141C9.51209 13.4192 9.51536 13.4218 9.51536 13.4244V13.4269C9.51536 13.4346 9.51536 13.4423 9.51863 13.4526C9.51863 13.4552 9.51536 13.4578 9.51536 13.4603V18.4694H10.8567V18.4411C10.8567 18.3975 10.8633 18.3512 10.8633 18.3076C10.8633 18.2613 10.8665 18.2151 10.8665 18.1689C10.8698 18.0301 10.8764 17.8914 10.8796 17.7553C10.8796 17.7167 10.8829 17.6756 10.8829 17.6371C10.8829 17.6037 10.8829 17.5729 10.8862 17.5395V10.6013C10.8862 10.5371 10.8796 10.4754 10.8796 10.4112C10.8796 10.3881 10.8829 10.3624 10.8862 10.3393C10.8894 10.3239 10.8927 10.311 10.896 10.2982L10.9156 10.2442C10.9189 10.2391 10.9222 10.2314 10.9254 10.2263L10.9353 10.2109L10.9647 10.1646C10.968 10.162 10.968 10.1569 10.9712 10.1543C10.9778 10.1466 10.9843 10.1364 10.9941 10.1287C11.0825 10.031 11.2199 9.96425 11.39 9.94627C11.4064 9.9437 11.426 9.9437 11.4456 9.94113C11.5045 9.93856 11.5667 9.936 11.6256 9.936H11.6681C11.9985 9.93086 12.329 9.93856 12.6594 9.9437H13.7096C13.7587 9.9437 13.8045 9.93856 13.8535 9.94113C13.9157 9.9437 13.9746 9.95141 14.0269 9.96682C14.0302 9.96682 14.0368 9.96939 14.04 9.96939C14.0826 9.97966 14.1185 9.99508 14.1545 10.0131C14.1676 10.0208 14.1807 10.0259 14.1905 10.0336C14.2036 10.0413 14.2134 10.049 14.2265 10.0567L14.2429 10.0696L14.2592 10.0824C14.2789 10.1004 14.2985 10.1184 14.3148 10.1389C14.3181 10.1441 14.3247 10.1492 14.3279 10.1543C14.341 10.1698 14.3508 10.1852 14.3607 10.2031C14.3639 10.2083 14.3672 10.2134 14.3705 10.2211C14.3836 10.2442 14.3934 10.2674 14.3999 10.2931C14.4032 10.3008 14.4065 10.311 14.4097 10.3187C14.413 10.3239 14.413 10.3316 14.4163 10.3367C14.4195 10.3521 14.4228 10.3675 14.4228 10.3855V18.472H15.81C15.81 18.1432 15.8296 17.8144 15.8296 17.4856V11.7701C15.8296 11.7059 15.8231 11.6442 15.846 11.58C15.9343 11.3283 16.2189 11.2538 16.5134 11.2538H18.7152C18.9115 11.2538 19.0816 11.3 19.1994 11.3925C19.2158 11.4053 19.2321 11.4207 19.2485 11.4361C19.2714 11.4593 19.291 11.485 19.3074 11.5132C19.3237 11.5415 19.3368 11.5723 19.3499 11.6031C19.3597 11.6237 19.363 11.6442 19.3663 11.6673V18.472H20.0598C20.4263 18.472 20.6978 18.7083 20.7142 18.9857C20.7305 19.2631 20.4034 19.4995 20.0631 19.4995ZM18.4371 6.11626H18.0052C17.9791 6.11626 17.9496 6.11369 17.9235 6.11369C17.8842 6.10598 17.8449 6.10084 17.8057 6.09314C17.773 6.08543 17.629 6.06231 17.7206 6.07259C17.7304 6.07259 17.7402 6.07516 17.7468 6.07516C17.7337 6.07259 17.7141 6.06745 17.701 6.06231C17.6683 6.04947 17.6388 6.03663 17.6061 6.02121L17.557 5.99553C17.5505 5.98782 17.4687 5.93644 17.4523 5.92617C17.4458 5.92103 17.4164 5.90048 17.3902 5.87993C17.3869 5.87479 17.3836 5.86966 17.3771 5.86452L17.3673 5.84911C17.3542 5.83626 17.3444 5.82085 17.3313 5.80801C17.3248 5.8003 17.2986 5.76691 17.2789 5.73865C17.2757 5.73351 17.2724 5.72581 17.2691 5.71553C17.2659 5.70269 17.2593 5.69241 17.2528 5.67957C17.2495 5.67443 17.2495 5.67186 17.2462 5.66673C17.2331 5.6359 17.2462 5.60507 17.2135 5.57425V5.54086C17.2102 5.52801 17.207 5.52031 17.207 5.51517C17.207 5.51774 17.2102 5.52801 17.2135 5.53572C17.2135 5.51774 17.2102 5.50233 17.2102 5.49205C17.2102 5.44838 17.2102 5.40728 17.2135 5.36361V2.80256C17.2135 2.45578 17.2201 2.109 17.2233 1.76222L18.7414 2.95412L22.7687 6.11626H18.4371Z" fill="black"/>
</svg>
