<svg width="25" height="24" viewBox="0 0 25 24" fill="none" xmlns="http://www.w3.org/2000/svg">
<path d="M19.6163 3.87033C19.6225 3.87594 19.6271 3.88296 19.6298 3.89074C19.6324 3.89852 19.633 3.90681 19.6314 3.91485L19.4332 5.00313C19.4041 5.15984 19.4215 5.32126 19.4835 5.46891C19.5454 5.61656 19.6495 5.74449 19.7836 5.83806C19.9177 5.93163 20.0766 5.98706 20.242 5.99802C20.4075 6.00898 20.5728 5.97501 20.719 5.90001L21.7363 5.38245C21.7438 5.37885 21.7521 5.37701 21.7606 5.37707C21.769 5.37713 21.7773 5.3791 21.7847 5.38281L22.8014 5.89961C22.9477 5.97422 23.1129 6.0079 23.2781 5.99681C23.4434 5.98571 23.602 5.9303 23.7361 5.83687C23.8701 5.74345 23.9742 5.61576 24.0363 5.46836C24.0985 5.32096 24.1162 5.15976 24.0876 5.00313L23.8891 3.91445C23.8877 3.90654 23.8883 3.89842 23.891 3.8908C23.8936 3.88318 23.8981 3.8763 23.9041 3.87073L24.7306 3.10237C24.8496 2.99177 24.9338 2.85135 24.9738 2.69706C25.0138 2.54277 25.0079 2.3808 24.9567 2.22958C24.9056 2.07836 24.8112 1.94395 24.6845 1.84164C24.5577 1.73932 24.4036 1.67321 24.2396 1.65081L23.1007 1.49573C23.0922 1.49466 23.0842 1.49159 23.0773 1.48682C23.0705 1.48204 23.0649 1.47571 23.0612 1.46837L22.555 0.476008C22.4828 0.332852 22.37 0.212203 22.2294 0.127982C22.0889 0.0437596 21.9264 -0.000604443 21.7607 7.48177e-06C21.5949 -0.000662439 21.4319 0.0436691 21.2912 0.127889C21.1505 0.21211 21.0375 0.332789 20.9652 0.476008L20.4594 1.46801C20.4557 1.47528 20.4503 1.48157 20.4434 1.48634C20.4366 1.49111 20.4287 1.49421 20.4204 1.49537L19.281 1.65045C19.1171 1.6728 18.9629 1.73889 18.8361 1.84119C18.7093 1.94349 18.6149 2.0779 18.5637 2.22913C18.5126 2.38036 18.5066 2.54234 18.5466 2.69665C18.5866 2.85096 18.6709 2.99141 18.7899 3.10201L19.6163 3.87033ZM17.0837 7.48177e-06H0.416675C0.306166 7.48177e-06 0.200183 0.0421502 0.122041 0.117165C0.0438995 0.192179 0 0.293921 0 0.400008V6.80001C4.77222e-06 6.87007 0.0191777 6.9389 0.0556 6.99961C0.0920223 7.06033 0.144416 7.11079 0.207538 7.14595C0.27066 7.18112 0.342296 7.19975 0.415276 7.19999C0.488256 7.20022 0.560021 7.18205 0.623387 7.14729L3.44411 5.60001H17.0837C17.1942 5.60001 17.3002 5.55787 17.3783 5.48285C17.4564 5.40784 17.5003 5.3061 17.5003 5.20001V0.400008C17.5003 0.293921 17.4564 0.192179 17.3783 0.117165C17.3002 0.0421502 17.1942 7.48177e-06 17.0837 7.48177e-06ZM12.9169 3.20001H4.58342C4.47292 3.20001 4.36693 3.15787 4.28879 3.08285C4.21065 3.00784 4.16675 2.9061 4.16675 2.80001C4.16675 2.69392 4.21065 2.59218 4.28879 2.51717C4.36693 2.44215 4.47292 2.40001 4.58342 2.40001H12.9169C13.0274 2.40001 13.1334 2.44215 13.2116 2.51717C13.2897 2.59218 13.3336 2.69392 13.3336 2.80001C13.3336 2.9061 13.2897 3.00784 13.2116 3.08285C13.1334 3.15787 13.0274 3.20001 12.9169 3.20001ZM24.2396 10.0508L23.1007 9.89574C23.0922 9.89466 23.0842 9.8916 23.0773 9.88683C23.0705 9.88205 23.0649 9.87571 23.0612 9.86838L22.555 8.87602C22.4828 8.73286 22.37 8.61221 22.2294 8.52799C22.0889 8.44377 21.9264 8.3994 21.7607 8.40001C21.5949 8.39934 21.4319 8.44368 21.2912 8.5279C21.1505 8.61212 21.0375 8.7328 20.9652 8.87602L20.4594 9.86802C20.4557 9.87529 20.4503 9.88158 20.4434 9.88635C20.4366 9.89112 20.4287 9.89422 20.4204 9.89538L19.281 10.0505C19.1171 10.0728 18.9629 10.1389 18.8361 10.2412C18.7093 10.3435 18.6149 10.4779 18.5637 10.6291C18.5126 10.7804 18.5066 10.9424 18.5466 11.0967C18.5866 11.251 18.6709 11.3914 18.7899 11.502L19.6163 12.27C19.6225 12.2756 19.6271 12.2826 19.6298 12.2904C19.6324 12.2982 19.633 12.3065 19.6314 12.3145L19.4332 13.4028C19.404 13.5596 19.4214 13.721 19.4833 13.8687C19.5453 14.0164 19.6493 14.1444 19.7834 14.238C19.9176 14.3316 20.0765 14.3871 20.2419 14.3981C20.4074 14.409 20.5727 14.375 20.719 14.3L21.7363 13.7825C21.7438 13.7789 21.7521 13.777 21.7606 13.7771C21.769 13.7771 21.7773 13.7791 21.7847 13.7828L22.8014 14.2996C22.9477 14.3742 23.1129 14.4079 23.2781 14.3968C23.4434 14.3857 23.602 14.3303 23.7361 14.2369C23.8701 14.1435 23.9742 14.0158 24.0363 13.8684C24.0985 13.721 24.1162 13.5598 24.0876 13.4031L23.8891 12.3145C23.8877 12.3065 23.8883 12.2984 23.891 12.2908C23.8936 12.2832 23.8981 12.2763 23.9041 12.2707L24.7306 11.5024C24.8496 11.3918 24.9338 11.2514 24.9738 11.0971C25.0138 10.9428 25.0079 10.7809 24.9568 10.6297C24.9056 10.4785 24.8114 10.344 24.6846 10.2417C24.5579 10.1394 24.4036 10.0732 24.2396 10.0508ZM17.0837 8.40001H0.416675C0.306166 8.40001 0.200183 8.44216 0.122041 8.51717C0.0438995 8.59219 0 8.69393 0 8.80002V15.2C4.77222e-06 15.2701 0.0191777 15.3389 0.0556 15.3996C0.0920223 15.4603 0.144416 15.5108 0.207538 15.546C0.27066 15.5811 0.342296 15.5998 0.415276 15.6C0.488256 15.6002 0.560021 15.5821 0.623387 15.5473L3.44411 14H17.0837C17.1942 14 17.3002 13.9579 17.3783 13.8829C17.4564 13.8078 17.5003 13.7061 17.5003 13.6V8.80002C17.5003 8.69393 17.4564 8.59219 17.3783 8.51717C17.3002 8.44216 17.1942 8.40001 17.0837 8.40001ZM12.9169 11.6H4.58342C4.47292 11.6 4.36693 11.5579 4.28879 11.4829C4.21065 11.4078 4.16675 11.3061 4.16675 11.2C4.16675 11.0939 4.21065 10.9922 4.28879 10.9172C4.36693 10.8422 4.47292 10.8 4.58342 10.8H12.9169C13.0274 10.8 13.1334 10.8422 13.2116 10.9172C13.2897 10.9922 13.3336 11.0939 13.3336 11.2C13.3336 11.3061 13.2897 11.4078 13.2116 11.4829C13.1334 11.5579 13.0274 11.6 12.9169 11.6ZM24.2396 18.4508L23.1007 18.2957C23.0922 18.2947 23.0842 18.2916 23.0773 18.2868C23.0705 18.2821 23.0649 18.2757 23.0612 18.2684L22.555 17.276C22.4828 17.1329 22.37 17.0122 22.2294 16.928C22.0889 16.8438 21.9264 16.7994 21.7607 16.8C21.5949 16.7994 21.4319 16.8437 21.2912 16.9279C21.1505 17.0121 21.0375 17.1328 20.9652 17.276L20.4594 18.2682C20.4557 18.2755 20.4503 18.2818 20.4434 18.2866C20.4366 18.2913 20.4287 18.2944 20.4204 18.2956L19.281 18.4507C19.1171 18.473 18.9629 18.5391 18.8361 18.6414C18.7093 18.7437 18.6149 18.8781 18.5637 19.0293C18.5126 19.1806 18.5066 19.3426 18.5466 19.4969C18.5866 19.6512 18.6709 19.7916 18.7899 19.9022L19.6163 20.6702C19.6225 20.6758 19.6271 20.6829 19.6298 20.6906C19.6324 20.6984 19.633 20.7067 19.6314 20.7147L19.4332 21.803C19.4041 21.9597 19.4215 22.1212 19.4834 22.2688C19.5454 22.4165 19.6494 22.5445 19.7835 22.6381C19.9177 22.7316 20.0766 22.7871 20.242 22.798C20.4075 22.809 20.5728 22.775 20.719 22.7L21.7363 22.1825C21.7438 22.1789 21.7521 22.177 21.7606 22.1771C21.769 22.1771 21.7773 22.1791 21.7847 22.1828L22.8014 22.6996C22.9477 22.7742 23.1129 22.8079 23.2781 22.7968C23.4434 22.7857 23.602 22.7303 23.7361 22.6369C23.8701 22.5435 23.9742 22.4158 24.0363 22.2684C24.0985 22.121 24.1162 21.9598 24.0876 21.8031L23.8891 20.7145C23.8877 20.7065 23.8883 20.6984 23.891 20.6908C23.8936 20.6832 23.8981 20.6763 23.9041 20.6707L24.7306 19.9024C24.8496 19.7918 24.9338 19.6514 24.9738 19.4971C25.0138 19.3428 25.0079 19.1809 24.9568 19.0297C24.9056 18.8785 24.8114 18.744 24.6846 18.6417C24.5579 18.5394 24.4036 18.4733 24.2396 18.4508ZM17.0837 16.8H0.416675C0.306166 16.8 0.200183 16.8422 0.122041 16.9172C0.0438995 16.9922 0 17.0939 0 17.2V23.6C4.77222e-06 23.6701 0.0191777 23.7389 0.0556 23.7996C0.0920223 23.8603 0.144416 23.9108 0.207538 23.946C0.27066 23.9811 0.342296 23.9998 0.415276 24C0.488256 24.0002 0.560021 23.9821 0.623387 23.9473L3.44411 22.4H17.0837C17.1942 22.4 17.3002 22.3579 17.3783 22.2829C17.4564 22.2079 17.5003 22.1061 17.5003 22V17.2C17.5003 17.0939 17.4564 16.9922 17.3783 16.9172C17.3002 16.8422 17.1942 16.8 17.0837 16.8ZM12.9169 20H4.58342C4.47292 20 4.36693 19.9579 4.28879 19.8829C4.21065 19.8079 4.16675 19.7061 4.16675 19.6C4.16675 19.4939 4.21065 19.3922 4.28879 19.3172C4.36693 19.2422 4.47292 19.2 4.58342 19.2H12.9169C13.0274 19.2 13.1334 19.2422 13.2116 19.3172C13.2897 19.3922 13.3336 19.4939 13.3336 19.6C13.3336 19.7061 13.2897 19.8079 13.2116 19.8829C13.1334 19.9579 13.0274 20 12.9169 20Z" fill="black"/>
</svg>
