<svg width="25" height="26" viewBox="0 0 25 26" fill="none" xmlns="http://www.w3.org/2000/svg">
<path d="M0.92217 14.9944L2.92699 15.2248C3.16757 16.2665 3.5785 17.2683 4.1499 18.1698L2.88685 19.7525C2.55611 20.1732 2.59616 20.7642 2.96704 21.1348L4.35034 22.5171C4.72122 22.8877 5.31265 22.9278 5.73364 22.5973L7.31747 21.3352C8.21961 21.9062 9.22198 22.3168 10.2646 22.5571L10.4951 24.5606C10.6522 25.9473 12.4737 25.3485 13.4723 25.4821C14.0035 25.4821 14.4447 25.0914 14.5048 24.5606L14.7353 22.5571C15.7779 22.3168 16.7803 21.906 17.6824 21.335L19.2663 22.5973C19.6873 22.9278 20.2787 22.8877 20.6496 22.5171L22.0329 21.1348C22.4038 20.7642 22.4439 20.1732 22.1132 19.7524L20.8501 18.1697C21.4215 17.2683 21.8324 16.2666 22.073 15.2249L24.0778 14.9944C24.6091 14.9344 25 14.4937 25 13.9626V12.0194C25 11.4885 24.6091 11.0478 24.0778 10.9876L22.073 10.7571C21.8324 9.71549 21.4215 8.71367 20.8501 7.81227L22.1132 6.22958C22.4439 5.8089 22.4038 5.2179 22.0329 4.84728L20.6496 3.46498C20.2787 3.09437 19.6873 3.05426 19.2663 3.38485L17.6824 4.6469C16.7803 4.07591 15.7779 3.66527 14.7353 3.42496L14.5048 1.4215C14.4447 0.89053 14.0036 0.5 13.4723 0.5H11.5276C10.9964 0.5 10.5553 0.890714 10.4951 1.4215L10.2646 3.42496C9.22198 3.66527 8.21961 4.07591 7.31747 4.6469L5.73364 3.38485C5.31265 3.05435 4.72122 3.09446 4.35034 3.46508L2.96704 4.84738C2.59616 5.21799 2.55611 5.8089 2.88685 6.22968L4.1499 7.81227C3.5785 8.71385 3.16757 9.71549 2.92699 10.7573L0.92217 10.9878C0.390904 11.0478 0 11.4887 0 12.0196V13.9628C0 14.4937 0.390904 14.9344 0.92217 14.9944ZM9.27421 9.77773C11.0553 7.9979 13.9363 7.9979 15.7174 9.77773C17.4865 11.5456 17.4865 14.4363 15.7174 16.2043C13.9363 17.9841 11.0553 17.9841 9.27421 16.2043C7.49308 14.4364 7.49308 11.5456 9.27421 9.77773Z" fill="black"/>
</svg>
