<svg width="25" height="24" viewBox="0 0 25 24" fill="none" xmlns="http://www.w3.org/2000/svg">
<path d="M17.7373 3.97421C18.0563 4.13203 18.4339 4.17351 18.7879 4.0896C19.1418 4.00569 19.4433 3.8032 19.6266 3.52631C19.7782 3.29312 20.0144 3.11037 20.2981 3.00673C20.5817 2.9031 20.8969 2.88443 21.194 2.95367C21.4912 3.02291 21.7535 3.17612 21.94 3.3893C22.1265 3.60247 22.2265 3.86355 22.2243 4.13158C22.2243 4.45263 22.078 4.76053 21.8174 4.98755C21.5569 5.21457 21.2036 5.3421 20.8351 5.3421C20.4667 5.3421 20.1134 5.46964 19.8528 5.69666C19.5923 5.92368 19.446 6.23158 19.446 6.55263C19.446 6.87368 19.5923 7.18158 19.8528 7.4086C20.1134 7.63562 20.4667 7.76316 20.8351 7.76316C21.5666 7.76275 22.285 7.5946 22.9183 7.2756C23.5515 6.9566 24.0772 6.49799 24.4427 5.94586C24.8081 5.39372 25.0003 4.7675 25 4.13012C24.9997 3.49275 24.8069 2.86666 24.441 2.31478C24.0751 1.7629 23.5489 1.30466 22.9154 0.986103C22.2818 0.667547 21.5632 0.499898 20.8318 0.5C20.1004 0.500102 19.3818 0.667952 18.7484 0.986684C18.115 1.30542 17.589 1.7638 17.2233 2.31579C17.1314 2.45395 17.0719 2.60658 17.048 2.76489C17.0241 2.9232 17.0364 3.08407 17.0842 3.23821C17.132 3.39236 17.2143 3.53675 17.3264 3.66307C17.4384 3.78938 17.5781 3.89513 17.7373 3.97421ZM23.7107 12.6053C23.3461 12.564 22.9775 12.6504 22.6859 12.8456C22.3942 13.0407 22.2033 13.3287 22.1549 13.6463C21.8633 15.6983 20.7208 17.5867 18.9426 18.9557C17.1643 20.3247 14.8729 21.0798 12.5001 21.0789H4.73458L5.63754 20.2921C5.89628 20.0653 6.0415 19.7585 6.0415 19.4387C6.0415 19.1189 5.89628 18.8121 5.63754 18.5853C4.28302 17.4003 3.36121 15.8925 2.98823 14.2519C2.61525 12.6113 2.80777 10.9112 3.54155 9.36569C4.27533 7.82022 5.51754 6.49854 7.11172 5.56713C8.7059 4.63571 10.5807 4.13623 12.5001 4.13158C12.8685 4.13158 13.2219 4.00404 13.4824 3.77702C13.7429 3.55001 13.8893 3.2421 13.8893 2.92105C13.8893 2.6 13.7429 2.2921 13.4824 2.06508C13.2219 1.83806 12.8685 1.71053 12.5001 1.71053C10.1513 1.71906 7.85278 2.30397 5.86786 3.39823C3.88294 4.4925 2.29189 6.05186 1.277 7.89767C0.262113 9.74349 -0.135569 11.8011 0.129516 13.8347C0.394601 15.8684 1.31173 17.7959 2.77584 19.3963L0.400342 21.43C0.207583 21.6002 0.0770056 21.8164 0.0250863 22.0512C-0.026833 22.2861 0.00223226 22.529 0.108615 22.7495C0.212831 22.9705 0.389809 23.1598 0.617246 23.2933C0.844682 23.4269 1.1124 23.4988 1.38666 23.5H12.5001C15.5444 23.5004 18.4843 22.5328 20.7682 20.7788C23.0521 19.0248 24.5232 16.605 24.9054 13.9732C24.9308 13.8149 24.92 13.6538 24.8736 13.4992C24.8272 13.3446 24.7462 13.1995 24.6351 13.0723C24.524 12.9452 24.3852 12.8384 24.2265 12.7583C24.0679 12.6781 23.8926 12.6261 23.7107 12.6053ZM21.363 9.05842C21.1101 8.96092 20.8296 8.93141 20.5573 8.97368L20.3073 9.04632L20.0572 9.15526L19.8488 9.31263C19.7239 9.42418 19.6248 9.55571 19.5571 9.7C19.475 9.851 19.4368 10.0173 19.446 10.1842C19.4419 10.3457 19.475 10.5062 19.5432 10.6563C19.6151 10.8016 19.7189 10.9332 19.8488 11.0437C19.9786 11.1559 20.1326 11.2446 20.3018 11.3049C20.4711 11.3651 20.6523 11.3957 20.8351 11.3947C21.2036 11.3947 21.5569 11.2672 21.8174 11.0402C22.078 10.8132 22.2243 10.5053 22.2243 10.1842C22.229 10.0254 22.191 9.86787 22.1132 9.72421C21.9639 9.43333 21.6968 9.2006 21.363 9.07053V9.05842Z" fill="black"/>
</svg>
