<svg width="25" height="21" viewBox="0 0 25 21" fill="none" xmlns="http://www.w3.org/2000/svg">
<path d="M7.5 10.5C9.91797 10.5 11.875 8.26339 11.875 5.5C11.875 2.73661 9.91797 0.5 7.5 0.5C5.08203 0.5 3.125 2.73661 3.125 5.5C3.125 8.26339 5.08203 10.5 7.5 10.5ZM10.5 11.9286H10.1758C9.36328 12.375 8.46094 12.6429 7.5 12.6429C6.53906 12.6429 5.64062 12.375 4.82422 11.9286H4.5C2.01562 11.9286 0 14.2321 0 17.0714V18.3571C0 19.5402 0.839844 20.5 1.875 20.5H13.125C14.1602 20.5 15 19.5402 15 18.3571V17.0714C15 14.2321 12.9844 11.9286 10.5 11.9286ZM18.75 10.5C20.8203 10.5 22.5 8.58036 22.5 6.21429C22.5 3.84821 20.8203 1.92857 18.75 1.92857C16.6797 1.92857 15 3.84821 15 6.21429C15 8.58036 16.6797 10.5 18.75 10.5ZM20.625 11.9286H20.4766C19.9336 12.1429 19.3594 12.2857 18.75 12.2857C18.1406 12.2857 17.5664 12.1429 17.0234 11.9286H16.875C16.0781 11.9286 15.3438 12.192 14.6992 12.6161C15.6523 13.7902 16.25 15.3482 16.25 17.0714V18.7857C16.25 18.8839 16.2305 18.9777 16.2266 19.0714H23.125C24.1602 19.0714 25 18.1116 25 16.9286C25 14.1652 23.043 11.9286 20.625 11.9286Z" fill="black"/>
</svg>
