<svg width="25" height="20" viewBox="0 0 25 20" fill="none" xmlns="http://www.w3.org/2000/svg">
<path d="M23.7903 0.5H1.20968C0.540323 0.5 0 1.17857 0 2.01919V5.83742C0 6.67804 0.540323 7.35661 1.20968 7.35661C2.37097 7.35661 3.31452 8.54158 3.31452 10C3.31452 11.4584 2.37097 12.6434 1.20968 12.6434C0.540323 12.6434 0 13.322 0 14.1626V17.9808C0 18.8214 0.540323 19.5 1.20968 19.5H23.7903C24.4597 19.5 25 18.8214 25 17.9808V14.1626C25 13.322 24.4597 12.6434 23.7903 12.6434C22.629 12.6434 21.6855 11.4584 21.6855 10C21.6855 8.54158 22.629 7.35661 23.7903 7.35661C24.4597 7.35661 25 6.67804 25 5.83742V2.01919C25 1.17857 24.4597 0.5 23.7903 0.5ZM17.7419 13.5448C17.7419 14.3753 17.2016 15.064 16.5323 15.064C15.8629 15.064 15.3226 14.3753 15.3226 13.5448V6.45522C15.3226 5.62473 15.8629 4.93603 16.5323 4.93603C17.2016 4.93603 17.7419 5.62473 17.7419 6.45522V13.5448Z" fill="black"/>
</svg>
